<?xml version="1.0" encoding="utf-8" standalone="no"?>
<svg xmlns="http://www.w3.org/2000/svg" width="1040" height="900" viewBox="0 0 1040 900" version="1.1" role="img" aria-label="Dedicated prompt median token use, Codex GPT-5.4 mini">
 <defs>
  <style type="text/css">
   *{stroke-linejoin:round;stroke-linecap:butt}
   text{font-family:DejaVu Sans, Arial, sans-serif}
  </style>
 </defs>
 <g id="figure_1">
  <g id="patch_1">
   <path d="M 0 900 L 1040 900 L 1040 0 L 0 0 z" style="fill:#05070b"/>
  </g>
  <g id="axes_1">
   <path d="M 124 116 L 1016 116 L 1016 830 L 124 830 z" style="fill:#0b111a"/>
   <path d="M 124 830 L 1016 830" style="fill:none;stroke:#64748b;stroke-width:0.8"/>
   <path d="M 124 116 L 124 830" style="fill:none;stroke:#64748b;stroke-width:0.8"/>
   <g>
    <path d="M 124.000 116 L 124.000 830" style="fill:none;stroke:#1f2937;stroke-width:0.7"/>
    <text x="124.000" y="848" style="fill:#cbd5e1;font-size:11px;text-anchor:middle">0</text>
   </g>
   <g>
    <path d="M 347.000 116 L 347.000 830" style="fill:none;stroke:#1f2937;stroke-width:0.7"/>
    <text x="347.000" y="848" style="fill:#cbd5e1;font-size:11px;text-anchor:middle">750k</text>
   </g>
   <g>
    <path d="M 570.000 116 L 570.000 830" style="fill:none;stroke:#1f2937;stroke-width:0.7"/>
    <text x="570.000" y="848" style="fill:#cbd5e1;font-size:11px;text-anchor:middle">1.5M</text>
   </g>
   <g>
    <path d="M 793.000 116 L 793.000 830" style="fill:none;stroke:#1f2937;stroke-width:0.7"/>
    <text x="793.000" y="848" style="fill:#cbd5e1;font-size:11px;text-anchor:middle">2.3M</text>
   </g>
   <g>
    <path d="M 1016.000 116 L 1016.000 830" style="fill:none;stroke:#1f2937;stroke-width:0.7"/>
    <text x="1016.000" y="848" style="fill:#cbd5e1;font-size:11px;text-anchor:middle">3M</text>
   </g>
   <g>
    <path d="M 18 205.250 L 1016 205.250" style="fill:none;stroke:#1f2937;stroke-width:0.6"/>
    <text x="108" y="163.625" style="fill:#f8fafc;font-size:13px;font-weight:600;text-anchor:end">excalidraw</text>
    <rect x="124" y="133.625" width="474.205" height="9" style="fill:#94a3b8"/>
    <text x="603.205" y="141.925" style="fill:#cbd5e1;font-size:11px">1.6M</text>
    <rect x="124" y="147.125" width="12.103" height="9" style="fill:#22d3ee"/>
    <text x="141.103" y="155.425" style="fill:#22d3ee;font-size:11px;font-weight:700">41k (-97%)</text>
    <rect x="124" y="160.625" width="218.149" height="9" style="fill:#f59e0b"/>
    <text x="347.149" y="168.925" style="fill:#f59e0b;font-size:11px">734k (-54%)</text>
    <rect x="124" y="174.125" width="414.534" height="9" style="fill:#a3e635"/>
    <text x="543.534" y="182.425" style="fill:#a3e635;font-size:11px">1.4M (-13%)</text>
    <rect x="124" y="187.625" width="693.681" height="9" style="fill:#f472b6"/>
    <text x="822.681" y="195.925" style="fill:#fb7185;font-size:11px">2.3M (+46%)</text>
   </g>
   <g>
    <path d="M 18 294.500 L 1016 294.500" style="fill:none;stroke:#1f2937;stroke-width:0.6"/>
    <text x="108" y="252.875" style="fill:#f8fafc;font-size:13px;font-weight:600;text-anchor:end">nestjs</text>
    <rect x="124" y="222.875" width="719.160" height="9" style="fill:#94a3b8"/>
    <text x="848.160" y="231.175" style="fill:#cbd5e1;font-size:11px">2.4M</text>
    <rect x="124" y="236.375" width="12.005" height="9" style="fill:#22d3ee"/>
    <text x="141.005" y="244.675" style="fill:#22d3ee;font-size:11px;font-weight:700">40k (-98%)</text>
    <rect x="124" y="249.875" width="23.073" height="9" style="fill:#f59e0b"/>
    <text x="152.073" y="258.175" style="fill:#f59e0b;font-size:11px">78k (-97%)</text>
    <rect x="124" y="263.375" width="590.987" height="9" style="fill:#a3e635"/>
    <text x="719.987" y="271.675" style="fill:#a3e635;font-size:11px">2.0M (-18%)</text>
    <rect x="124" y="276.875" width="714.191" height="9" style="fill:#f472b6"/>
    <text x="843.191" y="285.175" style="fill:#f472b6;font-size:11px">2.4M (-1%)</text>
   </g>
   <g>
    <path d="M 18 383.750 L 1016 383.750" style="fill:none;stroke:#1f2937;stroke-width:0.6"/>
    <text x="108" y="342.125" style="fill:#f8fafc;font-size:13px;font-weight:600;text-anchor:end">rxjs</text>
    <rect x="124" y="312.125" width="124.849" height="9" style="fill:#94a3b8"/>
    <text x="253.849" y="320.425" style="fill:#cbd5e1;font-size:11px">420k</text>
    <rect x="124" y="325.625" width="10.705" height="9" style="fill:#22d3ee"/>
    <text x="139.705" y="333.925" style="fill:#22d3ee;font-size:11px;font-weight:700">36k (-91%)</text>
    <rect x="124" y="339.125" width="119.689" height="9" style="fill:#f59e0b"/>
    <text x="248.689" y="347.425" style="fill:#f59e0b;font-size:11px">403k (-4%)</text>
    <rect x="124" y="352.625" width="92.774" height="9" style="fill:#a3e635"/>
    <text x="221.774" y="360.925" style="fill:#a3e635;font-size:11px">312k (-26%)</text>
    <rect x="124" y="366.125" width="132.859" height="9" style="fill:#f472b6"/>
    <text x="261.859" y="374.425" style="fill:#fb7185;font-size:11px">447k (+6%)</text>
   </g>
   <g>
    <path d="M 18 473.000 L 1016 473.000" style="fill:none;stroke:#1f2937;stroke-width:0.6"/>
    <text x="108" y="431.375" style="fill:#f8fafc;font-size:13px;font-weight:600;text-anchor:end">shopping</text>
    <rect x="124" y="401.375" width="404.443" height="9" style="fill:#94a3b8"/>
    <text x="533.443" y="409.675" style="fill:#cbd5e1;font-size:11px">1.4M</text>
    <rect x="124" y="414.875" width="12.170" height="9" style="fill:#22d3ee"/>
    <text x="141.170" y="423.175" style="fill:#22d3ee;font-size:11px;font-weight:700">41k (-97%)</text>
    <rect x="124" y="428.375" width="89.388" height="9" style="fill:#f59e0b"/>
    <text x="218.388" y="436.675" style="fill:#f59e0b;font-size:11px">301k (-78%)</text>
    <rect x="124" y="441.875" width="193.850" height="9" style="fill:#a3e635"/>
    <text x="322.850" y="450.175" style="fill:#a3e635;font-size:11px">652k (-52%)</text>
    <rect x="124" y="455.375" width="324.646" height="9" style="fill:#f472b6"/>
    <text x="453.646" y="463.675" style="fill:#f472b6;font-size:11px">1.1M (-20%)</text>
   </g>
   <g>
    <path d="M 18 562.250 L 1016 562.250" style="fill:none;stroke:#1f2937;stroke-width:0.6"/>
    <text x="108" y="520.625" style="fill:#f8fafc;font-size:13px;font-weight:600;text-anchor:end">typeorm</text>
    <rect x="124" y="490.625" width="297.448" height="9" style="fill:#94a3b8"/>
    <text x="426.448" y="498.925" style="fill:#cbd5e1;font-size:11px">1.0M</text>
    <rect x="124" y="504.125" width="12.646" height="9" style="fill:#22d3ee"/>
    <text x="141.646" y="512.425" style="fill:#22d3ee;font-size:11px;font-weight:700">43k (-96%)</text>
    <rect x="124" y="517.625" width="109.894" height="9" style="fill:#f59e0b"/>
    <text x="238.894" y="525.925" style="fill:#f59e0b;font-size:11px">370k (-63%)</text>
    <rect x="124" y="531.125" width="222.231" height="9" style="fill:#a3e635"/>
    <text x="351.231" y="539.425" style="fill:#a3e635;font-size:11px">747k (-25%)</text>
    <rect x="124" y="544.625" width="281.582" height="9" style="fill:#f472b6"/>
    <text x="410.582" y="552.925" style="fill:#f472b6;font-size:11px">947k (-5%)</text>
   </g>
   <g>
    <path d="M 18 651.500 L 1016 651.500" style="fill:none;stroke:#1f2937;stroke-width:0.6"/>
    <text x="108" y="609.875" style="fill:#f8fafc;font-size:13px;font-weight:600;text-anchor:end">vscode</text>
    <rect x="124" y="579.875" width="370.167" height="9" style="fill:#94a3b8"/>
    <text x="499.167" y="588.175" style="fill:#cbd5e1;font-size:11px">1.2M</text>
    <rect x="124" y="593.375" width="11.954" height="9" style="fill:#22d3ee"/>
    <text x="140.954" y="601.675" style="fill:#22d3ee;font-size:11px;font-weight:700">40k (-97%)</text>
    <rect x="124" y="606.875" width="145.406" height="9" style="fill:#f59e0b"/>
    <text x="274.406" y="615.175" style="fill:#f59e0b;font-size:11px">489k (-61%)</text>
    <rect x="124" y="620.375" width="240.547" height="9" style="fill:#a3e635"/>
    <text x="369.547" y="628.675" style="fill:#a3e635;font-size:11px">809k (-35%)</text>
    <rect x="124" y="633.875" width="327.307" height="9" style="fill:#f472b6"/>
    <text x="456.307" y="642.175" style="fill:#f472b6;font-size:11px">1.1M (-12%)</text>
   </g>
   <g>
    <path d="M 18 740.750 L 1016 740.750" style="fill:none;stroke:#1f2937;stroke-width:0.6"/>
    <text x="108" y="699.125" style="fill:#f8fafc;font-size:13px;font-weight:600;text-anchor:end">vue</text>
    <rect x="124" y="669.125" width="204.073" height="9" style="fill:#94a3b8"/>
    <text x="333.073" y="677.425" style="fill:#cbd5e1;font-size:11px">686k</text>
    <rect x="124" y="682.625" width="11.613" height="9" style="fill:#22d3ee"/>
    <text x="140.613" y="690.925" style="fill:#22d3ee;font-size:11px;font-weight:700">39k (-94%)</text>
    <rect x="124" y="696.125" width="23.893" height="9" style="fill:#f59e0b"/>
    <text x="152.893" y="704.425" style="fill:#f59e0b;font-size:11px">80k (-88%)</text>
    <rect x="124" y="709.625" width="301.555" height="9" style="fill:#a3e635"/>
    <text x="430.555" y="717.925" style="fill:#fb7185;font-size:11px">1.0M (+48%)</text>
    <rect x="124" y="723.125" width="214.750" height="9" style="fill:#f472b6"/>
    <text x="343.750" y="731.425" style="fill:#fb7185;font-size:11px">722k (+5%)</text>
   </g>
   <g>
    <path d="M 18 830.000 L 1016 830.000" style="fill:none;stroke:#1f2937;stroke-width:0.6"/>
    <text x="108" y="788.375" style="fill:#f8fafc;font-size:13px;font-weight:600;text-anchor:end">zod</text>
    <rect x="124" y="758.375" width="327.918" height="9" style="fill:#94a3b8"/>
    <text x="456.918" y="766.675" style="fill:#cbd5e1;font-size:11px">1.1M</text>
    <rect x="124" y="771.875" width="13.061" height="9" style="fill:#22d3ee"/>
    <text x="142.061" y="780.175" style="fill:#22d3ee;font-size:11px;font-weight:700">44k (-96%)</text>
    <rect x="124" y="785.375" width="448.548" height="9" style="fill:#f59e0b"/>
    <text x="577.548" y="793.675" style="fill:#fb7185;font-size:11px">1.5M (+37%)</text>
    <rect x="124" y="798.875" width="386.284" height="9" style="fill:#a3e635"/>
    <text x="515.284" y="807.175" style="fill:#fb7185;font-size:11px">1.3M (+18%)</text>
    <rect x="124" y="812.375" width="321.939" height="9" style="fill:#f472b6"/>
    <text x="450.939" y="820.675" style="fill:#f472b6;font-size:11px">1.1M (-2%)</text>
   </g>
   <text x="570.000" y="28" style="fill:#f8fafc;font-size:20px;font-weight:600;text-anchor:middle">Dedicated prompt median token use, Codex GPT-5.4 mini</text>
   <text x="570.000" y="874" style="fill:#cbd5e1;font-size:13px;text-anchor:middle">Tokens</text>
   <g id="legend_1">
   <g>
    <rect x="124" y="49" width="14" height="9" style="fill:#94a3b8"/>
    <text x="144" y="58" style="fill:#cbd5e1;font-size:12px">baseline</text>
   </g>
   <g>
    <rect x="219.76" y="49" width="14" height="9" style="fill:#22d3ee"/>
    <text x="239.76" y="58" style="fill:#cbd5e1;font-size:12px">@ttsc/graph</text>
   </g>
   <g>
    <rect x="335.68" y="49" width="14" height="9" style="fill:#f59e0b"/>
    <text x="355.68" y="58" style="fill:#cbd5e1;font-size:12px">codegraph</text>
   </g>
   <g>
    <rect x="438.16" y="49" width="14" height="9" style="fill:#a3e635"/>
    <text x="458.16" y="58" style="fill:#cbd5e1;font-size:12px">codebase-memory</text>
   </g>
   <g>
    <rect x="580.96" y="49" width="14" height="9" style="fill:#f472b6"/>
    <text x="600.96" y="58" style="fill:#cbd5e1;font-size:12px">serena</text>
   </g>
  </g>
   <text x="124" y="80" style="fill:#94a3b8;font-size:12px">Lower is better. Percentage is versus the no-MCP baseline.</text>
  </g>
 </g>
</svg>
