<svg xmlns="http://www.w3.org/2000/svg" width="620" height="360" viewBox="0 0 620 360" role="img" aria-label="Nestia benchmark speedup chart">
  <title>Nestia benchmark speedup chart</title>
  <defs>
    <linearGradient id="nestia-bar" x1="0" x2="1">
      <stop offset="0%" stop-color="#2563eb" />
      <stop offset="100%" stop-color="#0f766e" />
    </linearGradient>
  </defs>
  <rect x="1" y="1" width="618" height="358" rx="8" fill="#fff" stroke="#cbd5e1" />
  <text x="28" y="38" fill="#0f172a" font-family="Inter, Segoe UI, sans-serif" font-size="25" font-weight="900">Nestia speedup</text>
  <text x="28" y="61" fill="#64748b" font-family="Inter, Segoe UI, sans-serif" font-size="14">Same log scale as typia. Baseline target = 1x.</text>
  <text x="28" y="88" fill="#2563eb" font-family="Inter, Segoe UI, sans-serif" font-size="18" font-weight="900">Server path</text>
  <text x="42" y="116" fill="#334155" font-family="Inter, Segoe UI, sans-serif" font-size="15" font-weight="800">NestJS base</text>
  <rect x="232" y="102" width="252" height="16" rx="8" fill="#e2e8f0" />
  <rect x="232" y="102" width="22" height="16" rx="8" fill="#94a3b8" />
  <text x="570" y="116" text-anchor="end" fill="#0f172a" font-family="Inter, Segoe UI, sans-serif" font-size="19" font-weight="900">1x</text>
  <text x="42" y="145" fill="#334155" font-family="Inter, Segoe UI, sans-serif" font-size="15" font-weight="800">nestia</text>
  <rect x="232" y="131" width="252" height="16" rx="8" fill="#e2e8f0" />
  <rect x="232" y="131" width="59" height="16" rx="8" fill="url(#nestia-bar)" />
  <text x="570" y="145" text-anchor="end" fill="#0f172a" font-family="Inter, Segoe UI, sans-serif" font-size="19" font-weight="900">10x+</text>
  <text x="28" y="181" fill="#2563eb" font-family="Inter, Segoe UI, sans-serif" font-size="18" font-weight="900">Validation</text>
  <text x="42" y="209" fill="#334155" font-family="Inter, Segoe UI, sans-serif" font-size="15" font-weight="800">class-validator</text>
  <rect x="232" y="195" width="252" height="16" rx="8" fill="#e2e8f0" />
  <rect x="232" y="195" width="22" height="16" rx="8" fill="#94a3b8" />
  <text x="570" y="209" text-anchor="end" fill="#0f172a" font-family="Inter, Segoe UI, sans-serif" font-size="19" font-weight="900">1x</text>
  <text x="42" y="238" fill="#334155" font-family="Inter, Segoe UI, sans-serif" font-size="15" font-weight="800">typia core</text>
  <rect x="232" y="224" width="252" height="16" rx="8" fill="#e2e8f0" />
  <rect x="232" y="224" width="252" height="16" rx="8" fill="url(#nestia-bar)" />
  <text x="570" y="238" text-anchor="end" fill="#0f172a" font-family="Inter, Segoe UI, sans-serif" font-size="19" font-weight="900">20,000x</text>
  <text x="28" y="274" fill="#2563eb" font-family="Inter, Segoe UI, sans-serif" font-size="18" font-weight="900">Serialization</text>
  <text x="42" y="302" fill="#334155" font-family="Inter, Segoe UI, sans-serif" font-size="15" font-weight="800">class-transformer</text>
  <rect x="232" y="288" width="252" height="16" rx="8" fill="#e2e8f0" />
  <rect x="232" y="288" width="22" height="16" rx="8" fill="#94a3b8" />
  <text x="570" y="302" text-anchor="end" fill="#0f172a" font-family="Inter, Segoe UI, sans-serif" font-size="19" font-weight="900">1x</text>
  <text x="42" y="331" fill="#334155" font-family="Inter, Segoe UI, sans-serif" font-size="15" font-weight="800">typia core</text>
  <rect x="232" y="317" width="252" height="16" rx="8" fill="#e2e8f0" />
  <rect x="232" y="317" width="135" height="16" rx="8" fill="url(#nestia-bar)" />
  <text x="570" y="331" text-anchor="end" fill="#0f172a" font-family="Inter, Segoe UI, sans-serif" font-size="19" font-weight="900">200x</text>
</svg>
