<svg xmlns="http://www.w3.org/2000/svg" width="1200" height="620" viewBox="0 0 1200 620" font-family="'Segoe UI', system-ui, -apple-system, Helvetica, Arial, sans-serif">
  <defs>
    <linearGradient id="bg" x1="0" y1="0" x2="1" y2="1">
      <stop offset="0" stop-color="#0d1117"/>
      <stop offset="1" stop-color="#1b2330"/>
    </linearGradient>
    <linearGradient id="fade" x1="0" y1="0" x2="0" y2="1">
      <stop offset="0" stop-color="#0b0f16" stop-opacity="0"/>
      <stop offset="1" stop-color="#0b0f16" stop-opacity="1"/>
    </linearGradient>
    <clipPath id="clipCol1"><rect x="60" y="150" width="320" height="318" rx="12"/></clipPath>
  </defs>
  <rect width="1200" height="620" fill="url(#bg)"/>

  <!-- title -->
  <text x="60" y="56" font-size="30" font-weight="700" fill="#e6edf3">What each tool hands back</text>
  <text x="60" y="86" font-size="17" font-weight="500" fill="#8b949e">Response to a broad &#8220;how does this work?&#8221; question &#8212; box size = token cost</text>

  <!-- ===================== Column 1: codegraph ===================== -->
  <g>
    <rect x="60" y="115" width="320" height="26" rx="13" fill="#3178c6" opacity="0.18"/>
    <circle cx="80" cy="128" r="5" fill="#3178c6"/>
    <text x="94" y="133" font-size="16" font-weight="700" fill="#cfe0f5">codegraph</text>
    <text x="237" y="133" font-size="13" font-weight="600" fill="#7d93b0">source bodies</text>

    <!-- code viewport box, content overflows -->
    <rect x="60" y="150" width="320" height="318" rx="12" fill="#0b0f16" stroke="#2a3340" stroke-width="1.5"/>
    <g clip-path="url(#clipCol1)">
      <g>
        <!-- many code-line bars, indented like source, spilling -->
        <g fill="#3178c6">
          <rect x="78" y="164" width="120" height="8" rx="4" opacity="0.9"/>
          <rect x="98" y="182" width="180" height="8" rx="4" opacity="0.55"/>
          <rect x="98" y="200" width="140" height="8" rx="4" opacity="0.7"/>
          <rect x="118" y="218" width="160" height="8" rx="4" opacity="0.5"/>
          <rect x="118" y="236" width="96" height="8" rx="4" opacity="0.8"/>
          <rect x="98" y="254" width="200" height="8" rx="4" opacity="0.5"/>
          <rect x="78" y="272" width="150" height="8" rx="4" opacity="0.85"/>
          <rect x="98" y="290" width="170" height="8" rx="4" opacity="0.55"/>
          <rect x="118" y="308" width="130" height="8" rx="4" opacity="0.7"/>
          <rect x="118" y="326" width="190" height="8" rx="4" opacity="0.5"/>
          <rect x="98" y="344" width="110" height="8" rx="4" opacity="0.8"/>
          <rect x="78" y="362" width="165" height="8" rx="4" opacity="0.6"/>
          <rect x="98" y="380" width="205" height="8" rx="4" opacity="0.5"/>
          <rect x="118" y="398" width="140" height="8" rx="4" opacity="0.7"/>
          <rect x="98" y="416" width="175" height="8" rx="4" opacity="0.55"/>
          <rect x="78" y="434" width="125" height="8" rx="4" opacity="0.8"/>
          <rect x="98" y="452" width="195" height="8" rx="4" opacity="0.5"/>
        </g>
      </g>
    </g>
    <!-- fade to imply it keeps going -->
    <rect x="61" y="408" width="318" height="59" rx="12" fill="url(#fade)"/>
    <text x="220" y="455" font-size="13" font-weight="700" fill="#9fb4cc" text-anchor="middle">&#8230; and it keeps going</text>

    <!-- caption -->
    <text x="220" y="512" font-size="17" font-weight="700" fill="#e6edf3" text-anchor="middle">verbatim source</text>
    <text x="220" y="540" font-size="15" font-weight="500" fill="#8b949e" text-anchor="middle">tokens explode on broad questions</text>
  </g>

  <!-- ===================== Column 2: codebase-memory ===================== -->
  <g>
    <rect x="440" y="115" width="320" height="26" rx="13" fill="#3178c6" opacity="0.18"/>
    <circle cx="460" cy="128" r="5" fill="#3178c6"/>
    <text x="474" y="133" font-size="16" font-weight="700" fill="#cfe0f5">codebase-memory</text>
    <text x="700" y="133" font-size="13" font-weight="600" fill="#7d93b0">pointers</text>

    <!-- pointer rows: name . path . line -->
    <g>
      <rect x="440" y="160" width="320" height="34" rx="8" fill="#0b0f16" stroke="#2a3340" stroke-width="1.2"/>
      <text x="456" y="182" font-size="13" font-weight="600" fill="#cfe0f5">parseConfig <tspan fill="#566273">·</tspan> <tspan fill="#8b949e">src/config.ts</tspan> <tspan fill="#566273">·</tspan> <tspan fill="#3fb950">42</tspan></text>
      <rect x="440" y="200" width="320" height="34" rx="8" fill="#0b0f16" stroke="#2a3340" stroke-width="1.2"/>
      <text x="456" y="222" font-size="13" font-weight="600" fill="#cfe0f5">loadPlugins <tspan fill="#566273">·</tspan> <tspan fill="#8b949e">src/plugin.ts</tspan> <tspan fill="#566273">·</tspan> <tspan fill="#3fb950">88</tspan></text>
      <rect x="440" y="240" width="320" height="34" rx="8" fill="#0b0f16" stroke="#2a3340" stroke-width="1.2"/>
      <text x="456" y="262" font-size="13" font-weight="600" fill="#cfe0f5">emitOutput <tspan fill="#566273">·</tspan> <tspan fill="#8b949e">src/emit.ts</tspan> <tspan fill="#566273">·</tspan> <tspan fill="#3fb950">17</tspan></text>
    </g>

    <!-- arrow down -->
    <g stroke="#566273" stroke-width="2" fill="none">
      <line x1="600" y1="282" x2="600" y2="312"/>
    </g>
    <path d="M600 320 l-7 -11 l14 0 z" fill="#566273"/>

    <!-- agent opens files box -->
    <rect x="470" y="326" width="260" height="58" rx="12" fill="#171f2b" stroke="#3a4656" stroke-width="1.5"/>
    <text x="600" y="352" font-size="17" font-weight="700" fill="#e6edf3" text-anchor="middle">&#128196; agent opens the files</text>
    <text x="600" y="372" font-size="13" font-weight="500" fill="#8b949e" text-anchor="middle">N more read calls</text>

    <!-- caption -->
    <text x="600" y="512" font-size="17" font-weight="700" fill="#e6edf3" text-anchor="middle">you still read the files</text>
    <text x="600" y="540" font-size="15" font-weight="500" fill="#8b949e" text-anchor="middle">back to crawling</text>
  </g>

  <!-- ===================== Column 3: @ttsc/graph ===================== -->
  <g>
    <rect x="820" y="115" width="320" height="26" rx="13" fill="#3fb950" opacity="0.18"/>
    <circle cx="840" cy="128" r="5" fill="#3fb950"/>
    <text x="854" y="133" font-size="16" font-weight="700" fill="#d3f0d8">@ttsc/graph</text>
    <text x="1058" y="133" font-size="13" font-weight="600" fill="#6fae7c">compact index</text>

    <!-- tidy compact card -->
    <rect x="855" y="170" width="250" height="150" rx="12" fill="#0e1a13" stroke="#2c5236" stroke-width="1.5"/>
    <text x="875" y="200" font-size="13" font-weight="700" fill="#8b949e">names</text>
    <rect x="945" y="190" width="142" height="9" rx="4" fill="#3fb950" opacity="0.85"/>
    <text x="875" y="230" font-size="13" font-weight="700" fill="#8b949e">edges</text>
    <rect x="945" y="220" width="120" height="9" rx="4" fill="#3fb950" opacity="0.65"/>
    <rect x="945" y="234" width="142" height="9" rx="4" fill="#3fb950" opacity="0.65"/>
    <text x="875" y="266" font-size="13" font-weight="700" fill="#8b949e">spans</text>
    <text x="945" y="266" font-size="12.5" font-weight="600" fill="#7ee08c">emit.ts:17</text>
    <text x="875" y="298" font-size="13" font-weight="600" fill="#6fae7c">each span = a file:line anchor</text>

    <!-- green check -->
    <circle cx="980" cy="362" r="22" fill="#3fb950"/>
    <path d="M969 362 l8 8 l15 -16" stroke="#0d1117" stroke-width="4.5" fill="none" stroke-linecap="round" stroke-linejoin="round"/>

    <!-- caption -->
    <text x="980" y="512" font-size="17" font-weight="700" fill="#e6edf3" text-anchor="middle">answer</text>
    <text x="980" y="540" font-size="15" font-weight="500" fill="#3fb950" text-anchor="middle">grounded &#183; cites exact spans</text>
  </g>
</svg>
