<svg xmlns="http://www.w3.org/2000/svg" width="960" height="520" viewBox="0 0 960 520"><rect width="960" height="520" fill="#0c0e13"/><rect x="0.5" y="0.5" width="959" height="519" fill="none" stroke="#222834"/><text x="32" y="42" font-family="ui-monospace,Consolas,monospace" font-size="19" font-weight="700" fill="#e5e7eb">@ttsc/graph token savings by model — common (shared onboarding) prompts</text><text x="32" y="64" font-family="ui-monospace,Consolas,monospace" font-size="12" fill="#8b93a7">avg savings vs each model's own baseline over excalidraw · vue · rxjs · typeorm — existing models N=5 medians, Fable 5 N=1</text><rect x="32" y="78" width="10" height="10" rx="2" fill="#7dd3fc"/><text x="47" y="87" font-family="ui-monospace,Consolas,monospace" font-size="11" fill="#c7cdda">Codex / GPT-5.4 mini</text><rect x="205" y="78" width="10" height="10" rx="2" fill="#38bdf8"/><text x="220" y="87" font-family="ui-monospace,Consolas,monospace" font-size="11" fill="#c7cdda">Codex / GPT-5.5</text><rect x="344" y="78" width="10" height="10" rx="2" fill="#c4b5fd"/><text x="359" y="87" font-family="ui-monospace,Consolas,monospace" font-size="11" fill="#c7cdda">Sonnet 4.6</text><rect x="449" y="78" width="10" height="10" rx="2" fill="#8b5cf6"/><text x="464" y="87" font-family="ui-monospace,Consolas,monospace" font-size="11" fill="#c7cdda">Opus 4.8</text><rect x="540.4" y="78" width="10" height="10" rx="2" fill="#34d399"/><text x="555.4" y="87" font-family="ui-monospace,Consolas,monospace" font-size="11" fill="#c7cdda">Fable 5 (N=1)</text><line x1="80" y1="410" x2="920" y2="410" stroke="#1a1f2b"/><text x="72" y="414" font-family="ui-monospace,Consolas,monospace" font-size="10.5" fill="#6b7280" text-anchor="end">-60%</text><line x1="80" y1="372.5" x2="920" y2="372.5" stroke="#1a1f2b"/><text x="72" y="376.5" font-family="ui-monospace,Consolas,monospace" font-size="10.5" fill="#6b7280" text-anchor="end">-40%</text><line x1="80" y1="335" x2="920" y2="335" stroke="#1a1f2b"/><text x="72" y="339" font-family="ui-monospace,Consolas,monospace" font-size="10.5" fill="#6b7280" text-anchor="end">-20%</text><line x1="80" y1="297.5" x2="920" y2="297.5" stroke="#3a4152"/><text x="72" y="301.5" font-family="ui-monospace,Consolas,monospace" font-size="10.5" fill="#6b7280" text-anchor="end">0%</text><line x1="80" y1="260" x2="920" y2="260" stroke="#1a1f2b"/><text x="72" y="264" font-family="ui-monospace,Consolas,monospace" font-size="10.5" fill="#6b7280" text-anchor="end">20%</text><line x1="80" y1="222.5" x2="920" y2="222.5" stroke="#1a1f2b"/><text x="72" y="226.5" font-family="ui-monospace,Consolas,monospace" font-size="10.5" fill="#6b7280" text-anchor="end">40%</text><line x1="80" y1="185" x2="920" y2="185" stroke="#1a1f2b"/><text x="72" y="189" font-family="ui-monospace,Consolas,monospace" font-size="10.5" fill="#6b7280" text-anchor="end">60%</text><line x1="80" y1="147.5" x2="920" y2="147.5" stroke="#1a1f2b"/><text x="72" y="151.5" font-family="ui-monospace,Consolas,monospace" font-size="10.5" fill="#6b7280" text-anchor="end">80%</text><line x1="80" y1="110" x2="920" y2="110" stroke="#1a1f2b"/><text x="72" y="114" font-family="ui-monospace,Consolas,monospace" font-size="10.5" fill="#6b7280" text-anchor="end">100%</text><rect x="98" y="116.99247620530917" width="30" height="180.50752379469083" rx="2" fill="#7dd3fc"/><text x="113" y="111.99247620530917" font-family="ui-monospace,Consolas,monospace" font-size="10" fill="#c7cdda" text-anchor="middle">96</text><rect x="134" y="121.92955393372381" width="30" height="175.5704460662762" rx="2" fill="#38bdf8"/><text x="149" y="116.92955393372381" font-family="ui-monospace,Consolas,monospace" font-size="10" fill="#c7cdda" text-anchor="middle">94</text><rect x="170" y="137.42189094417046" width="30" height="160.07810905582954" rx="2" fill="#c4b5fd"/><text x="185" y="132.42189094417046" font-family="ui-monospace,Consolas,monospace" font-size="10" fill="#c7cdda" text-anchor="middle">85</text><rect x="206" y="140.39654513171098" width="30" height="157.10345486828902" rx="2" fill="#8b5cf6"/><text x="221" y="135.39654513171098" font-family="ui-monospace,Consolas,monospace" font-size="10" fill="#c7cdda" text-anchor="middle">84</text><rect x="242" y="166.63851537981205" width="30" height="130.86148462018795" rx="2" fill="#34d399"/><text x="257" y="161.63851537981205" font-family="ui-monospace,Consolas,monospace" font-size="10" fill="#c7cdda" text-anchor="middle">70</text><text x="185" y="436" font-family="ui-monospace,Consolas,monospace" font-size="13" font-weight="700" fill="#34d399" text-anchor="middle">ttsc-graph</text><rect x="308" y="230.0398042746601" width="30" height="67.4601957253399" rx="2" fill="#7dd3fc"/><text x="323" y="225.0398042746601" font-family="ui-monospace,Consolas,monospace" font-size="10" fill="#c7cdda" text-anchor="middle">36</text><rect x="344" y="297.5" width="30" height="18.144801355451136" rx="2" fill="#38bdf8"/><text x="359" y="328.64480135545114" font-family="ui-monospace,Consolas,monospace" font-size="10" fill="#c7cdda" text-anchor="middle">−10</text><rect x="380" y="243.72476258864071" width="30" height="53.775237411359285" rx="2" fill="#c4b5fd"/><text x="395" y="238.72476258864071" font-family="ui-monospace,Consolas,monospace" font-size="10" fill="#c7cdda" text-anchor="middle">29</text><rect x="416" y="223.70754018091316" width="30" height="73.79245981908684" rx="2" fill="#8b5cf6"/><text x="431" y="218.70754018091316" font-family="ui-monospace,Consolas,monospace" font-size="10" fill="#c7cdda" text-anchor="middle">39</text><rect x="452" y="267.89017638139944" width="30" height="29.609823618600558" rx="2" fill="#34d399"/><text x="467" y="262.89017638139944" font-family="ui-monospace,Consolas,monospace" font-size="10" fill="#c7cdda" text-anchor="middle">16</text><text x="395" y="436" font-family="ui-monospace,Consolas,monospace" font-size="13" font-weight="700" fill="#60a5fa" text-anchor="middle">codegraph</text><rect x="518" y="280.25677903716706" width="30" height="17.243220962832936" rx="2" fill="#7dd3fc"/><text x="533" y="275.25677903716706" font-family="ui-monospace,Consolas,monospace" font-size="10" fill="#c7cdda" text-anchor="middle">9</text><rect x="554" y="297.5" width="30" height="27.574529230824623" rx="2" fill="#38bdf8"/><text x="569" y="338.0745292308246" font-family="ui-monospace,Consolas,monospace" font-size="10" fill="#c7cdda" text-anchor="middle">−15</text><rect x="590" y="297.5" width="30" height="24.472882565269174" rx="2" fill="#c4b5fd"/><text x="605" y="334.9728825652692" font-family="ui-monospace,Consolas,monospace" font-size="10" fill="#c7cdda" text-anchor="middle">−13</text><rect x="626" y="297.5" width="30" height="10.518241311386532" rx="2" fill="#8b5cf6"/><text x="641" y="321.01824131138653" font-family="ui-monospace,Consolas,monospace" font-size="10" fill="#c7cdda" text-anchor="middle">−6</text><rect x="662" y="292.0382501085513" width="30" height="5.461749891448676" rx="2" fill="#34d399"/><text x="677" y="287.0382501085513" font-family="ui-monospace,Consolas,monospace" font-size="10" fill="#c7cdda" text-anchor="middle">3</text><text x="605" y="436" font-family="ui-monospace,Consolas,monospace" font-size="13" font-weight="700" fill="#f59e0b" text-anchor="middle">codebase-memory</text><rect x="728" y="291.05800894065766" width="30" height="6.441991059342342" rx="2" fill="#7dd3fc"/><text x="743" y="286.05800894065766" font-family="ui-monospace,Consolas,monospace" font-size="10" fill="#c7cdda" text-anchor="middle">3</text><rect x="764" y="297.5" width="30" height="58.14620624402795" rx="2" fill="#38bdf8"/><text x="779" y="368.64620624402795" font-family="ui-monospace,Consolas,monospace" font-size="10" fill="#c7cdda" text-anchor="middle">−31</text><rect x="800" y="297.5" width="30" height="92.80723073295172" rx="2" fill="#c4b5fd"/><text x="815" y="403.3072307329517" font-family="ui-monospace,Consolas,monospace" font-size="10" fill="#c7cdda" text-anchor="middle">−49</text><rect x="836" y="297.5" width="30" height="10.493228408720881" rx="2" fill="#8b5cf6"/><text x="851" y="320.9932284087209" font-family="ui-monospace,Consolas,monospace" font-size="10" fill="#c7cdda" text-anchor="middle">−6</text><rect x="872" y="297.5" width="30" height="1" rx="2" fill="#34d399"/><text x="887" y="311.0400573853902" font-family="ui-monospace,Consolas,monospace" font-size="10" fill="#c7cdda" text-anchor="middle">−0</text><text x="815" y="436" font-family="ui-monospace,Consolas,monospace" font-size="13" font-weight="700" fill="#f472b6" text-anchor="middle">serena</text><text x="32" y="502" font-family="ui-monospace,Consolas,monospace" font-size="11" fill="#6b7280">savings% = 1 − (graph-arm tokens / same model's baseline tokens) · higher is better · negative = tool cost exceeded baseline</text></svg>