<svg xmlns="http://www.w3.org/2000/svg" width="960" height="520" viewBox="0 0 960 520"><rect width="960" height="520" fill="#0c0e13"/><rect x="0.5" y="0.5" width="959" height="519" fill="none" stroke="#222834"/><text x="32" y="42" font-family="ui-monospace,Consolas,monospace" font-size="19" font-weight="700" fill="#e5e7eb">@ttsc/graph token savings by model — dedicated prompts</text><text x="32" y="64" font-family="ui-monospace,Consolas,monospace" font-size="12" fill="#8b93a7">avg savings vs each model's own baseline over excalidraw · vue · rxjs · typeorm — existing models N=5 medians, Fable 5 N=1</text><rect x="32" y="78" width="10" height="10" rx="2" fill="#7dd3fc"/><text x="47" y="87" font-family="ui-monospace,Consolas,monospace" font-size="11" fill="#c7cdda">Codex / GPT-5.4 mini</text><rect x="205" y="78" width="10" height="10" rx="2" fill="#38bdf8"/><text x="220" y="87" font-family="ui-monospace,Consolas,monospace" font-size="11" fill="#c7cdda">Codex / GPT-5.5</text><rect x="344" y="78" width="10" height="10" rx="2" fill="#c4b5fd"/><text x="359" y="87" font-family="ui-monospace,Consolas,monospace" font-size="11" fill="#c7cdda">Sonnet 4.6</text><rect x="449" y="78" width="10" height="10" rx="2" fill="#8b5cf6"/><text x="464" y="87" font-family="ui-monospace,Consolas,monospace" font-size="11" fill="#c7cdda">Opus 4.8</text><rect x="540.4" y="78" width="10" height="10" rx="2" fill="#34d399"/><text x="555.4" y="87" font-family="ui-monospace,Consolas,monospace" font-size="11" fill="#c7cdda">Fable 5 (N=1)</text><line x1="80" y1="410" x2="920" y2="410" stroke="#1a1f2b"/><text x="72" y="414" font-family="ui-monospace,Consolas,monospace" font-size="10.5" fill="#6b7280" text-anchor="end">-40%</text><line x1="80" y1="367.14285714285717" x2="920" y2="367.14285714285717" stroke="#1a1f2b"/><text x="72" y="371.14285714285717" font-family="ui-monospace,Consolas,monospace" font-size="10.5" fill="#6b7280" text-anchor="end">-20%</text><line x1="80" y1="324.2857142857143" x2="920" y2="324.2857142857143" stroke="#3a4152"/><text x="72" y="328.2857142857143" font-family="ui-monospace,Consolas,monospace" font-size="10.5" fill="#6b7280" text-anchor="end">0%</text><line x1="80" y1="281.42857142857144" x2="920" y2="281.42857142857144" stroke="#1a1f2b"/><text x="72" y="285.42857142857144" font-family="ui-monospace,Consolas,monospace" font-size="10.5" fill="#6b7280" text-anchor="end">20%</text><line x1="80" y1="238.57142857142858" x2="920" y2="238.57142857142858" stroke="#1a1f2b"/><text x="72" y="242.57142857142858" font-family="ui-monospace,Consolas,monospace" font-size="10.5" fill="#6b7280" text-anchor="end">40%</text><line x1="80" y1="195.71428571428572" x2="920" y2="195.71428571428572" stroke="#1a1f2b"/><text x="72" y="199.71428571428572" font-family="ui-monospace,Consolas,monospace" font-size="10.5" fill="#6b7280" text-anchor="end">60%</text><line x1="80" y1="152.8571428571429" x2="920" y2="152.8571428571429" stroke="#1a1f2b"/><text x="72" y="156.8571428571429" font-family="ui-monospace,Consolas,monospace" font-size="10.5" fill="#6b7280" text-anchor="end">80%</text><line x1="80" y1="110" x2="920" y2="110" stroke="#1a1f2b"/><text x="72" y="114" font-family="ui-monospace,Consolas,monospace" font-size="10.5" fill="#6b7280" text-anchor="end">100%</text><rect x="98" y="121.28690854962542" width="30" height="202.99880573608885" rx="2" fill="#7dd3fc"/><text x="113" y="116.28690854962542" font-family="ui-monospace,Consolas,monospace" font-size="10" fill="#c7cdda" text-anchor="middle">95</text><rect x="134" y="126.79644181742577" width="30" height="197.4892724682885" rx="2" fill="#38bdf8"/><text x="149" y="121.79644181742577" font-family="ui-monospace,Consolas,monospace" font-size="10" fill="#c7cdda" text-anchor="middle">92</text><rect x="170" y="166.0449445144778" width="30" height="158.24076977123647" rx="2" fill="#c4b5fd"/><text x="185" y="161.0449445144778" font-family="ui-monospace,Consolas,monospace" font-size="10" fill="#c7cdda" text-anchor="middle">74</text><rect x="206" y="162.2295928583209" width="30" height="162.05612142739338" rx="2" fill="#8b5cf6"/><text x="221" y="157.2295928583209" font-family="ui-monospace,Consolas,monospace" font-size="10" fill="#c7cdda" text-anchor="middle">76</text><rect x="242" y="182.44994606577453" width="30" height="141.83576821993975" rx="2" fill="#34d399"/><text x="257" y="177.44994606577453" font-family="ui-monospace,Consolas,monospace" font-size="10" fill="#c7cdda" text-anchor="middle">66</text><text x="185" y="436" font-family="ui-monospace,Consolas,monospace" font-size="13" font-weight="700" fill="#34d399" text-anchor="middle">ttsc-graph</text><rect x="308" y="212.06615084969053" width="30" height="112.21956343602375" rx="2" fill="#7dd3fc"/><text x="323" y="207.06615084969053" font-family="ui-monospace,Consolas,monospace" font-size="10" fill="#c7cdda" text-anchor="middle">52</text><rect x="344" y="300.4669276422127" width="30" height="23.818786643501596" rx="2" fill="#38bdf8"/><text x="359" y="295.4669276422127" font-family="ui-monospace,Consolas,monospace" font-size="10" fill="#c7cdda" text-anchor="middle">11</text><rect x="380" y="157.94377821156976" width="30" height="166.3419360741445" rx="2" fill="#c4b5fd"/><text x="395" y="152.94377821156976" font-family="ui-monospace,Consolas,monospace" font-size="10" fill="#c7cdda" text-anchor="middle">78</text><rect x="416" y="177.9245510877726" width="30" height="146.36116319794166" rx="2" fill="#8b5cf6"/><text x="431" y="172.9245510877726" font-family="ui-monospace,Consolas,monospace" font-size="10" fill="#c7cdda" text-anchor="middle">68</text><rect x="452" y="296.45773413613676" width="30" height="27.827980149577513" rx="2" fill="#34d399"/><text x="467" y="291.45773413613676" font-family="ui-monospace,Consolas,monospace" font-size="10" fill="#c7cdda" text-anchor="middle">13</text><text x="395" y="436" font-family="ui-monospace,Consolas,monospace" font-size="13" font-weight="700" fill="#60a5fa" text-anchor="middle">codegraph</text><rect x="518" y="315.82487294288035" width="30" height="8.46084134283393" rx="2" fill="#7dd3fc"/><text x="533" y="310.82487294288035" font-family="ui-monospace,Consolas,monospace" font-size="10" fill="#c7cdda" text-anchor="middle">4</text><rect x="554" y="324.2857142857143" width="30" height="2.899951934592707" rx="2" fill="#38bdf8"/><text x="569" y="340.185666220307" font-family="ui-monospace,Consolas,monospace" font-size="10" fill="#c7cdda" text-anchor="middle">−1</text><rect x="590" y="313.63480794707766" width="30" height="10.650906338636617" rx="2" fill="#c4b5fd"/><text x="605" y="308.63480794707766" font-family="ui-monospace,Consolas,monospace" font-size="10" fill="#c7cdda" text-anchor="middle">5</text><rect x="626" y="302.04192762510655" width="30" height="22.243786660607725" rx="2" fill="#8b5cf6"/><text x="641" y="297.04192762510655" font-family="ui-monospace,Consolas,monospace" font-size="10" fill="#c7cdda" text-anchor="middle">10</text><rect x="662" y="324.2857142857143" width="30" height="61.0871602695002" rx="2" fill="#34d399"/><text x="677" y="398.3728745552145" font-family="ui-monospace,Consolas,monospace" font-size="10" fill="#c7cdda" text-anchor="middle">−29</text><text x="605" y="436" font-family="ui-monospace,Consolas,monospace" font-size="13" font-weight="700" fill="#f59e0b" text-anchor="middle">codebase-memory</text><rect x="728" y="324.2857142857143" width="30" height="28.176635063510616" rx="2" fill="#7dd3fc"/><text x="743" y="365.4623493492249" font-family="ui-monospace,Consolas,monospace" font-size="10" fill="#c7cdda" text-anchor="middle">−13</text><rect x="764" y="324.2857142857143" width="30" height="33.9504408510694" rx="2" fill="#38bdf8"/><text x="779" y="371.2361551367837" font-family="ui-monospace,Consolas,monospace" font-size="10" fill="#c7cdda" text-anchor="middle">−16</text><rect x="800" y="312.21810628378967" width="30" height="12.067608001924611" rx="2" fill="#c4b5fd"/><text x="815" y="307.21810628378967" font-family="ui-monospace,Consolas,monospace" font-size="10" fill="#c7cdda" text-anchor="middle">6</text><rect x="836" y="320.8337160278659" width="30" height="3.451998257848402" rx="2" fill="#8b5cf6"/><text x="851" y="315.8337160278659" font-family="ui-monospace,Consolas,monospace" font-size="10" fill="#c7cdda" text-anchor="middle">2</text><rect x="872" y="324.2857142857143" width="30" height="60.76308376892115" rx="2" fill="#34d399"/><text x="887" y="398.0487980546354" font-family="ui-monospace,Consolas,monospace" font-size="10" fill="#c7cdda" text-anchor="middle">−28</text><text x="815" y="436" font-family="ui-monospace,Consolas,monospace" font-size="13" font-weight="700" fill="#f472b6" text-anchor="middle">serena</text><text x="32" y="502" font-family="ui-monospace,Consolas,monospace" font-size="11" fill="#6b7280">savings% = 1 − (graph-arm tokens / same model's baseline tokens) · higher is better · negative = tool cost exceeded baseline</text></svg>