<?xml version="1.0" encoding="utf-8" standalone="no"?>
<svg xmlns="http://www.w3.org/2000/svg" width="1040" height="900" viewBox="0 0 1040 900" version="1.1" role="img" aria-label="Dedicated prompt median token use, Codex GPT-5.6 sol">
 <defs>
  <style type="text/css">
   *{stroke-linejoin:round;stroke-linecap:butt}
   text{font-family:DejaVu Sans, Arial, sans-serif}
  </style>
 </defs>
 <g id="figure_1">
  <g id="patch_1">
   <path d="M 0 900 L 1040 900 L 1040 0 L 0 0 z" style="fill:#05070b"/>
  </g>
  <g id="axes_1">
   <path d="M 124 116 L 1016 116 L 1016 830 L 124 830 z" style="fill:#0b111a"/>
   <path d="M 124 830 L 1016 830" style="fill:none;stroke:#64748b;stroke-width:0.8"/>
   <path d="M 124 116 L 124 830" style="fill:none;stroke:#64748b;stroke-width:0.8"/>
   <g>
    <path d="M 124.000 116 L 124.000 830" style="fill:none;stroke:#1f2937;stroke-width:0.7"/>
    <text x="124.000" y="848" style="fill:#cbd5e1;font-size:11px;text-anchor:middle">0</text>
   </g>
   <g>
    <path d="M 347.000 116 L 347.000 830" style="fill:none;stroke:#1f2937;stroke-width:0.7"/>
    <text x="347.000" y="848" style="fill:#cbd5e1;font-size:11px;text-anchor:middle">1.3M</text>
   </g>
   <g>
    <path d="M 570.000 116 L 570.000 830" style="fill:none;stroke:#1f2937;stroke-width:0.7"/>
    <text x="570.000" y="848" style="fill:#cbd5e1;font-size:11px;text-anchor:middle">2.5M</text>
   </g>
   <g>
    <path d="M 793.000 116 L 793.000 830" style="fill:none;stroke:#1f2937;stroke-width:0.7"/>
    <text x="793.000" y="848" style="fill:#cbd5e1;font-size:11px;text-anchor:middle">3.8M</text>
   </g>
   <g>
    <path d="M 1016.000 116 L 1016.000 830" style="fill:none;stroke:#1f2937;stroke-width:0.7"/>
    <text x="1016.000" y="848" style="fill:#cbd5e1;font-size:11px;text-anchor:middle">5M</text>
   </g>
   <g>
    <path d="M 18 205.250 L 1016 205.250" style="fill:none;stroke:#1f2937;stroke-width:0.6"/>
    <text x="108" y="163.625" style="fill:#f8fafc;font-size:13px;font-weight:600;text-anchor:end">excalidraw</text>
    <rect x="124" y="133.625" width="404.426" height="9" style="fill:#94a3b8"/>
    <text x="533.426" y="141.925" style="fill:#cbd5e1;font-size:11px">2.3M</text>
    <rect x="124" y="147.125" width="24.711" height="9" style="fill:#22d3ee"/>
    <text x="153.711" y="155.425" style="fill:#22d3ee;font-size:11px;font-weight:700">139k (-94%)</text>
    <rect x="124" y="160.625" width="675.443" height="9" style="fill:#f59e0b"/>
    <text x="804.443" y="168.925" style="fill:#fb7185;font-size:11px">3.8M (+67%)</text>
    <rect x="124" y="174.125" width="390.935" height="9" style="fill:#a3e635"/>
    <text x="519.935" y="182.425" style="fill:#a3e635;font-size:11px">2.2M (-3%)</text>
    <rect x="124" y="187.625" width="679.687" height="9" style="fill:#f472b6"/>
    <text x="808.687" y="195.925" style="fill:#fb7185;font-size:11px">3.8M (+68%)</text>
   </g>
   <g>
    <path d="M 18 294.500 L 1016 294.500" style="fill:none;stroke:#1f2937;stroke-width:0.6"/>
    <text x="108" y="252.875" style="fill:#f8fafc;font-size:13px;font-weight:600;text-anchor:end">nestjs</text>
    <rect x="124" y="222.875" width="245.536" height="9" style="fill:#94a3b8"/>
    <text x="374.536" y="231.175" style="fill:#cbd5e1;font-size:11px">1.4M</text>
    <rect x="124" y="236.375" width="24.860" height="9" style="fill:#22d3ee"/>
    <text x="153.860" y="244.675" style="fill:#22d3ee;font-size:11px;font-weight:700">139k (-90%)</text>
    <rect x="124" y="249.875" width="55.966" height="9" style="fill:#f59e0b"/>
    <text x="184.966" y="258.175" style="fill:#f59e0b;font-size:11px">314k (-77%)</text>
    <rect x="124" y="263.375" width="129.765" height="9" style="fill:#a3e635"/>
    <text x="258.765" y="271.675" style="fill:#a3e635;font-size:11px">727k (-47%)</text>
    <rect x="124" y="276.875" width="106.451" height="9" style="fill:#f472b6"/>
    <text x="235.451" y="285.175" style="fill:#f472b6;font-size:11px">597k (-57%)</text>
   </g>
   <g>
    <path d="M 18 383.750 L 1016 383.750" style="fill:none;stroke:#1f2937;stroke-width:0.6"/>
    <text x="108" y="342.125" style="fill:#f8fafc;font-size:13px;font-weight:600;text-anchor:end">rxjs</text>
    <rect x="124" y="312.125" width="44.754" height="9" style="fill:#94a3b8"/>
    <text x="173.754" y="320.425" style="fill:#cbd5e1;font-size:11px">251k</text>
    <rect x="124" y="325.625" width="16.834" height="9" style="fill:#22d3ee"/>
    <text x="145.834" y="333.925" style="fill:#22d3ee;font-size:11px;font-weight:700">94k (-62%)</text>
    <rect x="124" y="339.125" width="46.180" height="9" style="fill:#f59e0b"/>
    <text x="175.180" y="347.425" style="fill:#fb7185;font-size:11px">259k (+3%)</text>
    <rect x="124" y="352.625" width="51.934" height="9" style="fill:#a3e635"/>
    <text x="180.934" y="360.925" style="fill:#fb7185;font-size:11px">291k (+16%)</text>
    <rect x="124" y="366.125" width="58.652" height="9" style="fill:#f472b6"/>
    <text x="187.652" y="374.425" style="fill:#fb7185;font-size:11px">329k (+31%)</text>
   </g>
   <g>
    <path d="M 18 473.000 L 1016 473.000" style="fill:none;stroke:#1f2937;stroke-width:0.6"/>
    <text x="108" y="431.375" style="fill:#f8fafc;font-size:13px;font-weight:600;text-anchor:end">shopping</text>
    <rect x="124" y="401.375" width="289.228" height="9" style="fill:#94a3b8"/>
    <text x="418.228" y="409.675" style="fill:#cbd5e1;font-size:11px">1.6M</text>
    <rect x="124" y="414.875" width="17.332" height="9" style="fill:#22d3ee"/>
    <text x="146.332" y="423.175" style="fill:#22d3ee;font-size:11px;font-weight:700">97k (-94%)</text>
    <rect x="124" y="428.375" width="133.433" height="9" style="fill:#f59e0b"/>
    <text x="262.433" y="436.675" style="fill:#f59e0b;font-size:11px">748k (-54%)</text>
    <rect x="124" y="455.375" width="141.758" height="9" style="fill:#f472b6"/>
    <text x="270.758" y="463.675" style="fill:#f472b6;font-size:11px">795k (-51%)</text>
   </g>
   <g>
    <path d="M 18 562.250 L 1016 562.250" style="fill:none;stroke:#1f2937;stroke-width:0.6"/>
    <text x="108" y="520.625" style="fill:#f8fafc;font-size:13px;font-weight:600;text-anchor:end">typeorm</text>
    <rect x="124" y="490.625" width="258.318" height="9" style="fill:#94a3b8"/>
    <text x="387.318" y="498.925" style="fill:#cbd5e1;font-size:11px">1.4M</text>
    <rect x="124" y="504.125" width="20.552" height="9" style="fill:#22d3ee"/>
    <text x="149.552" y="512.425" style="fill:#22d3ee;font-size:11px;font-weight:700">115k (-92%)</text>
    <rect x="124" y="517.625" width="84.740" height="9" style="fill:#f59e0b"/>
    <text x="213.740" y="525.925" style="fill:#f59e0b;font-size:11px">475k (-67%)</text>
    <rect x="124" y="531.125" width="195.785" height="9" style="fill:#a3e635"/>
    <text x="324.785" y="539.425" style="fill:#a3e635;font-size:11px">1.1M (-24%)</text>
    <rect x="124" y="544.625" width="59.742" height="9" style="fill:#f472b6"/>
    <text x="188.742" y="552.925" style="fill:#f472b6;font-size:11px">335k (-77%)</text>
   </g>
   <g>
    <path d="M 18 651.500 L 1016 651.500" style="fill:none;stroke:#1f2937;stroke-width:0.6"/>
    <text x="108" y="609.875" style="fill:#f8fafc;font-size:13px;font-weight:600;text-anchor:end">vscode</text>
    <rect x="124" y="579.875" width="234.605" height="9" style="fill:#94a3b8"/>
    <text x="363.605" y="588.175" style="fill:#cbd5e1;font-size:11px">1.3M</text>
    <rect x="124" y="593.375" width="35.085" height="9" style="fill:#22d3ee"/>
    <text x="164.085" y="601.675" style="fill:#22d3ee;font-size:11px;font-weight:700">197k (-85%)</text>
    <rect x="124" y="606.875" width="97.815" height="9" style="fill:#f59e0b"/>
    <text x="226.815" y="615.175" style="fill:#f59e0b;font-size:11px">548k (-58%)</text>
    <rect x="124" y="620.375" width="147.100" height="9" style="fill:#a3e635"/>
    <text x="276.100" y="628.675" style="fill:#a3e635;font-size:11px">825k (-37%)</text>
    <rect x="124" y="633.875" width="174.072" height="9" style="fill:#f472b6"/>
    <text x="303.072" y="642.175" style="fill:#f472b6;font-size:11px">976k (-26%)</text>
   </g>
   <g>
    <path d="M 18 740.750 L 1016 740.750" style="fill:none;stroke:#1f2937;stroke-width:0.6"/>
    <text x="108" y="699.125" style="fill:#f8fafc;font-size:13px;font-weight:600;text-anchor:end">vue</text>
    <rect x="124" y="669.125" width="206.803" height="9" style="fill:#94a3b8"/>
    <text x="335.803" y="677.425" style="fill:#cbd5e1;font-size:11px">1.2M</text>
    <rect x="124" y="682.625" width="17.056" height="9" style="fill:#22d3ee"/>
    <text x="146.056" y="690.925" style="fill:#22d3ee;font-size:11px;font-weight:700">96k (-92%)</text>
    <rect x="124" y="696.125" width="77.989" height="9" style="fill:#f59e0b"/>
    <text x="206.989" y="704.425" style="fill:#f59e0b;font-size:11px">437k (-62%)</text>
    <rect x="124" y="709.625" width="154.726" height="9" style="fill:#a3e635"/>
    <text x="283.726" y="717.925" style="fill:#a3e635;font-size:11px">867k (-25%)</text>
    <rect x="124" y="723.125" width="166.224" height="9" style="fill:#f472b6"/>
    <text x="295.224" y="731.425" style="fill:#f472b6;font-size:11px">932k (-20%)</text>
   </g>
   <g>
    <path d="M 18 830.000 L 1016 830.000" style="fill:none;stroke:#1f2937;stroke-width:0.6"/>
    <text x="108" y="788.375" style="fill:#f8fafc;font-size:13px;font-weight:600;text-anchor:end">zod</text>
    <rect x="124" y="758.375" width="173.349" height="9" style="fill:#94a3b8"/>
    <text x="302.349" y="766.675" style="fill:#cbd5e1;font-size:11px">972k</text>
    <rect x="124" y="771.875" width="17.092" height="9" style="fill:#22d3ee"/>
    <text x="146.092" y="780.175" style="fill:#22d3ee;font-size:11px;font-weight:700">96k (-90%)</text>
    <rect x="124" y="785.375" width="113.481" height="9" style="fill:#f59e0b"/>
    <text x="242.481" y="793.675" style="fill:#f59e0b;font-size:11px">636k (-35%)</text>
    <rect x="124" y="798.875" width="107.245" height="9" style="fill:#a3e635"/>
    <text x="236.245" y="807.175" style="fill:#a3e635;font-size:11px">601k (-38%)</text>
    <rect x="124" y="812.375" width="158.652" height="9" style="fill:#f472b6"/>
    <text x="287.652" y="820.675" style="fill:#f472b6;font-size:11px">889k (-8%)</text>
   </g>
   <text x="570.000" y="28" style="fill:#f8fafc;font-size:20px;font-weight:600;text-anchor:middle">Dedicated prompt median token use, Codex GPT-5.6 sol</text>
   <text x="570.000" y="874" style="fill:#cbd5e1;font-size:13px;text-anchor:middle">Tokens</text>
   <g id="legend_1">
   <g>
    <rect x="124" y="49" width="14" height="9" style="fill:#94a3b8"/>
    <text x="144" y="58" style="fill:#cbd5e1;font-size:12px">baseline</text>
   </g>
   <g>
    <rect x="219.76" y="49" width="14" height="9" style="fill:#22d3ee"/>
    <text x="239.76" y="58" style="fill:#cbd5e1;font-size:12px">@ttsc/graph</text>
   </g>
   <g>
    <rect x="335.68" y="49" width="14" height="9" style="fill:#f59e0b"/>
    <text x="355.68" y="58" style="fill:#cbd5e1;font-size:12px">codegraph</text>
   </g>
   <g>
    <rect x="438.16" y="49" width="14" height="9" style="fill:#a3e635"/>
    <text x="458.16" y="58" style="fill:#cbd5e1;font-size:12px">codebase-memory</text>
   </g>
   <g>
    <rect x="580.96" y="49" width="14" height="9" style="fill:#f472b6"/>
    <text x="600.96" y="58" style="fill:#cbd5e1;font-size:12px">serena</text>
   </g>
  </g>
   <text x="124" y="80" style="fill:#94a3b8;font-size:12px">Lower is better. Percentage is versus the no-MCP baseline.</text>
  </g>
 </g>
</svg>
