<?xml version="1.0" encoding="utf-8" standalone="no"?>
<svg xmlns="http://www.w3.org/2000/svg" width="1040" height="900" viewBox="0 0 1040 900" version="1.1" role="img" aria-label="Dedicated prompt median token use, Codex GPT-5.6 terra">
 <defs>
  <style type="text/css">
   *{stroke-linejoin:round;stroke-linecap:butt}
   text{font-family:DejaVu Sans, Arial, sans-serif}
  </style>
 </defs>
 <g id="figure_1">
  <g id="patch_1">
   <path d="M 0 900 L 1040 900 L 1040 0 L 0 0 z" style="fill:#05070b"/>
  </g>
  <g id="axes_1">
   <path d="M 124 116 L 1016 116 L 1016 830 L 124 830 z" style="fill:#0b111a"/>
   <path d="M 124 830 L 1016 830" style="fill:none;stroke:#64748b;stroke-width:0.8"/>
   <path d="M 124 116 L 124 830" style="fill:none;stroke:#64748b;stroke-width:0.8"/>
   <g>
    <path d="M 124.000 116 L 124.000 830" style="fill:none;stroke:#1f2937;stroke-width:0.7"/>
    <text x="124.000" y="848" style="fill:#cbd5e1;font-size:11px;text-anchor:middle">0</text>
   </g>
   <g>
    <path d="M 347.000 116 L 347.000 830" style="fill:none;stroke:#1f2937;stroke-width:0.7"/>
    <text x="347.000" y="848" style="fill:#cbd5e1;font-size:11px;text-anchor:middle">500k</text>
   </g>
   <g>
    <path d="M 570.000 116 L 570.000 830" style="fill:none;stroke:#1f2937;stroke-width:0.7"/>
    <text x="570.000" y="848" style="fill:#cbd5e1;font-size:11px;text-anchor:middle">1M</text>
   </g>
   <g>
    <path d="M 793.000 116 L 793.000 830" style="fill:none;stroke:#1f2937;stroke-width:0.7"/>
    <text x="793.000" y="848" style="fill:#cbd5e1;font-size:11px;text-anchor:middle">1.5M</text>
   </g>
   <g>
    <path d="M 1016.000 116 L 1016.000 830" style="fill:none;stroke:#1f2937;stroke-width:0.7"/>
    <text x="1016.000" y="848" style="fill:#cbd5e1;font-size:11px;text-anchor:middle">2M</text>
   </g>
   <g>
    <path d="M 18 205.250 L 1016 205.250" style="fill:none;stroke:#1f2937;stroke-width:0.6"/>
    <text x="108" y="163.625" style="fill:#f8fafc;font-size:13px;font-weight:600;text-anchor:end">excalidraw</text>
    <rect x="124" y="133.625" width="583.104" height="9" style="fill:#94a3b8"/>
    <text x="712.104" y="141.925" style="fill:#cbd5e1;font-size:11px">1.3M</text>
    <rect x="124" y="147.125" width="50.522" height="9" style="fill:#22d3ee"/>
    <text x="179.522" y="155.425" style="fill:#22d3ee;font-size:11px;font-weight:700">113k (-91%)</text>
    <rect x="124" y="160.625" width="565.493" height="9" style="fill:#f59e0b"/>
    <text x="694.493" y="168.925" style="fill:#f59e0b;font-size:11px">1.3M (-3%)</text>
    <rect x="124" y="174.125" width="542.010" height="9" style="fill:#a3e635"/>
    <text x="671.010" y="182.425" style="fill:#a3e635;font-size:11px">1.2M (-7%)</text>
    <rect x="124" y="187.625" width="426.654" height="9" style="fill:#f472b6"/>
    <text x="555.654" y="195.925" style="fill:#f472b6;font-size:11px">957k (-27%)</text>
   </g>
   <g>
    <path d="M 18 294.500 L 1016 294.500" style="fill:none;stroke:#1f2937;stroke-width:0.6"/>
    <text x="108" y="252.875" style="fill:#f8fafc;font-size:13px;font-weight:600;text-anchor:end">nestjs</text>
    <rect x="124" y="222.875" width="146.980" height="9" style="fill:#94a3b8"/>
    <text x="275.980" y="231.175" style="fill:#cbd5e1;font-size:11px">330k</text>
    <rect x="124" y="236.375" width="42.143" height="9" style="fill:#22d3ee"/>
    <text x="171.143" y="244.675" style="fill:#22d3ee;font-size:11px;font-weight:700">94k (-71%)</text>
    <rect x="124" y="249.875" width="115.933" height="9" style="fill:#f59e0b"/>
    <text x="244.933" y="258.175" style="fill:#f59e0b;font-size:11px">260k (-21%)</text>
    <rect x="124" y="263.375" width="320.366" height="9" style="fill:#a3e635"/>
    <text x="449.366" y="271.675" style="fill:#fb7185;font-size:11px">718k (+118%)</text>
    <rect x="124" y="276.875" width="233.841" height="9" style="fill:#f472b6"/>
    <text x="362.841" y="285.175" style="fill:#fb7185;font-size:11px">524k (+59%)</text>
   </g>
   <g>
    <path d="M 18 383.750 L 1016 383.750" style="fill:none;stroke:#1f2937;stroke-width:0.6"/>
    <text x="108" y="342.125" style="fill:#f8fafc;font-size:13px;font-weight:600;text-anchor:end">rxjs</text>
    <rect x="124" y="312.125" width="113.361" height="9" style="fill:#94a3b8"/>
    <text x="242.361" y="320.425" style="fill:#cbd5e1;font-size:11px">254k</text>
    <rect x="124" y="325.625" width="68.663" height="9" style="fill:#22d3ee"/>
    <text x="197.663" y="333.925" style="fill:#22d3ee;font-size:11px;font-weight:700">154k (-39%)</text>
    <rect x="124" y="339.125" width="80.278" height="9" style="fill:#f59e0b"/>
    <text x="209.278" y="347.425" style="fill:#f59e0b;font-size:11px">180k (-29%)</text>
    <rect x="124" y="352.625" width="119.319" height="9" style="fill:#a3e635"/>
    <text x="248.319" y="360.925" style="fill:#fb7185;font-size:11px">268k (+5%)</text>
    <rect x="124" y="366.125" width="175.093" height="9" style="fill:#f472b6"/>
    <text x="304.093" y="374.425" style="fill:#fb7185;font-size:11px">393k (+54%)</text>
   </g>
   <g>
    <path d="M 18 473.000 L 1016 473.000" style="fill:none;stroke:#1f2937;stroke-width:0.6"/>
    <text x="108" y="431.375" style="fill:#f8fafc;font-size:13px;font-weight:600;text-anchor:end">shopping</text>
    <rect x="124" y="401.375" width="302.066" height="9" style="fill:#94a3b8"/>
    <text x="431.066" y="409.675" style="fill:#cbd5e1;font-size:11px">677k</text>
    <rect x="124" y="414.875" width="41.944" height="9" style="fill:#22d3ee"/>
    <text x="170.944" y="423.175" style="fill:#22d3ee;font-size:11px;font-weight:700">94k (-86%)</text>
    <rect x="124" y="428.375" width="99.627" height="9" style="fill:#f59e0b"/>
    <text x="228.627" y="436.675" style="fill:#f59e0b;font-size:11px">223k (-67%)</text>
    <rect x="124" y="455.375" width="229.004" height="9" style="fill:#f472b6"/>
    <text x="358.004" y="463.675" style="fill:#f472b6;font-size:11px">513k (-24%)</text>
   </g>
   <g>
    <path d="M 18 562.250 L 1016 562.250" style="fill:none;stroke:#1f2937;stroke-width:0.6"/>
    <text x="108" y="520.625" style="fill:#f8fafc;font-size:13px;font-weight:600;text-anchor:end">typeorm</text>
    <rect x="124" y="490.625" width="128.907" height="9" style="fill:#94a3b8"/>
    <text x="257.907" y="498.925" style="fill:#cbd5e1;font-size:11px">289k</text>
    <rect x="124" y="504.125" width="33.996" height="9" style="fill:#22d3ee"/>
    <text x="162.996" y="512.425" style="fill:#22d3ee;font-size:11px;font-weight:700">76k (-74%)</text>
    <rect x="124" y="517.625" width="110.032" height="9" style="fill:#f59e0b"/>
    <text x="239.032" y="525.925" style="fill:#f59e0b;font-size:11px">247k (-15%)</text>
    <rect x="124" y="531.125" width="122.401" height="9" style="fill:#a3e635"/>
    <text x="251.401" y="539.425" style="fill:#a3e635;font-size:11px">274k (-5%)</text>
    <rect x="124" y="544.625" width="101.975" height="9" style="fill:#f472b6"/>
    <text x="230.975" y="552.925" style="fill:#f472b6;font-size:11px">229k (-21%)</text>
   </g>
   <g>
    <path d="M 18 651.500 L 1016 651.500" style="fill:none;stroke:#1f2937;stroke-width:0.6"/>
    <text x="108" y="609.875" style="fill:#f8fafc;font-size:13px;font-weight:600;text-anchor:end">vscode</text>
    <rect x="124" y="579.875" width="203.282" height="9" style="fill:#94a3b8"/>
    <text x="332.282" y="588.175" style="fill:#cbd5e1;font-size:11px">456k</text>
    <rect x="124" y="593.375" width="68.689" height="9" style="fill:#22d3ee"/>
    <text x="197.689" y="601.675" style="fill:#22d3ee;font-size:11px;font-weight:700">154k (-66%)</text>
    <rect x="124" y="606.875" width="174.067" height="9" style="fill:#f59e0b"/>
    <text x="303.067" y="615.175" style="fill:#f59e0b;font-size:11px">390k (-14%)</text>
    <rect x="124" y="620.375" width="120.069" height="9" style="fill:#a3e635"/>
    <text x="249.069" y="628.675" style="fill:#a3e635;font-size:11px">269k (-41%)</text>
    <rect x="124" y="633.875" width="119.978" height="9" style="fill:#f472b6"/>
    <text x="248.978" y="642.175" style="fill:#f472b6;font-size:11px">269k (-41%)</text>
   </g>
   <g>
    <path d="M 18 740.750 L 1016 740.750" style="fill:none;stroke:#1f2937;stroke-width:0.6"/>
    <text x="108" y="699.125" style="fill:#f8fafc;font-size:13px;font-weight:600;text-anchor:end">vue</text>
    <rect x="124" y="669.125" width="203.658" height="9" style="fill:#94a3b8"/>
    <text x="332.658" y="677.425" style="fill:#cbd5e1;font-size:11px">457k</text>
    <rect x="124" y="682.625" width="41.606" height="9" style="fill:#22d3ee"/>
    <text x="170.606" y="690.925" style="fill:#22d3ee;font-size:11px;font-weight:700">93k (-80%)</text>
    <rect x="124" y="696.125" width="188.856" height="9" style="fill:#f59e0b"/>
    <text x="317.856" y="704.425" style="fill:#f59e0b;font-size:11px">423k (-7%)</text>
    <rect x="124" y="709.625" width="136.850" height="9" style="fill:#a3e635"/>
    <text x="265.850" y="717.925" style="fill:#a3e635;font-size:11px">307k (-33%)</text>
    <rect x="124" y="723.125" width="218.327" height="9" style="fill:#f472b6"/>
    <text x="347.327" y="731.425" style="fill:#fb7185;font-size:11px">490k (+7%)</text>
   </g>
   <g>
    <path d="M 18 830.000 L 1016 830.000" style="fill:none;stroke:#1f2937;stroke-width:0.6"/>
    <text x="108" y="788.375" style="fill:#f8fafc;font-size:13px;font-weight:600;text-anchor:end">zod</text>
    <rect x="124" y="758.375" width="312.329" height="9" style="fill:#94a3b8"/>
    <text x="441.329" y="766.675" style="fill:#cbd5e1;font-size:11px">700k</text>
    <rect x="124" y="771.875" width="41.640" height="9" style="fill:#22d3ee"/>
    <text x="170.640" y="780.175" style="fill:#22d3ee;font-size:11px;font-weight:700">93k (-87%)</text>
    <rect x="124" y="785.375" width="116.867" height="9" style="fill:#f59e0b"/>
    <text x="245.867" y="793.675" style="fill:#f59e0b;font-size:11px">262k (-63%)</text>
    <rect x="124" y="798.875" width="287.994" height="9" style="fill:#a3e635"/>
    <text x="416.994" y="807.175" style="fill:#a3e635;font-size:11px">646k (-8%)</text>
    <rect x="124" y="812.375" width="170.584" height="9" style="fill:#f472b6"/>
    <text x="299.584" y="820.675" style="fill:#f472b6;font-size:11px">382k (-45%)</text>
   </g>
   <text x="570.000" y="28" style="fill:#f8fafc;font-size:20px;font-weight:600;text-anchor:middle">Dedicated prompt median token use, Codex GPT-5.6 terra</text>
   <text x="570.000" y="874" style="fill:#cbd5e1;font-size:13px;text-anchor:middle">Tokens</text>
   <g id="legend_1">
   <g>
    <rect x="124" y="49" width="14" height="9" style="fill:#94a3b8"/>
    <text x="144" y="58" style="fill:#cbd5e1;font-size:12px">baseline</text>
   </g>
   <g>
    <rect x="219.76" y="49" width="14" height="9" style="fill:#22d3ee"/>
    <text x="239.76" y="58" style="fill:#cbd5e1;font-size:12px">@ttsc/graph</text>
   </g>
   <g>
    <rect x="335.68" y="49" width="14" height="9" style="fill:#f59e0b"/>
    <text x="355.68" y="58" style="fill:#cbd5e1;font-size:12px">codegraph</text>
   </g>
   <g>
    <rect x="438.16" y="49" width="14" height="9" style="fill:#a3e635"/>
    <text x="458.16" y="58" style="fill:#cbd5e1;font-size:12px">codebase-memory</text>
   </g>
   <g>
    <rect x="580.96" y="49" width="14" height="9" style="fill:#f472b6"/>
    <text x="600.96" y="58" style="fill:#cbd5e1;font-size:12px">serena</text>
   </g>
  </g>
   <text x="124" y="80" style="fill:#94a3b8;font-size:12px">Lower is better. Percentage is versus the no-MCP baseline.</text>
  </g>
 </g>
</svg>
