<?xml version="1.0" encoding="utf-8" standalone="no"?>
<svg xmlns="http://www.w3.org/2000/svg" width="1040" height="430" viewBox="0 0 1040 430" version="1.1" role="img" aria-label="zod — median tokens (common prompt). Codex GPT-5.6 sol. Lower is better; percentage is versus the no-MCP baseline.">
 <defs>
  <style type="text/css">
   *{stroke-linejoin:round;stroke-linecap:butt}
   text{font-family:DejaVu Sans, Arial, sans-serif}
  </style>
 </defs>
 <g>
  <path d="M 0 430 L 1040 430 L 1040 0 L 0 0 z" style="fill:#05070b"/>
  <text x="124" y="30" style="fill:#f8fafc;font-size:16px;font-weight:600">zod — median tokens (common prompt)</text>
  <text x="124" y="52" style="fill:#94a3b8;font-size:12px">Codex GPT-5.6 sol. Lower is better; percentage is versus the no-MCP baseline.</text>
  <path d="M 124 72 L 1016 72 L 1016 372 L 124 372 z" style="fill:#0b111a"/>
  <g>
   <path d="M 124.000 72 L 124.000 372" style="fill:none;stroke:#1f2937;stroke-width:0.7"/>
   <text x="124.000" y="390" style="fill:#cbd5e1;font-size:11px;text-anchor:middle">0</text>
  </g>
  <g>
   <path d="M 347.000 72 L 347.000 372" style="fill:none;stroke:#1f2937;stroke-width:0.7"/>
   <text x="347.000" y="390" style="fill:#cbd5e1;font-size:11px;text-anchor:middle">750k</text>
  </g>
  <g>
   <path d="M 570.000 72 L 570.000 372" style="fill:none;stroke:#1f2937;stroke-width:0.7"/>
   <text x="570.000" y="390" style="fill:#cbd5e1;font-size:11px;text-anchor:middle">1.5M</text>
  </g>
  <g>
   <path d="M 793.000 72 L 793.000 372" style="fill:none;stroke:#1f2937;stroke-width:0.7"/>
   <text x="793.000" y="390" style="fill:#cbd5e1;font-size:11px;text-anchor:middle">2.3M</text>
  </g>
  <g>
   <path d="M 1016.000 72 L 1016.000 372" style="fill:none;stroke:#1f2937;stroke-width:0.7"/>
   <text x="1016.000" y="390" style="fill:#cbd5e1;font-size:11px;text-anchor:middle">3M</text>
  </g>
  <path d="M 124 372 L 1016 372" style="fill:none;stroke:#64748b;stroke-width:0.8"/>
  <path d="M 124 72 L 124 372" style="fill:none;stroke:#64748b;stroke-width:0.8"/>
  <text x="570.000" y="414" style="fill:#cbd5e1;font-size:13px;text-anchor:middle">Tokens</text>
  <line x1="327.210" y1="72" x2="327.210" y2="372" style="stroke:#64748b;stroke-width:1;stroke-dasharray:4 4"/>
   <text x="331.210" y="86" style="fill:#94a3b8;font-size:11px">no-MCP baseline</text>
  <g>
    <text x="116" y="106.000" style="fill:#f8fafc;font-size:13px;font-weight:600;text-anchor:end">baseline</text>
    <rect x="124" y="87.000" width="203.210" height="30" style="fill:#94a3b8"/>
    <text x="335.210" y="106.000" style="fill:#cbd5e1;font-size:12px">683k</text>
   </g>
   <g>
    <text x="116" y="166.000" style="fill:#f8fafc;font-size:13px;font-weight:600;text-anchor:end">@ttsc/graph</text>
    <rect x="124" y="147.000" width="22.449" height="30" style="fill:#22d3ee"/>
    <text x="154.449" y="166.000" style="fill:#22d3ee;font-size:12px">76k (-89%)</text>
   </g>
   <g>
    <text x="116" y="226.000" style="fill:#f8fafc;font-size:13px;font-weight:600;text-anchor:end">codegraph</text>
    <rect x="124" y="207.000" width="210.802" height="30" style="fill:#f59e0b"/>
    <text x="342.802" y="226.000" style="fill:#fb7185;font-size:12px">709k (+4%)</text>
   </g>
   <g>
    <text x="116" y="286.000" style="fill:#f8fafc;font-size:13px;font-weight:600;text-anchor:end">codebase-memory</text>
    <rect x="124" y="267.000" width="336.462" height="30" style="fill:#a3e635"/>
    <text x="468.462" y="286.000" style="fill:#fb7185;font-size:12px">1.1M (+66%)</text>
   </g>
   <g>
    <text x="116" y="346.000" style="fill:#f8fafc;font-size:13px;font-weight:600;text-anchor:end">serena</text>
    <rect x="124" y="327.000" width="693.681" height="30" style="fill:#f472b6"/>
    <text x="825.681" y="346.000" style="fill:#fb7185;font-size:12px">2.3M (+241%)</text>
   </g>
 </g>
</svg>
