<?xml version="1.0" encoding="utf-8" standalone="no"?>
<svg xmlns="http://www.w3.org/2000/svg" width="1040" height="900" viewBox="0 0 1040 900" version="1.1" role="img" aria-label="Common prompt median token use, Codex GPT-5.6 sol">
 <defs>
  <style type="text/css">
   *{stroke-linejoin:round;stroke-linecap:butt}
   text{font-family:DejaVu Sans, Arial, sans-serif}
  </style>
 </defs>
 <g id="figure_1">
  <g id="patch_1">
   <path d="M 0 900 L 1040 900 L 1040 0 L 0 0 z" style="fill:#05070b"/>
  </g>
  <g id="axes_1">
   <path d="M 124 116 L 1016 116 L 1016 830 L 124 830 z" style="fill:#0b111a"/>
   <path d="M 124 830 L 1016 830" style="fill:none;stroke:#64748b;stroke-width:0.8"/>
   <path d="M 124 116 L 124 830" style="fill:none;stroke:#64748b;stroke-width:0.8"/>
   <g>
    <path d="M 124.000 116 L 124.000 830" style="fill:none;stroke:#1f2937;stroke-width:0.7"/>
    <text x="124.000" y="848" style="fill:#cbd5e1;font-size:11px;text-anchor:middle">0</text>
   </g>
   <g>
    <path d="M 347.000 116 L 347.000 830" style="fill:none;stroke:#1f2937;stroke-width:0.7"/>
    <text x="347.000" y="848" style="fill:#cbd5e1;font-size:11px;text-anchor:middle">1.3M</text>
   </g>
   <g>
    <path d="M 570.000 116 L 570.000 830" style="fill:none;stroke:#1f2937;stroke-width:0.7"/>
    <text x="570.000" y="848" style="fill:#cbd5e1;font-size:11px;text-anchor:middle">2.5M</text>
   </g>
   <g>
    <path d="M 793.000 116 L 793.000 830" style="fill:none;stroke:#1f2937;stroke-width:0.7"/>
    <text x="793.000" y="848" style="fill:#cbd5e1;font-size:11px;text-anchor:middle">3.8M</text>
   </g>
   <g>
    <path d="M 1016.000 116 L 1016.000 830" style="fill:none;stroke:#1f2937;stroke-width:0.7"/>
    <text x="1016.000" y="848" style="fill:#cbd5e1;font-size:11px;text-anchor:middle">5M</text>
   </g>
   <g>
    <path d="M 18 205.250 L 1016 205.250" style="fill:none;stroke:#1f2937;stroke-width:0.6"/>
    <text x="108" y="163.625" style="fill:#f8fafc;font-size:13px;font-weight:600;text-anchor:end">excalidraw</text>
    <rect x="124" y="133.625" width="777.832" height="9" style="fill:#94a3b8"/>
    <text x="906.832" y="141.925" style="fill:#cbd5e1;font-size:11px">4.4M</text>
    <rect x="124" y="147.125" width="13.519" height="9" style="fill:#22d3ee"/>
    <text x="142.519" y="155.425" style="fill:#22d3ee;font-size:11px;font-weight:700">76k (-98%)</text>
    <rect x="124" y="160.625" width="224.412" height="9" style="fill:#f59e0b"/>
    <text x="353.412" y="168.925" style="fill:#f59e0b;font-size:11px">1.3M (-71%)</text>
    <rect x="124" y="174.125" width="382.696" height="9" style="fill:#a3e635"/>
    <text x="511.696" y="182.425" style="fill:#a3e635;font-size:11px">2.1M (-51%)</text>
    <rect x="124" y="187.625" width="786.749" height="9" style="fill:#f472b6"/>
    <text x="915.749" y="195.925" style="fill:#fb7185;font-size:11px">4.4M (+1%)</text>
   </g>
   <g>
    <path d="M 18 294.500 L 1016 294.500" style="fill:none;stroke:#1f2937;stroke-width:0.6"/>
    <text x="108" y="252.875" style="fill:#f8fafc;font-size:13px;font-weight:600;text-anchor:end">nestjs</text>
    <rect x="124" y="222.875" width="257.521" height="9" style="fill:#94a3b8"/>
    <text x="386.521" y="231.175" style="fill:#cbd5e1;font-size:11px">1.4M</text>
    <rect x="124" y="236.375" width="13.450" height="9" style="fill:#22d3ee"/>
    <text x="142.450" y="244.675" style="fill:#22d3ee;font-size:11px;font-weight:700">75k (-95%)</text>
    <rect x="124" y="249.875" width="119.215" height="9" style="fill:#f59e0b"/>
    <text x="248.215" y="258.175" style="fill:#f59e0b;font-size:11px">668k (-54%)</text>
    <rect x="124" y="263.375" width="241.016" height="9" style="fill:#a3e635"/>
    <text x="370.016" y="271.675" style="fill:#a3e635;font-size:11px">1.4M (-6%)</text>
    <rect x="124" y="276.875" width="119.367" height="9" style="fill:#f472b6"/>
    <text x="248.367" y="285.175" style="fill:#f472b6;font-size:11px">669k (-54%)</text>
   </g>
   <g>
    <path d="M 18 383.750 L 1016 383.750" style="fill:none;stroke:#1f2937;stroke-width:0.6"/>
    <text x="108" y="342.125" style="fill:#f8fafc;font-size:13px;font-weight:600;text-anchor:end">rxjs</text>
    <rect x="124" y="312.125" width="217.059" height="9" style="fill:#94a3b8"/>
    <text x="346.059" y="320.425" style="fill:#cbd5e1;font-size:11px">1.2M</text>
    <rect x="124" y="325.625" width="17.078" height="9" style="fill:#22d3ee"/>
    <text x="146.078" y="333.925" style="fill:#22d3ee;font-size:11px;font-weight:700">96k (-92%)</text>
    <rect x="124" y="339.125" width="126.439" height="9" style="fill:#f59e0b"/>
    <text x="255.439" y="347.425" style="fill:#f59e0b;font-size:11px">709k (-42%)</text>
    <rect x="124" y="352.625" width="198.198" height="9" style="fill:#a3e635"/>
    <text x="327.198" y="360.925" style="fill:#a3e635;font-size:11px">1.1M (-9%)</text>
    <rect x="124" y="366.125" width="232.854" height="9" style="fill:#f472b6"/>
    <text x="361.854" y="374.425" style="fill:#fb7185;font-size:11px">1.3M (+7%)</text>
   </g>
   <g>
    <path d="M 18 473.000 L 1016 473.000" style="fill:none;stroke:#1f2937;stroke-width:0.6"/>
    <text x="108" y="431.375" style="fill:#f8fafc;font-size:13px;font-weight:600;text-anchor:end">shopping</text>
    <rect x="124" y="401.375" width="236.264" height="9" style="fill:#94a3b8"/>
    <text x="365.264" y="409.675" style="fill:#cbd5e1;font-size:11px">1.3M</text>
    <rect x="124" y="414.875" width="13.744" height="9" style="fill:#22d3ee"/>
    <text x="142.744" y="423.175" style="fill:#22d3ee;font-size:11px;font-weight:700">77k (-94%)</text>
    <rect x="124" y="428.375" width="81.672" height="9" style="fill:#f59e0b"/>
    <text x="210.672" y="436.675" style="fill:#f59e0b;font-size:11px">458k (-65%)</text>
    <rect x="124" y="441.875" width="319.950" height="9" style="fill:#a3e635"/>
    <text x="448.950" y="450.175" style="fill:#fb7185;font-size:11px">1.8M (+35%)</text>
    <rect x="124" y="455.375" width="247.026" height="9" style="fill:#f472b6"/>
    <text x="376.026" y="463.675" style="fill:#fb7185;font-size:11px">1.4M (+5%)</text>
   </g>
   <g>
    <path d="M 18 562.250 L 1016 562.250" style="fill:none;stroke:#1f2937;stroke-width:0.6"/>
    <text x="108" y="520.625" style="fill:#f8fafc;font-size:13px;font-weight:600;text-anchor:end">typeorm</text>
    <rect x="124" y="490.625" width="361.934" height="9" style="fill:#94a3b8"/>
    <text x="490.934" y="498.925" style="fill:#cbd5e1;font-size:11px">2.0M</text>
    <rect x="124" y="504.125" width="17.147" height="9" style="fill:#22d3ee"/>
    <text x="146.147" y="512.425" style="fill:#22d3ee;font-size:11px;font-weight:700">96k (-95%)</text>
    <rect x="124" y="517.625" width="170.983" height="9" style="fill:#f59e0b"/>
    <text x="299.983" y="525.925" style="fill:#f59e0b;font-size:11px">958k (-53%)</text>
    <rect x="124" y="531.125" width="235.595" height="9" style="fill:#a3e635"/>
    <text x="364.595" y="539.425" style="fill:#a3e635;font-size:11px">1.3M (-35%)</text>
    <rect x="124" y="544.625" width="290.507" height="9" style="fill:#f472b6"/>
    <text x="419.507" y="552.925" style="fill:#f472b6;font-size:11px">1.6M (-20%)</text>
   </g>
   <g>
    <path d="M 18 651.500 L 1016 651.500" style="fill:none;stroke:#1f2937;stroke-width:0.6"/>
    <text x="108" y="609.875" style="fill:#f8fafc;font-size:13px;font-weight:600;text-anchor:end">vscode</text>
    <rect x="124" y="579.875" width="581.805" height="9" style="fill:#94a3b8"/>
    <text x="710.805" y="588.175" style="fill:#cbd5e1;font-size:11px">3.3M</text>
    <rect x="124" y="593.375" width="20.892" height="9" style="fill:#22d3ee"/>
    <text x="149.892" y="601.675" style="fill:#22d3ee;font-size:11px;font-weight:700">117k (-96%)</text>
    <rect x="124" y="606.875" width="343.652" height="9" style="fill:#f59e0b"/>
    <text x="472.652" y="615.175" style="fill:#f59e0b;font-size:11px">1.9M (-41%)</text>
    <rect x="124" y="620.375" width="380.138" height="9" style="fill:#a3e635"/>
    <text x="509.138" y="628.675" style="fill:#a3e635;font-size:11px">2.1M (-35%)</text>
    <rect x="124" y="633.875" width="466.528" height="9" style="fill:#f472b6"/>
    <text x="595.528" y="642.175" style="fill:#f472b6;font-size:11px">2.6M (-20%)</text>
   </g>
   <g>
    <path d="M 18 740.750 L 1016 740.750" style="fill:none;stroke:#1f2937;stroke-width:0.6"/>
    <text x="108" y="699.125" style="fill:#f8fafc;font-size:13px;font-weight:600;text-anchor:end">vue</text>
    <rect x="124" y="669.125" width="219.983" height="9" style="fill:#94a3b8"/>
    <text x="348.983" y="677.425" style="fill:#cbd5e1;font-size:11px">1.2M</text>
    <rect x="124" y="682.625" width="13.781" height="9" style="fill:#22d3ee"/>
    <text x="142.781" y="690.925" style="fill:#22d3ee;font-size:11px;font-weight:700">77k (-94%)</text>
    <rect x="124" y="696.125" width="151.100" height="9" style="fill:#f59e0b"/>
    <text x="280.100" y="704.425" style="fill:#f59e0b;font-size:11px">847k (-31%)</text>
    <rect x="124" y="709.625" width="177.058" height="9" style="fill:#a3e635"/>
    <text x="306.058" y="717.925" style="fill:#a3e635;font-size:11px">992k (-20%)</text>
    <rect x="124" y="723.125" width="342.749" height="9" style="fill:#f472b6"/>
    <text x="471.749" y="731.425" style="fill:#fb7185;font-size:11px">1.9M (+56%)</text>
   </g>
   <g>
    <path d="M 18 830.000 L 1016 830.000" style="fill:none;stroke:#1f2937;stroke-width:0.6"/>
    <text x="108" y="788.375" style="fill:#f8fafc;font-size:13px;font-weight:600;text-anchor:end">zod</text>
    <rect x="124" y="758.375" width="121.926" height="9" style="fill:#94a3b8"/>
    <text x="250.926" y="766.675" style="fill:#cbd5e1;font-size:11px">683k</text>
    <rect x="124" y="771.875" width="13.469" height="9" style="fill:#22d3ee"/>
    <text x="142.469" y="780.175" style="fill:#22d3ee;font-size:11px;font-weight:700">76k (-89%)</text>
    <rect x="124" y="785.375" width="126.481" height="9" style="fill:#f59e0b"/>
    <text x="255.481" y="793.675" style="fill:#fb7185;font-size:11px">709k (+4%)</text>
    <rect x="124" y="798.875" width="201.877" height="9" style="fill:#a3e635"/>
    <text x="330.877" y="807.175" style="fill:#fb7185;font-size:11px">1.1M (+66%)</text>
    <rect x="124" y="812.375" width="416.208" height="9" style="fill:#f472b6"/>
    <text x="545.208" y="820.675" style="fill:#fb7185;font-size:11px">2.3M (+241%)</text>
   </g>
   <text x="570.000" y="28" style="fill:#f8fafc;font-size:20px;font-weight:600;text-anchor:middle">Common prompt median token use, Codex GPT-5.6 sol</text>
   <text x="570.000" y="874" style="fill:#cbd5e1;font-size:13px;text-anchor:middle">Tokens</text>
   <g id="legend_1">
   <g>
    <rect x="124" y="49" width="14" height="9" style="fill:#94a3b8"/>
    <text x="144" y="58" style="fill:#cbd5e1;font-size:12px">baseline</text>
   </g>
   <g>
    <rect x="219.76" y="49" width="14" height="9" style="fill:#22d3ee"/>
    <text x="239.76" y="58" style="fill:#cbd5e1;font-size:12px">@ttsc/graph</text>
   </g>
   <g>
    <rect x="335.68" y="49" width="14" height="9" style="fill:#f59e0b"/>
    <text x="355.68" y="58" style="fill:#cbd5e1;font-size:12px">codegraph</text>
   </g>
   <g>
    <rect x="438.16" y="49" width="14" height="9" style="fill:#a3e635"/>
    <text x="458.16" y="58" style="fill:#cbd5e1;font-size:12px">codebase-memory</text>
   </g>
   <g>
    <rect x="580.96" y="49" width="14" height="9" style="fill:#f472b6"/>
    <text x="600.96" y="58" style="fill:#cbd5e1;font-size:12px">serena</text>
   </g>
  </g>
   <text x="124" y="80" style="fill:#94a3b8;font-size:12px">Lower is better. Percentage is versus the no-MCP baseline.</text>
  </g>
 </g>
</svg>
