<?xml version="1.0" encoding="utf-8" standalone="no"?>
<svg xmlns="http://www.w3.org/2000/svg" width="1040" height="800" viewBox="0 0 1040 800" version="1.1" role="img" aria-label="Cold time to a first answer (lower is better)">
 <rect width="1040" height="800" fill="#0b0f14"/>
 <text x="40" y="46" fill="#f8fafc" font-size="20" font-weight="bold" font-family="DejaVu Sans, Arial, sans-serif">Cold time to a first answer (lower is better)</text>
 <text x="40" y="68" fill="#64748b" font-size="12" font-family="DejaVu Sans, Arial, sans-serif">AMD Ryzen 9 7940HS w/ Radeon 780M Graphics, 16 cores, 31 GB — Windows_NT 10.0.26200</text>
 <text x="40" y="778" fill="#64748b" font-size="11" font-family="DejaVu Sans, Arial, sans-serif">Faded head: cold index build. Solid tail: median answer wall clock over four models and both prompt families.</text>
  <rect x="100" y="80" width="12" height="12" fill="#94a3b8" rx="2"/>
  <text x="118" y="90" fill="#cbd5f5" font-size="12">baseline</text>
  <rect x="275" y="80" width="12" height="12" fill="#22d3ee" rx="2"/>
  <text x="293" y="90" fill="#cbd5f5" font-size="12">@ttsc/graph</text>
  <rect x="450" y="80" width="12" height="12" fill="#f59e0b" rx="2"/>
  <text x="468" y="90" fill="#cbd5f5" font-size="12">codegraph</text>
  <rect x="625" y="80" width="12" height="12" fill="#a3e635" rx="2"/>
  <text x="643" y="90" fill="#cbd5f5" font-size="12">codebase-memory</text>
  <rect x="800" y="80" width="12" height="12" fill="#f472b6" rx="2"/>
  <text x="818" y="90" fill="#cbd5f5" font-size="12">serena</text>
  <line x1="160.0" y1="120" x2="160.0" y2="730" stroke="#1f2937" stroke-width="1"/>
  <text x="160.0" y="752" fill="#94a3b8" font-size="12" text-anchor="middle">0 ms</text>
  <line x1="355.0" y1="120" x2="355.0" y2="730" stroke="#1f2937" stroke-width="1"/>
  <text x="355.0" y="752" fill="#94a3b8" font-size="12" text-anchor="middle">4.2 min</text>
  <line x1="550.0" y1="120" x2="550.0" y2="730" stroke="#1f2937" stroke-width="1"/>
  <text x="550.0" y="752" fill="#94a3b8" font-size="12" text-anchor="middle">8.3 min</text>
  <line x1="745.0" y1="120" x2="745.0" y2="730" stroke="#1f2937" stroke-width="1"/>
  <text x="745.0" y="752" fill="#94a3b8" font-size="12" text-anchor="middle">12.5 min</text>
  <line x1="940.0" y1="120" x2="940.0" y2="730" stroke="#1f2937" stroke-width="1"/>
  <text x="940.0" y="752" fill="#94a3b8" font-size="12" text-anchor="middle">16.7 min</text>
  <text x="148" y="154.1" fill="#e2e8f0" font-size="13" text-anchor="end">shopping</text>
  <text x="148" y="170.1" fill="#64748b" font-size="10" text-anchor="end">51,478 lines</text>
  <rect x="160.0" y="120.6" width="98.6" height="11" fill="#94a3b8" rx="2"/>
  <text x="266.6" y="130.6" fill="#94a3b8" font-size="11">2.1 min</text>
  <rect x="160" y="135.6" width="0.8" height="11" fill="#22d3ee" fill-opacity="0.35" rx="2"/>
  <rect x="160.8" y="135.6" width="40.3" height="11" fill="#22d3ee" rx="2"/>
  <text x="209.1" y="145.6" fill="#22d3ee" font-size="11">53 s</text>
  <rect x="160" y="150.6" width="7.3" height="11" fill="#f59e0b" fill-opacity="0.35" rx="2"/>
  <rect x="167.3" y="150.6" width="55.7" height="11" fill="#f59e0b" rx="2"/>
  <text x="231.0" y="160.6" fill="#f59e0b" font-size="11">1.3 min</text>
  <rect x="160" y="165.6" width="0.6" height="11" fill="#a3e635" fill-opacity="0.35" rx="2"/>
  <rect x="160.6" y="165.6" width="91.1" height="11" fill="#a3e635" rx="2"/>
  <text x="259.7" y="175.6" fill="#a3e635" font-size="11">2.0 min</text>
  <rect x="160" y="180.6" width="9.9" height="11" fill="#f472b6" fill-opacity="0.35" rx="2"/>
  <rect x="169.9" y="180.6" width="135.7" height="11" fill="#f472b6" rx="2"/>
  <text x="313.6" y="190.6" fill="#f472b6" font-size="11">3.1 min</text>
  <text x="148" y="230.4" fill="#e2e8f0" font-size="13" text-anchor="end">zod</text>
  <text x="148" y="246.4" fill="#64748b" font-size="10" text-anchor="end">79,306 lines</text>
  <rect x="160.0" y="196.9" width="117.0" height="11" fill="#94a3b8" rx="2"/>
  <text x="285.0" y="206.9" fill="#94a3b8" font-size="11">2.5 min</text>
  <rect x="160" y="211.9" width="1.2" height="11" fill="#22d3ee" fill-opacity="0.35" rx="2"/>
  <rect x="161.2" y="211.9" width="37.7" height="11" fill="#22d3ee" rx="2"/>
  <text x="206.9" y="221.9" fill="#22d3ee" font-size="11">50 s</text>
  <rect x="160" y="226.9" width="8.0" height="11" fill="#f59e0b" fill-opacity="0.35" rx="2"/>
  <rect x="168.0" y="226.9" width="60.7" height="11" fill="#f59e0b" rx="2"/>
  <text x="236.7" y="236.9" fill="#f59e0b" font-size="11">1.5 min</text>
  <rect x="160" y="241.9" width="0.7" height="11" fill="#a3e635" fill-opacity="0.35" rx="2"/>
  <rect x="160.7" y="241.9" width="88.4" height="11" fill="#a3e635" rx="2"/>
  <text x="257.1" y="251.9" fill="#a3e635" font-size="11">1.9 min</text>
  <rect x="160" y="256.9" width="7.5" height="11" fill="#f472b6" fill-opacity="0.35" rx="2"/>
  <rect x="167.5" y="256.9" width="121.5" height="11" fill="#f472b6" rx="2"/>
  <text x="297.0" y="266.9" fill="#f472b6" font-size="11">2.8 min</text>
  <text x="148" y="306.6" fill="#e2e8f0" font-size="13" text-anchor="end">nestjs</text>
  <text x="148" y="322.6" fill="#64748b" font-size="10" text-anchor="end">88,775 lines</text>
  <rect x="160.0" y="273.1" width="106.3" height="11" fill="#94a3b8" rx="2"/>
  <text x="274.3" y="283.1" fill="#94a3b8" font-size="11">2.3 min</text>
  <rect x="160" y="288.1" width="0.9" height="11" fill="#22d3ee" fill-opacity="0.35" rx="2"/>
  <rect x="160.9" y="288.1" width="51.3" height="11" fill="#22d3ee" rx="2"/>
  <text x="220.2" y="298.1" fill="#22d3ee" font-size="11">1.1 min</text>
  <rect x="160" y="303.1" width="16.1" height="11" fill="#f59e0b" fill-opacity="0.35" rx="2"/>
  <rect x="176.1" y="303.1" width="59.2" height="11" fill="#f59e0b" rx="2"/>
  <text x="243.3" y="313.1" fill="#f59e0b" font-size="11">1.6 min</text>
  <rect x="160" y="318.1" width="1.1" height="11" fill="#a3e635" fill-opacity="0.35" rx="2"/>
  <rect x="161.1" y="318.1" width="92.0" height="11" fill="#a3e635" rx="2"/>
  <text x="261.1" y="328.1" fill="#a3e635" font-size="11">2.0 min</text>
  <rect x="160" y="333.1" width="13.9" height="11" fill="#f472b6" fill-opacity="0.35" rx="2"/>
  <rect x="173.9" y="333.1" width="108.5" height="11" fill="#f472b6" rx="2"/>
  <text x="290.4" y="343.1" fill="#f472b6" font-size="11">2.6 min</text>
  <text x="148" y="382.9" fill="#e2e8f0" font-size="13" text-anchor="end">rxjs</text>
  <text x="148" y="398.9" fill="#64748b" font-size="10" text-anchor="end">91,238 lines</text>
  <rect x="160.0" y="349.4" width="106.5" height="11" fill="#94a3b8" rx="2"/>
  <text x="274.5" y="359.4" fill="#94a3b8" font-size="11">2.3 min</text>
  <rect x="160" y="364.4" width="0.6" height="11" fill="#22d3ee" fill-opacity="0.35" rx="2"/>
  <rect x="160.6" y="364.4" width="41.2" height="11" fill="#22d3ee" rx="2"/>
  <text x="209.8" y="374.4" fill="#22d3ee" font-size="11">54 s</text>
  <rect x="160" y="379.4" width="12.6" height="11" fill="#f59e0b" fill-opacity="0.35" rx="2"/>
  <rect x="172.6" y="379.4" width="53.6" height="11" fill="#f59e0b" rx="2"/>
  <text x="234.2" y="389.4" fill="#f59e0b" font-size="11">1.4 min</text>
  <rect x="160" y="394.4" width="1.0" height="11" fill="#a3e635" fill-opacity="0.35" rx="2"/>
  <rect x="161.0" y="394.4" width="75.4" height="11" fill="#a3e635" rx="2"/>
  <text x="244.4" y="404.4" fill="#a3e635" font-size="11">1.6 min</text>
  <rect x="160" y="409.4" width="11.6" height="11" fill="#f472b6" fill-opacity="0.35" rx="2"/>
  <rect x="171.6" y="409.4" width="129.5" height="11" fill="#f472b6" rx="2"/>
  <text x="309.1" y="419.4" fill="#f472b6" font-size="11">3.0 min</text>
  <text x="148" y="459.1" fill="#e2e8f0" font-size="13" text-anchor="end">vue</text>
  <text x="148" y="475.1" fill="#64748b" font-size="10" text-anchor="end">151,184 lines</text>
  <rect x="160.0" y="425.6" width="105.9" height="11" fill="#94a3b8" rx="2"/>
  <text x="273.9" y="435.6" fill="#94a3b8" font-size="11">2.3 min</text>
  <rect x="160" y="440.6" width="1.6" height="11" fill="#22d3ee" fill-opacity="0.35" rx="2"/>
  <rect x="161.6" y="440.6" width="43.9" height="11" fill="#22d3ee" rx="2"/>
  <text x="213.4" y="450.6" fill="#22d3ee" font-size="11">58 s</text>
  <rect x="160" y="455.6" width="9.7" height="11" fill="#f59e0b" fill-opacity="0.35" rx="2"/>
  <rect x="169.7" y="455.6" width="63.8" height="11" fill="#f59e0b" rx="2"/>
  <text x="241.4" y="465.6" fill="#f59e0b" font-size="11">1.6 min</text>
  <rect x="160" y="470.6" width="0.8" height="11" fill="#a3e635" fill-opacity="0.35" rx="2"/>
  <rect x="160.8" y="470.6" width="87.8" height="11" fill="#a3e635" rx="2"/>
  <text x="256.6" y="480.6" fill="#a3e635" font-size="11">1.9 min</text>
  <rect x="160" y="485.6" width="9.8" height="11" fill="#f472b6" fill-opacity="0.35" rx="2"/>
  <rect x="169.8" y="485.6" width="102.7" height="11" fill="#f472b6" rx="2"/>
  <text x="280.5" y="495.6" fill="#f472b6" font-size="11">2.4 min</text>
  <text x="148" y="535.4" fill="#e2e8f0" font-size="13" text-anchor="end">excalidraw</text>
  <text x="148" y="551.4" fill="#64748b" font-size="10" text-anchor="end">172,012 lines</text>
  <rect x="160.0" y="501.9" width="154.7" height="11" fill="#94a3b8" rx="2"/>
  <text x="322.7" y="511.9" fill="#94a3b8" font-size="11">3.3 min</text>
  <rect x="160" y="516.9" width="1.5" height="11" fill="#22d3ee" fill-opacity="0.35" rx="2"/>
  <rect x="161.5" y="516.9" width="48.1" height="11" fill="#22d3ee" rx="2"/>
  <text x="217.6" y="526.9" fill="#22d3ee" font-size="11">1.1 min</text>
  <rect x="160" y="531.9" width="13.9" height="11" fill="#f59e0b" fill-opacity="0.35" rx="2"/>
  <rect x="173.9" y="531.9" width="68.8" height="11" fill="#f59e0b" rx="2"/>
  <text x="250.6" y="541.9" fill="#f59e0b" font-size="11">1.8 min</text>
  <rect x="160" y="546.9" width="1.5" height="11" fill="#a3e635" fill-opacity="0.35" rx="2"/>
  <rect x="161.5" y="546.9" width="135.6" height="11" fill="#a3e635" rx="2"/>
  <text x="305.1" y="556.9" fill="#a3e635" font-size="11">2.9 min</text>
  <rect x="160" y="561.9" width="11.4" height="11" fill="#f472b6" fill-opacity="0.35" rx="2"/>
  <rect x="171.4" y="561.9" width="161.2" height="11" fill="#f472b6" rx="2"/>
  <text x="340.6" y="571.9" fill="#f472b6" font-size="11">3.7 min</text>
  <text x="148" y="611.6" fill="#e2e8f0" font-size="13" text-anchor="end">typeorm</text>
  <text x="148" y="627.6" fill="#64748b" font-size="10" text-anchor="end">299,837 lines</text>
  <rect x="160.0" y="578.1" width="121.9" height="11" fill="#94a3b8" rx="2"/>
  <text x="289.9" y="588.1" fill="#94a3b8" font-size="11">2.6 min</text>
  <rect x="160" y="593.1" width="1.9" height="11" fill="#22d3ee" fill-opacity="0.35" rx="2"/>
  <rect x="161.9" y="593.1" width="46.7" height="11" fill="#22d3ee" rx="2"/>
  <text x="216.6" y="603.1" fill="#22d3ee" font-size="11">1.0 min</text>
  <rect x="160" y="608.1" width="43.1" height="11" fill="#f59e0b" fill-opacity="0.35" rx="2"/>
  <rect x="203.1" y="608.1" width="51.1" height="11" fill="#f59e0b" rx="2"/>
  <text x="262.2" y="618.1" fill="#f59e0b" font-size="11">2.0 min</text>
  <rect x="160" y="623.1" width="2.3" height="11" fill="#a3e635" fill-opacity="0.35" rx="2"/>
  <rect x="162.3" y="623.1" width="103.8" height="11" fill="#a3e635" rx="2"/>
  <text x="274.1" y="633.1" fill="#a3e635" font-size="11">2.3 min</text>
  <rect x="160" y="638.1" width="22.5" height="11" fill="#f472b6" fill-opacity="0.35" rx="2"/>
  <rect x="182.5" y="638.1" width="112.4" height="11" fill="#f472b6" rx="2"/>
  <text x="303.0" y="648.1" fill="#f472b6" font-size="11">2.9 min</text>
  <text x="148" y="687.9" fill="#e2e8f0" font-size="13" text-anchor="end">vscode</text>
  <text x="148" y="703.9" fill="#64748b" font-size="10" text-anchor="end">3,094,212 lines</text>
  <rect x="160.0" y="654.4" width="136.1" height="11" fill="#94a3b8" rx="2"/>
  <text x="304.1" y="664.4" fill="#94a3b8" font-size="11">2.9 min</text>
  <rect x="160" y="669.4" width="22.4" height="11" fill="#22d3ee" fill-opacity="0.35" rx="2"/>
  <rect x="182.4" y="669.4" width="85.8" height="11" fill="#22d3ee" rx="2"/>
  <text x="276.2" y="679.4" fill="#22d3ee" font-size="11">2.3 min</text>
  <rect x="160" y="684.4" width="570.5" height="11" fill="#f59e0b" fill-opacity="0.35" rx="2"/>
  <rect x="730.5" y="684.4" width="80.3" height="11" fill="#f59e0b" rx="2"/>
  <text x="818.9" y="694.4" fill="#f59e0b" font-size="11">13.9 min</text>
  <rect x="160" y="699.4" width="92.7" height="11" fill="#a3e635" fill-opacity="0.35" rx="2"/>
  <rect x="252.7" y="699.4" width="113.8" height="11" fill="#a3e635" rx="2"/>
  <text x="374.5" y="709.4" fill="#a3e635" font-size="11">4.4 min</text>
  <rect x="160" y="714.4" width="213.7" height="11" fill="#f472b6" fill-opacity="0.35" rx="2"/>
  <rect x="373.7" y="714.4" width="105.3" height="11" fill="#f472b6" rx="2"/>
  <text x="487.0" y="724.4" fill="#f472b6" font-size="11">6.8 min</text>
</svg>
