<?xml version="1.0" encoding="utf-8" standalone="no"?>
<svg xmlns="http://www.w3.org/2000/svg" width="1040" height="900" viewBox="0 0 1040 900" version="1.1" role="img" aria-label="Common prompt median token use, Codex GPT-5.6 terra">
 <defs>
  <style type="text/css">
   *{stroke-linejoin:round;stroke-linecap:butt}
   text{font-family:DejaVu Sans, Arial, sans-serif}
  </style>
 </defs>
 <g id="figure_1">
  <g id="patch_1">
   <path d="M 0 900 L 1040 900 L 1040 0 L 0 0 z" style="fill:#05070b"/>
  </g>
  <g id="axes_1">
   <path d="M 124 116 L 1016 116 L 1016 830 L 124 830 z" style="fill:#0b111a"/>
   <path d="M 124 830 L 1016 830" style="fill:none;stroke:#64748b;stroke-width:0.8"/>
   <path d="M 124 116 L 124 830" style="fill:none;stroke:#64748b;stroke-width:0.8"/>
   <g>
    <path d="M 124.000 116 L 124.000 830" style="fill:none;stroke:#1f2937;stroke-width:0.7"/>
    <text x="124.000" y="848" style="fill:#cbd5e1;font-size:11px;text-anchor:middle">0</text>
   </g>
   <g>
    <path d="M 347.000 116 L 347.000 830" style="fill:none;stroke:#1f2937;stroke-width:0.7"/>
    <text x="347.000" y="848" style="fill:#cbd5e1;font-size:11px;text-anchor:middle">500k</text>
   </g>
   <g>
    <path d="M 570.000 116 L 570.000 830" style="fill:none;stroke:#1f2937;stroke-width:0.7"/>
    <text x="570.000" y="848" style="fill:#cbd5e1;font-size:11px;text-anchor:middle">1M</text>
   </g>
   <g>
    <path d="M 793.000 116 L 793.000 830" style="fill:none;stroke:#1f2937;stroke-width:0.7"/>
    <text x="793.000" y="848" style="fill:#cbd5e1;font-size:11px;text-anchor:middle">1.5M</text>
   </g>
   <g>
    <path d="M 1016.000 116 L 1016.000 830" style="fill:none;stroke:#1f2937;stroke-width:0.7"/>
    <text x="1016.000" y="848" style="fill:#cbd5e1;font-size:11px;text-anchor:middle">2M</text>
   </g>
   <g>
    <path d="M 18 205.250 L 1016 205.250" style="fill:none;stroke:#1f2937;stroke-width:0.6"/>
    <text x="108" y="163.625" style="fill:#f8fafc;font-size:13px;font-weight:600;text-anchor:end">excalidraw</text>
    <rect x="124" y="133.625" width="393.419" height="9" style="fill:#94a3b8"/>
    <text x="522.419" y="141.925" style="fill:#cbd5e1;font-size:11px">882k</text>
    <rect x="124" y="147.125" width="59.933" height="9" style="fill:#22d3ee"/>
    <text x="188.933" y="155.425" style="fill:#22d3ee;font-size:11px;font-weight:700">134k (-85%)</text>
    <rect x="124" y="160.625" width="127.049" height="9" style="fill:#f59e0b"/>
    <text x="256.049" y="168.925" style="fill:#f59e0b;font-size:11px">285k (-68%)</text>
    <rect x="124" y="174.125" width="411.202" height="9" style="fill:#a3e635"/>
    <text x="540.202" y="182.425" style="fill:#fb7185;font-size:11px">922k (+5%)</text>
    <rect x="124" y="187.625" width="464.736" height="9" style="fill:#f472b6"/>
    <text x="593.736" y="195.925" style="fill:#fb7185;font-size:11px">1.0M (+18%)</text>
   </g>
   <g>
    <path d="M 18 294.500 L 1016 294.500" style="fill:none;stroke:#1f2937;stroke-width:0.6"/>
    <text x="108" y="252.875" style="fill:#f8fafc;font-size:13px;font-weight:600;text-anchor:end">nestjs</text>
    <rect x="124" y="222.875" width="218.422" height="9" style="fill:#94a3b8"/>
    <text x="347.422" y="231.175" style="fill:#cbd5e1;font-size:11px">490k</text>
    <rect x="124" y="236.375" width="50.923" height="9" style="fill:#22d3ee"/>
    <text x="179.923" y="244.675" style="fill:#22d3ee;font-size:11px;font-weight:700">114k (-77%)</text>
    <rect x="124" y="249.875" width="69.672" height="9" style="fill:#f59e0b"/>
    <text x="198.672" y="258.175" style="fill:#f59e0b;font-size:11px">156k (-68%)</text>
    <rect x="124" y="263.375" width="432.197" height="9" style="fill:#a3e635"/>
    <text x="561.197" y="271.675" style="fill:#fb7185;font-size:11px">969k (+98%)</text>
    <rect x="124" y="276.875" width="208.637" height="9" style="fill:#f472b6"/>
    <text x="337.637" y="285.175" style="fill:#f472b6;font-size:11px">468k (-4%)</text>
   </g>
   <g>
    <path d="M 18 383.750 L 1016 383.750" style="fill:none;stroke:#1f2937;stroke-width:0.6"/>
    <text x="108" y="342.125" style="fill:#f8fafc;font-size:13px;font-weight:600;text-anchor:end">rxjs</text>
    <rect x="124" y="312.125" width="167.721" height="9" style="fill:#94a3b8"/>
    <text x="296.721" y="320.425" style="fill:#cbd5e1;font-size:11px">376k</text>
    <rect x="124" y="325.625" width="50.637" height="9" style="fill:#22d3ee"/>
    <text x="179.637" y="333.925" style="fill:#22d3ee;font-size:11px;font-weight:700">114k (-70%)</text>
    <rect x="124" y="339.125" width="95.341" height="9" style="fill:#f59e0b"/>
    <text x="224.341" y="347.425" style="fill:#f59e0b;font-size:11px">214k (-43%)</text>
    <rect x="124" y="352.625" width="194.086" height="9" style="fill:#a3e635"/>
    <text x="323.086" y="360.925" style="fill:#fb7185;font-size:11px">435k (+16%)</text>
    <rect x="124" y="366.125" width="239.488" height="9" style="fill:#f472b6"/>
    <text x="368.488" y="374.425" style="fill:#fb7185;font-size:11px">537k (+43%)</text>
   </g>
   <g>
    <path d="M 18 473.000 L 1016 473.000" style="fill:none;stroke:#1f2937;stroke-width:0.6"/>
    <text x="108" y="431.375" style="fill:#f8fafc;font-size:13px;font-weight:600;text-anchor:end">shopping</text>
    <rect x="124" y="401.375" width="224.234" height="9" style="fill:#94a3b8"/>
    <text x="353.234" y="409.675" style="fill:#cbd5e1;font-size:11px">503k</text>
    <rect x="124" y="414.875" width="42.417" height="9" style="fill:#22d3ee"/>
    <text x="171.417" y="423.175" style="fill:#22d3ee;font-size:11px;font-weight:700">95k (-81%)</text>
    <rect x="124" y="428.375" width="315.878" height="9" style="fill:#f59e0b"/>
    <text x="444.878" y="436.675" style="fill:#fb7185;font-size:11px">708k (+41%)</text>
    <rect x="124" y="455.375" width="336.360" height="9" style="fill:#f472b6"/>
    <text x="465.360" y="463.675" style="fill:#fb7185;font-size:11px">754k (+50%)</text>
   </g>
   <g>
    <path d="M 18 562.250 L 1016 562.250" style="fill:none;stroke:#1f2937;stroke-width:0.6"/>
    <text x="108" y="520.625" style="fill:#f8fafc;font-size:13px;font-weight:600;text-anchor:end">typeorm</text>
    <rect x="124" y="490.625" width="276.830" height="9" style="fill:#94a3b8"/>
    <text x="405.830" y="498.925" style="fill:#cbd5e1;font-size:11px">621k</text>
    <rect x="124" y="504.125" width="59.743" height="9" style="fill:#22d3ee"/>
    <text x="188.743" y="512.425" style="fill:#22d3ee;font-size:11px;font-weight:700">134k (-78%)</text>
    <rect x="124" y="517.625" width="167.142" height="9" style="fill:#f59e0b"/>
    <text x="296.142" y="525.925" style="fill:#f59e0b;font-size:11px">375k (-40%)</text>
    <rect x="124" y="531.125" width="215.146" height="9" style="fill:#a3e635"/>
    <text x="344.146" y="539.425" style="fill:#a3e635;font-size:11px">482k (-22%)</text>
    <rect x="124" y="544.625" width="190.860" height="9" style="fill:#f472b6"/>
    <text x="319.860" y="552.925" style="fill:#f472b6;font-size:11px">428k (-31%)</text>
   </g>
   <g>
    <path d="M 18 651.500 L 1016 651.500" style="fill:none;stroke:#1f2937;stroke-width:0.6"/>
    <text x="108" y="609.875" style="fill:#f8fafc;font-size:13px;font-weight:600;text-anchor:end">vscode</text>
    <rect x="124" y="579.875" width="528.051" height="9" style="fill:#94a3b8"/>
    <text x="657.051" y="588.175" style="fill:#cbd5e1;font-size:11px">1.2M</text>
    <rect x="124" y="593.375" width="118.320" height="9" style="fill:#22d3ee"/>
    <text x="247.320" y="601.675" style="fill:#22d3ee;font-size:11px;font-weight:700">265k (-78%)</text>
    <rect x="124" y="606.875" width="360.390" height="9" style="fill:#f59e0b"/>
    <text x="489.390" y="615.175" style="fill:#f59e0b;font-size:11px">808k (-32%)</text>
    <rect x="124" y="620.375" width="542.674" height="9" style="fill:#a3e635"/>
    <text x="671.674" y="628.675" style="fill:#fb7185;font-size:11px">1.2M (+3%)</text>
    <rect x="124" y="633.875" width="483.027" height="9" style="fill:#f472b6"/>
    <text x="612.027" y="642.175" style="fill:#f472b6;font-size:11px">1.1M (-9%)</text>
   </g>
   <g>
    <path d="M 18 740.750 L 1016 740.750" style="fill:none;stroke:#1f2937;stroke-width:0.6"/>
    <text x="108" y="699.125" style="fill:#f8fafc;font-size:13px;font-weight:600;text-anchor:end">vue</text>
    <rect x="124" y="669.125" width="203.177" height="9" style="fill:#94a3b8"/>
    <text x="332.177" y="677.425" style="fill:#cbd5e1;font-size:11px">456k</text>
    <rect x="124" y="682.625" width="41.572" height="9" style="fill:#22d3ee"/>
    <text x="170.572" y="690.925" style="fill:#22d3ee;font-size:11px;font-weight:700">93k (-80%)</text>
    <rect x="124" y="696.125" width="307.114" height="9" style="fill:#f59e0b"/>
    <text x="436.114" y="704.425" style="fill:#fb7185;font-size:11px">689k (+51%)</text>
    <rect x="124" y="709.625" width="178.047" height="9" style="fill:#a3e635"/>
    <text x="307.047" y="717.925" style="fill:#a3e635;font-size:11px">399k (-12%)</text>
    <rect x="124" y="723.125" width="290.694" height="9" style="fill:#f472b6"/>
    <text x="419.694" y="731.425" style="fill:#fb7185;font-size:11px">652k (+43%)</text>
   </g>
   <g>
    <path d="M 18 830.000 L 1016 830.000" style="fill:none;stroke:#1f2937;stroke-width:0.6"/>
    <text x="108" y="788.375" style="fill:#f8fafc;font-size:13px;font-weight:600;text-anchor:end">zod</text>
    <rect x="124" y="758.375" width="247.153" height="9" style="fill:#94a3b8"/>
    <text x="376.153" y="766.675" style="fill:#cbd5e1;font-size:11px">554k</text>
    <rect x="124" y="771.875" width="32.757" height="9" style="fill:#22d3ee"/>
    <text x="161.757" y="780.175" style="fill:#22d3ee;font-size:11px;font-weight:700">73k (-87%)</text>
    <rect x="124" y="785.375" width="331.383" height="9" style="fill:#f59e0b"/>
    <text x="460.383" y="793.675" style="fill:#fb7185;font-size:11px">743k (+34%)</text>
    <rect x="124" y="798.875" width="175.722" height="9" style="fill:#a3e635"/>
    <text x="304.722" y="807.175" style="fill:#a3e635;font-size:11px">394k (-29%)</text>
    <rect x="124" y="812.375" width="446.905" height="9" style="fill:#f472b6"/>
    <text x="575.905" y="820.675" style="fill:#fb7185;font-size:11px">1.0M (+81%)</text>
   </g>
   <text x="570.000" y="28" style="fill:#f8fafc;font-size:20px;font-weight:600;text-anchor:middle">Common prompt median token use, Codex GPT-5.6 terra</text>
   <text x="570.000" y="874" style="fill:#cbd5e1;font-size:13px;text-anchor:middle">Tokens</text>
   <g id="legend_1">
   <g>
    <rect x="124" y="49" width="14" height="9" style="fill:#94a3b8"/>
    <text x="144" y="58" style="fill:#cbd5e1;font-size:12px">baseline</text>
   </g>
   <g>
    <rect x="219.76" y="49" width="14" height="9" style="fill:#22d3ee"/>
    <text x="239.76" y="58" style="fill:#cbd5e1;font-size:12px">@ttsc/graph</text>
   </g>
   <g>
    <rect x="335.68" y="49" width="14" height="9" style="fill:#f59e0b"/>
    <text x="355.68" y="58" style="fill:#cbd5e1;font-size:12px">codegraph</text>
   </g>
   <g>
    <rect x="438.16" y="49" width="14" height="9" style="fill:#a3e635"/>
    <text x="458.16" y="58" style="fill:#cbd5e1;font-size:12px">codebase-memory</text>
   </g>
   <g>
    <rect x="580.96" y="49" width="14" height="9" style="fill:#f472b6"/>
    <text x="600.96" y="58" style="fill:#cbd5e1;font-size:12px">serena</text>
   </g>
  </g>
   <text x="124" y="80" style="fill:#94a3b8;font-size:12px">Lower is better. Percentage is versus the no-MCP baseline.</text>
  </g>
 </g>
</svg>
