<?xml version="1.0" encoding="utf-8" standalone="no"?>
<svg xmlns="http://www.w3.org/2000/svg" width="1040" height="760" viewBox="0 0 1040 760" version="1.1" role="img" aria-label="Cold index build time (lower is better)">
 <rect width="1040" height="760" fill="#0b0f14"/>
 <text x="40" y="46" fill="#f8fafc" font-size="20" font-weight="bold" font-family="DejaVu Sans, Arial, sans-serif">Cold index build time (lower is better)</text>
 <text x="40" y="68" fill="#64748b" font-size="12" font-family="DejaVu Sans, Arial, sans-serif">AMD Ryzen 9 7940HS w/ Radeon 780M Graphics, 16 cores, 31 GB — Windows_NT 10.0.26200</text>
 <text x="40" y="738" fill="#64748b" font-size="11" font-family="DejaVu Sans, Arial, sans-serif">Every tool builds the index its own documentation prescribes; repositories are ordered by the size of the program each was built from.</text>
  <rect x="160" y="80" width="12" height="12" fill="#22d3ee" rx="2"/>
  <text x="178" y="90" fill="#cbd5f5" font-size="12">@ttsc/graph</text>
  <rect x="360" y="80" width="12" height="12" fill="#f59e0b" rx="2"/>
  <text x="378" y="90" fill="#cbd5f5" font-size="12">codegraph</text>
  <rect x="560" y="80" width="12" height="12" fill="#4ade80" rx="2"/>
  <text x="578" y="90" fill="#cbd5f5" font-size="12">codebase-memory</text>
  <rect x="760" y="80" width="12" height="12" fill="#e879f9" rx="2"/>
  <text x="778" y="90" fill="#cbd5f5" font-size="12">serena</text>
  <line x1="160.0" y1="120" x2="160.0" y2="690" stroke="#1f2937" stroke-width="1"/>
  <text x="160.0" y="712" fill="#94a3b8" font-size="12" text-anchor="middle">0 ms</text>
  <line x1="367.5" y1="120" x2="367.5" y2="690" stroke="#1f2937" stroke-width="1"/>
  <text x="367.5" y="712" fill="#94a3b8" font-size="12" text-anchor="middle">4.2 min</text>
  <line x1="575.0" y1="120" x2="575.0" y2="690" stroke="#1f2937" stroke-width="1"/>
  <text x="575.0" y="712" fill="#94a3b8" font-size="12" text-anchor="middle">8.3 min</text>
  <line x1="782.5" y1="120" x2="782.5" y2="690" stroke="#1f2937" stroke-width="1"/>
  <text x="782.5" y="712" fill="#94a3b8" font-size="12" text-anchor="middle">12.5 min</text>
  <line x1="990.0" y1="120" x2="990.0" y2="690" stroke="#1f2937" stroke-width="1"/>
  <text x="990.0" y="712" fill="#94a3b8" font-size="12" text-anchor="middle">16.7 min</text>
  <text x="148" y="151.6" fill="#e2e8f0" font-size="13" text-anchor="end">shopping</text>
  <text x="148" y="167.6" fill="#64748b" font-size="10" text-anchor="end">51,478 lines</text>
  <rect x="160" y="125.6" width="0.8" height="11" fill="#22d3ee" rx="2"/>
  <text x="168.8" y="135.6" fill="#22d3ee" font-size="11">1 s</text>
  <rect x="160" y="140.6" width="7.8" height="11" fill="#f59e0b" rx="2"/>
  <text x="175.8" y="150.6" fill="#f59e0b" font-size="11">9 s</text>
  <rect x="160" y="155.6" width="0.7" height="11" fill="#4ade80" rx="2"/>
  <text x="168.7" y="165.6" fill="#4ade80" font-size="11">792 ms</text>
  <rect x="160" y="170.6" width="10.6" height="11" fill="#e879f9" rx="2"/>
  <text x="178.6" y="180.6" fill="#e879f9" font-size="11">13 s</text>
  <text x="148" y="222.9" fill="#e2e8f0" font-size="13" text-anchor="end">zod</text>
  <text x="148" y="238.9" fill="#64748b" font-size="10" text-anchor="end">79,306 lines</text>
  <rect x="160" y="196.9" width="1.3" height="11" fill="#22d3ee" rx="2"/>
  <text x="169.3" y="206.9" fill="#22d3ee" font-size="11">2 s</text>
  <rect x="160" y="211.9" width="8.5" height="11" fill="#f59e0b" rx="2"/>
  <text x="176.5" y="221.9" fill="#f59e0b" font-size="11">10 s</text>
  <rect x="160" y="226.9" width="0.7" height="11" fill="#4ade80" rx="2"/>
  <text x="168.7" y="236.9" fill="#4ade80" font-size="11">839 ms</text>
  <rect x="160" y="241.9" width="8.0" height="11" fill="#e879f9" rx="2"/>
  <text x="176.0" y="251.9" fill="#e879f9" font-size="11">10 s</text>
  <text x="148" y="294.1" fill="#e2e8f0" font-size="13" text-anchor="end">nestjs</text>
  <text x="148" y="310.1" fill="#64748b" font-size="10" text-anchor="end">88,775 lines</text>
  <rect x="160" y="268.1" width="0.9" height="11" fill="#22d3ee" rx="2"/>
  <text x="168.9" y="278.1" fill="#22d3ee" font-size="11">1 s</text>
  <rect x="160" y="283.1" width="17.1" height="11" fill="#f59e0b" rx="2"/>
  <text x="185.1" y="293.1" fill="#f59e0b" font-size="11">21 s</text>
  <rect x="160" y="298.1" width="1.2" height="11" fill="#4ade80" rx="2"/>
  <text x="169.2" y="308.1" fill="#4ade80" font-size="11">1 s</text>
  <rect x="160" y="313.1" width="14.8" height="11" fill="#e879f9" rx="2"/>
  <text x="182.8" y="323.1" fill="#e879f9" font-size="11">18 s</text>
  <text x="148" y="365.4" fill="#e2e8f0" font-size="13" text-anchor="end">rxjs</text>
  <text x="148" y="381.4" fill="#64748b" font-size="10" text-anchor="end">91,238 lines</text>
  <rect x="160" y="339.4" width="0.7" height="11" fill="#22d3ee" rx="2"/>
  <text x="168.7" y="349.4" fill="#22d3ee" font-size="11">812 ms</text>
  <rect x="160" y="354.4" width="13.4" height="11" fill="#f59e0b" rx="2"/>
  <text x="181.4" y="364.4" fill="#f59e0b" font-size="11">16 s</text>
  <rect x="160" y="369.4" width="1.1" height="11" fill="#4ade80" rx="2"/>
  <text x="169.1" y="379.4" fill="#4ade80" font-size="11">1 s</text>
  <rect x="160" y="384.4" width="12.3" height="11" fill="#e879f9" rx="2"/>
  <text x="180.3" y="394.4" fill="#e879f9" font-size="11">15 s</text>
  <text x="148" y="436.6" fill="#e2e8f0" font-size="13" text-anchor="end">vue</text>
  <text x="148" y="452.6" fill="#64748b" font-size="10" text-anchor="end">151,184 lines</text>
  <rect x="160" y="410.6" width="1.7" height="11" fill="#22d3ee" rx="2"/>
  <text x="169.7" y="420.6" fill="#22d3ee" font-size="11">2 s</text>
  <rect x="160" y="425.6" width="10.3" height="11" fill="#f59e0b" rx="2"/>
  <text x="178.3" y="435.6" fill="#f59e0b" font-size="11">12 s</text>
  <rect x="160" y="440.6" width="0.9" height="11" fill="#4ade80" rx="2"/>
  <text x="168.9" y="450.6" fill="#4ade80" font-size="11">1 s</text>
  <rect x="160" y="455.6" width="10.4" height="11" fill="#e879f9" rx="2"/>
  <text x="178.4" y="465.6" fill="#e879f9" font-size="11">13 s</text>
  <text x="148" y="507.9" fill="#e2e8f0" font-size="13" text-anchor="end">excalidraw</text>
  <text x="148" y="523.9" fill="#64748b" font-size="10" text-anchor="end">172,012 lines</text>
  <rect x="160" y="481.9" width="1.6" height="11" fill="#22d3ee" rx="2"/>
  <text x="169.6" y="491.9" fill="#22d3ee" font-size="11">2 s</text>
  <rect x="160" y="496.9" width="14.8" height="11" fill="#f59e0b" rx="2"/>
  <text x="182.8" y="506.9" fill="#f59e0b" font-size="11">18 s</text>
  <rect x="160" y="511.9" width="1.6" height="11" fill="#4ade80" rx="2"/>
  <text x="169.6" y="521.9" fill="#4ade80" font-size="11">2 s</text>
  <rect x="160" y="526.9" width="12.2" height="11" fill="#e879f9" rx="2"/>
  <text x="180.2" y="536.9" fill="#e879f9" font-size="11">15 s</text>
  <text x="148" y="579.1" fill="#e2e8f0" font-size="13" text-anchor="end">typeorm</text>
  <text x="148" y="595.1" fill="#64748b" font-size="10" text-anchor="end">299,837 lines</text>
  <rect x="160" y="553.1" width="2.0" height="11" fill="#22d3ee" rx="2"/>
  <text x="170.0" y="563.1" fill="#22d3ee" font-size="11">2 s</text>
  <rect x="160" y="568.1" width="45.9" height="11" fill="#f59e0b" rx="2"/>
  <text x="213.9" y="578.1" fill="#f59e0b" font-size="11">55 s</text>
  <rect x="160" y="583.1" width="2.5" height="11" fill="#4ade80" rx="2"/>
  <text x="170.5" y="593.1" fill="#4ade80" font-size="11">3 s</text>
  <rect x="160" y="598.1" width="24.0" height="11" fill="#e879f9" rx="2"/>
  <text x="192.0" y="608.1" fill="#e879f9" font-size="11">29 s</text>
  <text x="148" y="650.4" fill="#e2e8f0" font-size="13" text-anchor="end">vscode</text>
  <text x="148" y="666.4" fill="#64748b" font-size="10" text-anchor="end">3,094,212 lines</text>
  <rect x="160" y="624.4" width="23.8" height="11" fill="#22d3ee" rx="2"/>
  <text x="191.8" y="634.4" fill="#22d3ee" font-size="11">29 s</text>
  <rect x="160" y="639.4" width="607.1" height="11" fill="#f59e0b" rx="2"/>
  <text x="775.1" y="649.4" fill="#f59e0b" font-size="11">12.2 min</text>
  <rect x="160" y="654.4" width="98.6" height="11" fill="#4ade80" rx="2"/>
  <text x="266.6" y="664.4" fill="#4ade80" font-size="11">2.0 min</text>
  <rect x="160" y="669.4" width="227.4" height="11" fill="#e879f9" rx="2"/>
  <text x="395.4" y="679.4" fill="#e879f9" font-size="11">4.6 min</text>
</svg>
