<?xml version="1.0" encoding="utf-8" standalone="no"?>
<svg xmlns="http://www.w3.org/2000/svg" width="1240" height="390" viewBox="0 0 1240 390" version="1.1" role="img" aria-label="Shopping — cold time to a first answer (lower is better)">
 <defs><style type="text/css">text{font-family:DejaVu Sans, Arial, sans-serif}</style></defs>
 <rect width="1240" height="390" style="fill:#ffffff"/>
 <text x="36" y="48" style="fill:#102a43;font-size:27px;font-weight:700">Shopping — cold time to a first answer (lower is better)</text>
 <rect x="36" y="70" width="62" height="24" rx="4" style="fill:#3178c6;fill-opacity:0.35"/>
 <text x="67" y="87" style="fill:#102a43;font-size:13px;font-weight:700;text-anchor:middle">index</text>
 <rect x="98" y="70" width="52" height="24" rx="4" style="fill:#3178c6"/>
 <text x="124" y="87" style="fill:#ffffff;font-size:13px;font-weight:700;text-anchor:middle">LLM</text>
 <text x="164" y="88" style="fill:#64748b;font-size:15px">faded = index build, solid = LLM answering — each bar is labelled index / LLM</text>
 <rect x="28" y="132.0" width="1184.0" height="222.0" rx="10" style="fill:#e8f2fb;fill-opacity:0.8"/>
   <text x="60" y="162.0" style="fill:#102a43;font-size:22px;font-weight:700">Shopping</text>
   <text x="1204" y="161.0" style="fill:#94a3b8;font-size:15px;text-anchor:end">51,478 lines</text>
   <rect x="270" y="178.0" width="758.0" height="28" rx="2" style="fill:#e7f0f8;stroke:#c7dff4;stroke-width:1"/><rect x="270.0" y="178.0" width="490.6" height="28" style="fill:#94a3b8"/>
    <text x="60" y="198.0" style="fill:#64748b;font-size:18px">baseline</text>
    <text x="1204" y="198.0" style="fill:#526b82;font-size:18px;font-weight:500;text-anchor:end">0s / 129s</text>
    <rect x="268.0" y="216.0" width="762.0" height="32.0" rx="4" style="fill:none;stroke:#72afe6;stroke-opacity:0.18;stroke-width:3.5"/>
    <rect x="270" y="218.0" width="758.0" height="28" rx="2" style="fill:#e7f0f8;stroke:#72afe6;stroke-width:1.6"/><rect x="270" y="218.0" width="3.8" height="28" style="fill:#3178c6;fill-opacity:0.5"/><rect x="273.8" y="218.0" width="146.9" height="28" style="fill:#3178c6"/><g transform="translate(38.00 223.00) scale(1.125)" style="fill:none;stroke:#3178c6;stroke-width:1.5">
    <path d="M2.5 5.5 5.4 8l2.6-4 2.6 4 2.9-2.5-.8 6H3.3l-.8-6Z" style="stroke-linejoin:round"/>
    <path d="M3.5 12.5 h9" style="stroke-linecap:round"/>
   </g>
    <text x="60" y="238.0" style="fill:#3178c6;font-size:18px;font-weight:700">@ttsc/graph</text>
    <text x="1204" y="238.0" style="fill:#526b82;font-size:18px;font-weight:700;text-anchor:end">1.0s / 39s</text>
    <rect x="270" y="258.0" width="758.0" height="28" rx="2" style="fill:#e7f0f8;stroke:#c7dff4;stroke-width:1"/><rect x="270" y="258.0" width="35.6" height="28" style="fill:#d97706;fill-opacity:0.5"/><rect x="305.6" y="258.0" width="257.8" height="28" style="fill:#d97706"/>
    <text x="60" y="278.0" style="fill:#d97706;font-size:18px">codegraph</text>
    <text x="1204" y="278.0" style="fill:#526b82;font-size:18px;font-weight:500;text-anchor:end">9.4s / 68s</text>
    <rect x="270" y="298.0" width="758.0" height="28" rx="2" style="fill:#e7f0f8;stroke:#c7dff4;stroke-width:1"/><rect x="270" y="298.0" width="48.3" height="28" style="fill:#7e22ce;fill-opacity:0.5"/><rect x="318.3" y="298.0" width="632.3" height="28" style="fill:#7e22ce"/>
    <text x="60" y="318.0" style="fill:#7e22ce;font-size:18px">serena</text>
    <text x="1204" y="318.0" style="fill:#526b82;font-size:18px;font-weight:500;text-anchor:end">13s / 167s</text>
</svg>
