<?xml version="1.0" encoding="utf-8" standalone="no"?>
<svg xmlns="http://www.w3.org/2000/svg" width="1040" height="440" viewBox="0 0 1040 440" version="1.1" role="img" aria-label="vue — median tokens (common prompt). Codex GPT-5.6 sol. Lower is better; percentage is versus the no-MCP baseline.">
 <defs>
  <style type="text/css">
   *{stroke-linejoin:round;stroke-linecap:butt}
   text{font-family:DejaVu Sans, Arial, sans-serif}
  </style>
 </defs>
 <g>
  <path d="M 0 440 L 1040 440 L 1040 0 L 0 0 z" style="fill:#05070b"/>
  <text x="136" y="30" style="fill:#f8fafc;font-size:19px;font-weight:600">vue — median tokens (common prompt)</text>
  <text x="136" y="52" style="fill:#94a3b8;font-size:13px">Codex GPT-5.6 sol. Lower is better; percentage is versus the no-MCP baseline.</text>
  <path d="M 136 72 L 1016 72 L 1016 372 L 136 372 z" style="fill:#0b111a"/>
  <g>
   <path d="M 136.000 72 L 136.000 372" style="fill:none;stroke:#1f2937;stroke-width:0.7"/>
   <text x="136.000" y="390" style="fill:#cbd5e1;font-size:13px;text-anchor:middle">0</text>
  </g>
  <g>
   <path d="M 356.000 72 L 356.000 372" style="fill:none;stroke:#1f2937;stroke-width:0.7"/>
   <text x="356.000" y="390" style="fill:#cbd5e1;font-size:13px;text-anchor:middle">750k</text>
  </g>
  <g>
   <path d="M 576.000 72 L 576.000 372" style="fill:none;stroke:#1f2937;stroke-width:0.7"/>
   <text x="576.000" y="390" style="fill:#cbd5e1;font-size:13px;text-anchor:middle">1.5M</text>
  </g>
  <g>
   <path d="M 796.000 72 L 796.000 372" style="fill:none;stroke:#1f2937;stroke-width:0.7"/>
   <text x="796.000" y="390" style="fill:#cbd5e1;font-size:13px;text-anchor:middle">2.3M</text>
  </g>
  <g>
   <path d="M 1016.000 72 L 1016.000 372" style="fill:none;stroke:#1f2937;stroke-width:0.7"/>
   <text x="1016.000" y="390" style="fill:#cbd5e1;font-size:13px;text-anchor:middle">3M</text>
  </g>
  <path d="M 136 372 L 1016 372" style="fill:none;stroke:#64748b;stroke-width:0.8"/>
  <path d="M 136 72 L 136 372" style="fill:none;stroke:#64748b;stroke-width:0.8"/>
  <text x="576.000" y="416" style="fill:#cbd5e1;font-size:14px;text-anchor:middle">Tokens</text>
  <line x1="410.594" y1="72" x2="410.594" y2="372" style="stroke:#64748b;stroke-width:1;stroke-dasharray:4 4"/>
   <text x="414.594" y="86" style="fill:#94a3b8;font-size:12.5px">no-MCP baseline</text>
  <g>
    <text x="128" y="106.000" style="fill:#f8fafc;font-size:15px;font-weight:600;text-anchor:end">baseline</text>
    <rect x="136" y="87.000" width="274.594" height="30" style="fill:#94a3b8"/>
    <text x="418.594" y="106.000" style="fill:#cbd5e1;font-size:14px">936k</text>
   </g>
   <g>
    <text x="128" y="166.000" style="fill:#f8fafc;font-size:15px;font-weight:600;text-anchor:end">@ttsc/graph</text>
    <rect x="136" y="147.000" width="21.606" height="30" style="fill:#22d3ee"/>
    <text x="165.606" y="166.000" style="fill:#22d3ee;font-size:14px">74k (-92%)</text>
   </g>
   <g>
    <text x="128" y="226.000" style="fill:#f8fafc;font-size:15px;font-weight:600;text-anchor:end">codegraph</text>
    <rect x="136" y="207.000" width="331.917" height="30" style="fill:#f59e0b"/>
    <text x="475.917" y="226.000" style="fill:#fb7185;font-size:14px">1.1M (+21%)</text>
   </g>
   <g>
    <text x="128" y="286.000" style="fill:#f8fafc;font-size:15px;font-weight:600;text-anchor:end">codebase-memory</text>
    <rect x="136" y="267.000" width="411.976" height="30" style="fill:#a3e635"/>
    <text x="555.976" y="286.000" style="fill:#fb7185;font-size:14px">1.4M (+50%)</text>
   </g>
   <g>
    <text x="128" y="346.000" style="fill:#f8fafc;font-size:15px;font-weight:600;text-anchor:end">serena</text>
    <rect x="136" y="327.000" width="712.782" height="30" style="fill:#f472b6"/>
    <text x="856.782" y="346.000" style="fill:#fb7185;font-size:14px">2.4M (+160%)</text>
   </g>
 </g>
</svg>
