<?xml version="1.0" encoding="utf-8" standalone="no"?>
<svg xmlns="http://www.w3.org/2000/svg" width="1240" height="1884" viewBox="0 0 1240 1884" version="1.1" role="img" aria-label="Dedicated prompt median token use, Codex GPT-5.6 terra">
 <defs><style type="text/css">text{font-family:DejaVu Sans, Arial, sans-serif}</style></defs>
 <rect width="1240" height="1884" style="fill:#ffffff"/>
 <text x="36" y="48" style="fill:#102a43;font-size:27px;font-weight:700">Dedicated prompt median token use, Codex GPT-5.6 terra</text>
 <text x="36" y="78" style="fill:#64748b;font-size:15px">Lower is better</text>
 <rect x="28" y="100.0" width="1184.0" height="208.0" rx="10" style="fill:#e8f2fb;fill-opacity:0.8"/>
   <text x="60" y="130.0" style="fill:#102a43;font-size:22px;font-weight:700">Excalidraw</text>
   <rect x="270" y="144.0" width="758.0" height="20" rx="10.0" style="fill:#e7f0f8;stroke:#c7dff4;stroke-width:1"/><rect x="270" y="144.0" width="495.5" height="20" rx="10.0" style="fill:#94a3b8"/>
    <text x="60" y="160.0" style="fill:#64748b;font-size:17px">baseline</text>
    <text x="1204" y="160.0" style="fill:#526b82;font-size:17px;font-weight:500;text-anchor:end">1.3M tokens</text>
    <rect x="268.0" y="172.0" width="762.0" height="24.0" rx="12.0" style="fill:none;stroke:#72afe6;stroke-opacity:0.18;stroke-width:3.5"/>
    <rect x="270" y="174.0" width="758.0" height="20" rx="10.0" style="fill:#e7f0f8;stroke:#72afe6;stroke-width:1.6"/><rect x="270" y="174.0" width="19.6" height="20" rx="10.0" style="fill:#3178c6"/><g transform="translate(38.00 176.00) scale(1.000)" style="fill:none;stroke:#3178c6;stroke-width:1.5">
    <path d="M2.5 5.5 5.4 8l2.6-4 2.6 4 2.9-2.5-.8 6H3.3l-.8-6Z" style="stroke-linejoin:round"/>
    <path d="M3.5 12.5 h9" style="stroke-linecap:round"/>
   </g>
    <text x="60" y="190.0" style="fill:#3178c6;font-size:17px;font-weight:700">@ttsc/graph</text>
    <text x="1204" y="190.0" style="fill:#3178c6;font-size:17px;font-weight:700;text-anchor:end">96% saved</text>
    <rect x="270" y="204.0" width="758.0" height="20" rx="10.0" style="fill:#e7f0f8;stroke:#c7dff4;stroke-width:1"/><rect x="270" y="204.0" width="480.5" height="20" rx="10.0" style="fill:#d97706"/>
    <text x="60" y="220.0" style="fill:#d97706;font-size:17px">codegraph</text>
    <text x="1204" y="220.0" style="fill:#526b82;font-size:17px;font-weight:500;text-anchor:end">3% saved</text>
    <rect x="270" y="234.0" width="758.0" height="20" rx="10.0" style="fill:#e7f0f8;stroke:#c7dff4;stroke-width:1"/><rect x="270" y="234.0" width="460.6" height="20" rx="10.0" style="fill:#15803d"/>
    <text x="60" y="250.0" style="fill:#15803d;font-size:17px">codebase-memory</text>
    <text x="1204" y="250.0" style="fill:#526b82;font-size:17px;font-weight:500;text-anchor:end">7% saved</text>
    <rect x="270" y="264.0" width="758.0" height="20" rx="10.0" style="fill:#e7f0f8;stroke:#c7dff4;stroke-width:1"/><rect x="270" y="264.0" width="362.6" height="20" rx="10.0" style="fill:#7e22ce"/>
    <text x="60" y="280.0" style="fill:#7e22ce;font-size:17px">serena</text>
    <text x="1204" y="280.0" style="fill:#526b82;font-size:17px;font-weight:500;text-anchor:end">27% saved</text>
  <rect x="28" y="320.0" width="1184.0" height="208.0" rx="10" style="fill:#e8f2fb;fill-opacity:0.4"/>
   <text x="60" y="350.0" style="fill:#102a43;font-size:22px;font-weight:700">NestJS</text>
   <rect x="270" y="364.0" width="758.0" height="20" rx="10.0" style="fill:#e7f0f8;stroke:#c7dff4;stroke-width:1"/><rect x="270" y="364.0" width="124.9" height="20" rx="10.0" style="fill:#94a3b8"/>
    <text x="60" y="380.0" style="fill:#64748b;font-size:17px">baseline</text>
    <text x="1204" y="380.0" style="fill:#526b82;font-size:17px;font-weight:500;text-anchor:end">330k tokens</text>
    <rect x="268.0" y="392.0" width="762.0" height="24.0" rx="12.0" style="fill:none;stroke:#72afe6;stroke-opacity:0.18;stroke-width:3.5"/>
    <rect x="270" y="394.0" width="758.0" height="20" rx="10.0" style="fill:#e7f0f8;stroke:#72afe6;stroke-width:1.6"/><rect x="270" y="394.0" width="16.6" height="20" rx="10.0" style="fill:#3178c6"/><g transform="translate(38.00 396.00) scale(1.000)" style="fill:none;stroke:#3178c6;stroke-width:1.5">
    <path d="M2.5 5.5 5.4 8l2.6-4 2.6 4 2.9-2.5-.8 6H3.3l-.8-6Z" style="stroke-linejoin:round"/>
    <path d="M3.5 12.5 h9" style="stroke-linecap:round"/>
   </g>
    <text x="60" y="410.0" style="fill:#3178c6;font-size:17px;font-weight:700">@ttsc/graph</text>
    <text x="1204" y="410.0" style="fill:#3178c6;font-size:17px;font-weight:700;text-anchor:end">87% saved</text>
    <rect x="270" y="424.0" width="758.0" height="20" rx="10.0" style="fill:#e7f0f8;stroke:#c7dff4;stroke-width:1"/><rect x="270" y="424.0" width="98.5" height="20" rx="10.0" style="fill:#d97706"/>
    <text x="60" y="440.0" style="fill:#d97706;font-size:17px">codegraph</text>
    <text x="1204" y="440.0" style="fill:#526b82;font-size:17px;font-weight:500;text-anchor:end">21% saved</text>
    <rect x="270" y="454.0" width="758.0" height="20" rx="10.0" style="fill:#e7f0f8;stroke:#c7dff4;stroke-width:1"/><rect x="270" y="454.0" width="272.2" height="20" rx="10.0" style="fill:#15803d"/>
    <text x="60" y="470.0" style="fill:#15803d;font-size:17px">codebase-memory</text>
    <text x="1204" y="470.0" style="fill:#be123c;font-size:17px;font-weight:500;text-anchor:end">118% over</text>
    <rect x="270" y="484.0" width="758.0" height="20" rx="10.0" style="fill:#e7f0f8;stroke:#c7dff4;stroke-width:1"/><rect x="270" y="484.0" width="198.7" height="20" rx="10.0" style="fill:#7e22ce"/>
    <text x="60" y="500.0" style="fill:#7e22ce;font-size:17px">serena</text>
    <text x="1204" y="500.0" style="fill:#be123c;font-size:17px;font-weight:500;text-anchor:end">59% over</text>
  <rect x="28" y="540.0" width="1184.0" height="208.0" rx="10" style="fill:#e8f2fb;fill-opacity:0.8"/>
   <text x="60" y="570.0" style="fill:#102a43;font-size:22px;font-weight:700">RxJS</text>
   <rect x="270" y="584.0" width="758.0" height="20" rx="10.0" style="fill:#e7f0f8;stroke:#c7dff4;stroke-width:1"/><rect x="270" y="584.0" width="96.3" height="20" rx="10.0" style="fill:#94a3b8"/>
    <text x="60" y="600.0" style="fill:#64748b;font-size:17px">baseline</text>
    <text x="1204" y="600.0" style="fill:#526b82;font-size:17px;font-weight:500;text-anchor:end">254k tokens</text>
    <rect x="268.0" y="612.0" width="762.0" height="24.0" rx="12.0" style="fill:none;stroke:#72afe6;stroke-opacity:0.18;stroke-width:3.5"/>
    <rect x="270" y="614.0" width="758.0" height="20" rx="10.0" style="fill:#e7f0f8;stroke:#72afe6;stroke-width:1.6"/><rect x="270" y="614.0" width="19.1" height="20" rx="10.0" style="fill:#3178c6"/><g transform="translate(38.00 616.00) scale(1.000)" style="fill:none;stroke:#3178c6;stroke-width:1.5">
    <path d="M2.5 5.5 5.4 8l2.6-4 2.6 4 2.9-2.5-.8 6H3.3l-.8-6Z" style="stroke-linejoin:round"/>
    <path d="M3.5 12.5 h9" style="stroke-linecap:round"/>
   </g>
    <text x="60" y="630.0" style="fill:#3178c6;font-size:17px;font-weight:700">@ttsc/graph</text>
    <text x="1204" y="630.0" style="fill:#3178c6;font-size:17px;font-weight:700;text-anchor:end">80% saved</text>
    <rect x="270" y="644.0" width="758.0" height="20" rx="10.0" style="fill:#e7f0f8;stroke:#c7dff4;stroke-width:1"/><rect x="270" y="644.0" width="68.2" height="20" rx="10.0" style="fill:#d97706"/>
    <text x="60" y="660.0" style="fill:#d97706;font-size:17px">codegraph</text>
    <text x="1204" y="660.0" style="fill:#526b82;font-size:17px;font-weight:500;text-anchor:end">29% saved</text>
    <rect x="270" y="674.0" width="758.0" height="20" rx="10.0" style="fill:#e7f0f8;stroke:#c7dff4;stroke-width:1"/><rect x="270" y="674.0" width="101.4" height="20" rx="10.0" style="fill:#15803d"/>
    <text x="60" y="690.0" style="fill:#15803d;font-size:17px">codebase-memory</text>
    <text x="1204" y="690.0" style="fill:#be123c;font-size:17px;font-weight:500;text-anchor:end">5% over</text>
    <rect x="270" y="704.0" width="758.0" height="20" rx="10.0" style="fill:#e7f0f8;stroke:#c7dff4;stroke-width:1"/><rect x="270" y="704.0" width="148.8" height="20" rx="10.0" style="fill:#7e22ce"/>
    <text x="60" y="720.0" style="fill:#7e22ce;font-size:17px">serena</text>
    <text x="1204" y="720.0" style="fill:#be123c;font-size:17px;font-weight:500;text-anchor:end">54% over</text>
  <rect x="28" y="760.0" width="1184.0" height="208.0" rx="10" style="fill:#e8f2fb;fill-opacity:0.4"/>
   <text x="60" y="790.0" style="fill:#102a43;font-size:22px;font-weight:700">Shopping</text>
   <rect x="270" y="804.0" width="758.0" height="20" rx="10.0" style="fill:#e7f0f8;stroke:#c7dff4;stroke-width:1"/><rect x="270" y="804.0" width="256.7" height="20" rx="10.0" style="fill:#94a3b8"/>
    <text x="60" y="820.0" style="fill:#64748b;font-size:17px">baseline</text>
    <text x="1204" y="820.0" style="fill:#526b82;font-size:17px;font-weight:500;text-anchor:end">677k tokens</text>
    <rect x="268.0" y="832.0" width="762.0" height="24.0" rx="12.0" style="fill:none;stroke:#72afe6;stroke-opacity:0.18;stroke-width:3.5"/>
    <rect x="270" y="834.0" width="758.0" height="20" rx="10.0" style="fill:#e7f0f8;stroke:#72afe6;stroke-width:1.6"/><rect x="270" y="834.0" width="16.7" height="20" rx="10.0" style="fill:#3178c6"/><g transform="translate(38.00 836.00) scale(1.000)" style="fill:none;stroke:#3178c6;stroke-width:1.5">
    <path d="M2.5 5.5 5.4 8l2.6-4 2.6 4 2.9-2.5-.8 6H3.3l-.8-6Z" style="stroke-linejoin:round"/>
    <path d="M3.5 12.5 h9" style="stroke-linecap:round"/>
   </g>
    <text x="60" y="850.0" style="fill:#3178c6;font-size:17px;font-weight:700">@ttsc/graph</text>
    <text x="1204" y="850.0" style="fill:#3178c6;font-size:17px;font-weight:700;text-anchor:end">93% saved</text>
    <rect x="270" y="864.0" width="758.0" height="20" rx="10.0" style="fill:#e7f0f8;stroke:#c7dff4;stroke-width:1"/><rect x="270" y="864.0" width="84.7" height="20" rx="10.0" style="fill:#d97706"/>
    <text x="60" y="880.0" style="fill:#d97706;font-size:17px">codegraph</text>
    <text x="1204" y="880.0" style="fill:#526b82;font-size:17px;font-weight:500;text-anchor:end">67% saved</text>
    <rect x="270" y="894.0" width="758.0" height="20" rx="10.0" style="fill:#e7f0f8;stroke:#c7dff4;stroke-width:1"/>
    <text x="60" y="910.0" style="fill:#15803d;font-size:17px">codebase-memory</text>
    <text x="1204" y="910.0" style="fill:#64748b;font-size:17px;font-weight:500;text-anchor:end">no data</text>
    <rect x="270" y="924.0" width="758.0" height="20" rx="10.0" style="fill:#e7f0f8;stroke:#c7dff4;stroke-width:1"/><rect x="270" y="924.0" width="194.6" height="20" rx="10.0" style="fill:#7e22ce"/>
    <text x="60" y="940.0" style="fill:#7e22ce;font-size:17px">serena</text>
    <text x="1204" y="940.0" style="fill:#526b82;font-size:17px;font-weight:500;text-anchor:end">24% saved</text>
  <rect x="28" y="980.0" width="1184.0" height="208.0" rx="10" style="fill:#e8f2fb;fill-opacity:0.8"/>
   <text x="60" y="1010.0" style="fill:#102a43;font-size:22px;font-weight:700">TypeORM</text>
   <rect x="270" y="1024.0" width="758.0" height="20" rx="10.0" style="fill:#e7f0f8;stroke:#c7dff4;stroke-width:1"/><rect x="270" y="1024.0" width="109.5" height="20" rx="10.0" style="fill:#94a3b8"/>
    <text x="60" y="1040.0" style="fill:#64748b;font-size:17px">baseline</text>
    <text x="1204" y="1040.0" style="fill:#526b82;font-size:17px;font-weight:500;text-anchor:end">289k tokens</text>
    <rect x="268.0" y="1052.0" width="762.0" height="24.0" rx="12.0" style="fill:none;stroke:#72afe6;stroke-opacity:0.18;stroke-width:3.5"/>
    <rect x="270" y="1054.0" width="758.0" height="20" rx="10.0" style="fill:#e7f0f8;stroke:#72afe6;stroke-width:1.6"/><rect x="270" y="1054.0" width="20.3" height="20" rx="10.0" style="fill:#3178c6"/><g transform="translate(38.00 1056.00) scale(1.000)" style="fill:none;stroke:#3178c6;stroke-width:1.5">
    <path d="M2.5 5.5 5.4 8l2.6-4 2.6 4 2.9-2.5-.8 6H3.3l-.8-6Z" style="stroke-linejoin:round"/>
    <path d="M3.5 12.5 h9" style="stroke-linecap:round"/>
   </g>
    <text x="60" y="1070.0" style="fill:#3178c6;font-size:17px;font-weight:700">@ttsc/graph</text>
    <text x="1204" y="1070.0" style="fill:#3178c6;font-size:17px;font-weight:700;text-anchor:end">81% saved</text>
    <rect x="270" y="1084.0" width="758.0" height="20" rx="10.0" style="fill:#e7f0f8;stroke:#c7dff4;stroke-width:1"/><rect x="270" y="1084.0" width="93.5" height="20" rx="10.0" style="fill:#d97706"/>
    <text x="60" y="1100.0" style="fill:#d97706;font-size:17px">codegraph</text>
    <text x="1204" y="1100.0" style="fill:#526b82;font-size:17px;font-weight:500;text-anchor:end">15% saved</text>
    <rect x="270" y="1114.0" width="758.0" height="20" rx="10.0" style="fill:#e7f0f8;stroke:#c7dff4;stroke-width:1"/><rect x="270" y="1114.0" width="104.0" height="20" rx="10.0" style="fill:#15803d"/>
    <text x="60" y="1130.0" style="fill:#15803d;font-size:17px">codebase-memory</text>
    <text x="1204" y="1130.0" style="fill:#526b82;font-size:17px;font-weight:500;text-anchor:end">5% saved</text>
    <rect x="270" y="1144.0" width="758.0" height="20" rx="10.0" style="fill:#e7f0f8;stroke:#c7dff4;stroke-width:1"/><rect x="270" y="1144.0" width="86.7" height="20" rx="10.0" style="fill:#7e22ce"/>
    <text x="60" y="1160.0" style="fill:#7e22ce;font-size:17px">serena</text>
    <text x="1204" y="1160.0" style="fill:#526b82;font-size:17px;font-weight:500;text-anchor:end">21% saved</text>
  <rect x="28" y="1200.0" width="1184.0" height="208.0" rx="10" style="fill:#e8f2fb;fill-opacity:0.4"/>
   <text x="60" y="1230.0" style="fill:#102a43;font-size:22px;font-weight:700">VS Code</text>
   <rect x="270" y="1244.0" width="758.0" height="20" rx="10.0" style="fill:#e7f0f8;stroke:#c7dff4;stroke-width:1"/><rect x="270" y="1244.0" width="172.7" height="20" rx="10.0" style="fill:#94a3b8"/>
    <text x="60" y="1260.0" style="fill:#64748b;font-size:17px">baseline</text>
    <text x="1204" y="1260.0" style="fill:#526b82;font-size:17px;font-weight:500;text-anchor:end">456k tokens</text>
    <rect x="268.0" y="1272.0" width="762.0" height="24.0" rx="12.0" style="fill:none;stroke:#72afe6;stroke-opacity:0.18;stroke-width:3.5"/>
    <rect x="270" y="1274.0" width="758.0" height="20" rx="10.0" style="fill:#e7f0f8;stroke:#72afe6;stroke-width:1.6"/><rect x="270" y="1274.0" width="38.6" height="20" rx="10.0" style="fill:#3178c6"/><g transform="translate(38.00 1276.00) scale(1.000)" style="fill:none;stroke:#3178c6;stroke-width:1.5">
    <path d="M2.5 5.5 5.4 8l2.6-4 2.6 4 2.9-2.5-.8 6H3.3l-.8-6Z" style="stroke-linejoin:round"/>
    <path d="M3.5 12.5 h9" style="stroke-linecap:round"/>
   </g>
    <text x="60" y="1290.0" style="fill:#3178c6;font-size:17px;font-weight:700">@ttsc/graph</text>
    <text x="1204" y="1290.0" style="fill:#3178c6;font-size:17px;font-weight:700;text-anchor:end">78% saved</text>
    <rect x="270" y="1304.0" width="758.0" height="20" rx="10.0" style="fill:#e7f0f8;stroke:#c7dff4;stroke-width:1"/><rect x="270" y="1304.0" width="147.9" height="20" rx="10.0" style="fill:#d97706"/>
    <text x="60" y="1320.0" style="fill:#d97706;font-size:17px">codegraph</text>
    <text x="1204" y="1320.0" style="fill:#526b82;font-size:17px;font-weight:500;text-anchor:end">14% saved</text>
    <rect x="270" y="1334.0" width="758.0" height="20" rx="10.0" style="fill:#e7f0f8;stroke:#c7dff4;stroke-width:1"/><rect x="270" y="1334.0" width="102.0" height="20" rx="10.0" style="fill:#15803d"/>
    <text x="60" y="1350.0" style="fill:#15803d;font-size:17px">codebase-memory</text>
    <text x="1204" y="1350.0" style="fill:#526b82;font-size:17px;font-weight:500;text-anchor:end">41% saved</text>
    <rect x="270" y="1364.0" width="758.0" height="20" rx="10.0" style="fill:#e7f0f8;stroke:#c7dff4;stroke-width:1"/><rect x="270" y="1364.0" width="102.0" height="20" rx="10.0" style="fill:#7e22ce"/>
    <text x="60" y="1380.0" style="fill:#7e22ce;font-size:17px">serena</text>
    <text x="1204" y="1380.0" style="fill:#526b82;font-size:17px;font-weight:500;text-anchor:end">41% saved</text>
  <rect x="28" y="1420.0" width="1184.0" height="208.0" rx="10" style="fill:#e8f2fb;fill-opacity:0.8"/>
   <text x="60" y="1450.0" style="fill:#102a43;font-size:22px;font-weight:700">Vue</text>
   <rect x="270" y="1464.0" width="758.0" height="20" rx="10.0" style="fill:#e7f0f8;stroke:#c7dff4;stroke-width:1"/><rect x="270" y="1464.0" width="173.1" height="20" rx="10.0" style="fill:#94a3b8"/>
    <text x="60" y="1480.0" style="fill:#64748b;font-size:17px">baseline</text>
    <text x="1204" y="1480.0" style="fill:#526b82;font-size:17px;font-weight:500;text-anchor:end">457k tokens</text>
    <rect x="268.0" y="1492.0" width="762.0" height="24.0" rx="12.0" style="fill:none;stroke:#72afe6;stroke-opacity:0.18;stroke-width:3.5"/>
    <rect x="270" y="1494.0" width="758.0" height="20" rx="10.0" style="fill:#e7f0f8;stroke:#72afe6;stroke-width:1.6"/><rect x="270" y="1494.0" width="19.8" height="20" rx="10.0" style="fill:#3178c6"/><g transform="translate(38.00 1496.00) scale(1.000)" style="fill:none;stroke:#3178c6;stroke-width:1.5">
    <path d="M2.5 5.5 5.4 8l2.6-4 2.6 4 2.9-2.5-.8 6H3.3l-.8-6Z" style="stroke-linejoin:round"/>
    <path d="M3.5 12.5 h9" style="stroke-linecap:round"/>
   </g>
    <text x="60" y="1510.0" style="fill:#3178c6;font-size:17px;font-weight:700">@ttsc/graph</text>
    <text x="1204" y="1510.0" style="fill:#3178c6;font-size:17px;font-weight:700;text-anchor:end">89% saved</text>
    <rect x="270" y="1524.0" width="758.0" height="20" rx="10.0" style="fill:#e7f0f8;stroke:#c7dff4;stroke-width:1"/><rect x="270" y="1524.0" width="160.5" height="20" rx="10.0" style="fill:#d97706"/>
    <text x="60" y="1540.0" style="fill:#d97706;font-size:17px">codegraph</text>
    <text x="1204" y="1540.0" style="fill:#526b82;font-size:17px;font-weight:500;text-anchor:end">7% saved</text>
    <rect x="270" y="1554.0" width="758.0" height="20" rx="10.0" style="fill:#e7f0f8;stroke:#c7dff4;stroke-width:1"/><rect x="270" y="1554.0" width="116.3" height="20" rx="10.0" style="fill:#15803d"/>
    <text x="60" y="1570.0" style="fill:#15803d;font-size:17px">codebase-memory</text>
    <text x="1204" y="1570.0" style="fill:#526b82;font-size:17px;font-weight:500;text-anchor:end">33% saved</text>
    <rect x="270" y="1584.0" width="758.0" height="20" rx="10.0" style="fill:#e7f0f8;stroke:#c7dff4;stroke-width:1"/><rect x="270" y="1584.0" width="185.5" height="20" rx="10.0" style="fill:#7e22ce"/>
    <text x="60" y="1600.0" style="fill:#7e22ce;font-size:17px">serena</text>
    <text x="1204" y="1600.0" style="fill:#be123c;font-size:17px;font-weight:500;text-anchor:end">7% over</text>
  <rect x="28" y="1640.0" width="1184.0" height="208.0" rx="10" style="fill:#e8f2fb;fill-opacity:0.4"/>
   <text x="60" y="1670.0" style="fill:#102a43;font-size:22px;font-weight:700">Zod</text>
   <rect x="270" y="1684.0" width="758.0" height="20" rx="10.0" style="fill:#e7f0f8;stroke:#c7dff4;stroke-width:1"/><rect x="270" y="1684.0" width="265.4" height="20" rx="10.0" style="fill:#94a3b8"/>
    <text x="60" y="1700.0" style="fill:#64748b;font-size:17px">baseline</text>
    <text x="1204" y="1700.0" style="fill:#526b82;font-size:17px;font-weight:500;text-anchor:end">700k tokens</text>
    <rect x="268.0" y="1712.0" width="762.0" height="24.0" rx="12.0" style="fill:none;stroke:#72afe6;stroke-opacity:0.18;stroke-width:3.5"/>
    <rect x="270" y="1714.0" width="758.0" height="20" rx="10.0" style="fill:#e7f0f8;stroke:#72afe6;stroke-width:1.6"/><rect x="270" y="1714.0" width="15.0" height="20" rx="10.0" style="fill:#3178c6"/><g transform="translate(38.00 1716.00) scale(1.000)" style="fill:none;stroke:#3178c6;stroke-width:1.5">
    <path d="M2.5 5.5 5.4 8l2.6-4 2.6 4 2.9-2.5-.8 6H3.3l-.8-6Z" style="stroke-linejoin:round"/>
    <path d="M3.5 12.5 h9" style="stroke-linecap:round"/>
   </g>
    <text x="60" y="1730.0" style="fill:#3178c6;font-size:17px;font-weight:700">@ttsc/graph</text>
    <text x="1204" y="1730.0" style="fill:#3178c6;font-size:17px;font-weight:700;text-anchor:end">94% saved</text>
    <rect x="270" y="1744.0" width="758.0" height="20" rx="10.0" style="fill:#e7f0f8;stroke:#c7dff4;stroke-width:1"/><rect x="270" y="1744.0" width="99.3" height="20" rx="10.0" style="fill:#d97706"/>
    <text x="60" y="1760.0" style="fill:#d97706;font-size:17px">codegraph</text>
    <text x="1204" y="1760.0" style="fill:#526b82;font-size:17px;font-weight:500;text-anchor:end">63% saved</text>
    <rect x="270" y="1774.0" width="758.0" height="20" rx="10.0" style="fill:#e7f0f8;stroke:#c7dff4;stroke-width:1"/><rect x="270" y="1774.0" width="244.7" height="20" rx="10.0" style="fill:#15803d"/>
    <text x="60" y="1790.0" style="fill:#15803d;font-size:17px">codebase-memory</text>
    <text x="1204" y="1790.0" style="fill:#526b82;font-size:17px;font-weight:500;text-anchor:end">8% saved</text>
    <rect x="270" y="1804.0" width="758.0" height="20" rx="10.0" style="fill:#e7f0f8;stroke:#c7dff4;stroke-width:1"/><rect x="270" y="1804.0" width="145.0" height="20" rx="10.0" style="fill:#7e22ce"/>
    <text x="60" y="1820.0" style="fill:#7e22ce;font-size:17px">serena</text>
    <text x="1204" y="1820.0" style="fill:#526b82;font-size:17px;font-weight:500;text-anchor:end">45% saved</text>
</svg>
