<?xml version="1.0" encoding="utf-8" standalone="no"?>
<svg xmlns="http://www.w3.org/2000/svg" width="1040" height="440" viewBox="0 0 1040 440" version="1.1" role="img" aria-label="nestjs — median tokens (dedicated prompt). Codex GPT-5.6 terra. Lower is better; percentage is versus the no-MCP baseline.">
 <defs>
  <style type="text/css">
   *{stroke-linejoin:round;stroke-linecap:butt}
   text{font-family:DejaVu Sans, Arial, sans-serif}
  </style>
 </defs>
 <g>
  <path d="M 0 440 L 1040 440 L 1040 0 L 0 0 z" style="fill:#05070b"/>
  <text x="136" y="30" style="fill:#f8fafc;font-size:19px;font-weight:600">nestjs — median tokens (dedicated prompt)</text>
  <text x="136" y="52" style="fill:#94a3b8;font-size:13px">Codex GPT-5.6 terra. Lower is better; percentage is versus the no-MCP baseline.</text>
  <path d="M 136 72 L 1016 72 L 1016 372 L 136 372 z" style="fill:#0b111a"/>
  <g>
   <path d="M 136.000 72 L 136.000 372" style="fill:none;stroke:#1f2937;stroke-width:0.7"/>
   <text x="136.000" y="390" style="fill:#cbd5e1;font-size:13px;text-anchor:middle">0</text>
  </g>
  <g>
   <path d="M 356.000 72 L 356.000 372" style="fill:none;stroke:#1f2937;stroke-width:0.7"/>
   <text x="356.000" y="390" style="fill:#cbd5e1;font-size:13px;text-anchor:middle">250k</text>
  </g>
  <g>
   <path d="M 576.000 72 L 576.000 372" style="fill:none;stroke:#1f2937;stroke-width:0.7"/>
   <text x="576.000" y="390" style="fill:#cbd5e1;font-size:13px;text-anchor:middle">500k</text>
  </g>
  <g>
   <path d="M 796.000 72 L 796.000 372" style="fill:none;stroke:#1f2937;stroke-width:0.7"/>
   <text x="796.000" y="390" style="fill:#cbd5e1;font-size:13px;text-anchor:middle">750k</text>
  </g>
  <g>
   <path d="M 1016.000 72 L 1016.000 372" style="fill:none;stroke:#1f2937;stroke-width:0.7"/>
   <text x="1016.000" y="390" style="fill:#cbd5e1;font-size:13px;text-anchor:middle">1M</text>
  </g>
  <path d="M 136 372 L 1016 372" style="fill:none;stroke:#64748b;stroke-width:0.8"/>
  <path d="M 136 72 L 136 372" style="fill:none;stroke:#64748b;stroke-width:0.8"/>
  <text x="576.000" y="416" style="fill:#cbd5e1;font-size:14px;text-anchor:middle">Tokens</text>
  <line x1="426.005" y1="72" x2="426.005" y2="372" style="stroke:#64748b;stroke-width:1;stroke-dasharray:4 4"/>
   <text x="430.005" y="86" style="fill:#94a3b8;font-size:12.5px">no-MCP baseline</text>
  <g>
    <text x="128" y="106.000" style="fill:#f8fafc;font-size:15px;font-weight:600;text-anchor:end">baseline</text>
    <rect x="136" y="87.000" width="290.005" height="30" style="fill:#94a3b8"/>
    <text x="434.005" y="106.000" style="fill:#cbd5e1;font-size:14px">330k</text>
   </g>
   <g>
    <text x="128" y="166.000" style="fill:#f8fafc;font-size:15px;font-weight:600;text-anchor:end">@ttsc/graph</text>
    <rect x="136" y="147.000" width="38.628" height="30" style="fill:#22d3ee"/>
    <text x="182.628" y="166.000" style="fill:#22d3ee;font-size:14px">44k (-87%)</text>
   </g>
   <g>
    <text x="128" y="226.000" style="fill:#f8fafc;font-size:15px;font-weight:600;text-anchor:end">codegraph</text>
    <rect x="136" y="207.000" width="228.747" height="30" style="fill:#f59e0b"/>
    <text x="372.747" y="226.000" style="fill:#f59e0b;font-size:14px">260k (-21%)</text>
   </g>
   <g>
    <text x="128" y="286.000" style="fill:#f8fafc;font-size:15px;font-weight:600;text-anchor:end">codebase-memory</text>
    <rect x="136" y="267.000" width="632.113" height="30" style="fill:#a3e635"/>
    <text x="776.113" y="286.000" style="fill:#fb7185;font-size:14px">718k (+118%)</text>
   </g>
   <g>
    <text x="128" y="346.000" style="fill:#f8fafc;font-size:15px;font-weight:600;text-anchor:end">serena</text>
    <rect x="136" y="327.000" width="461.390" height="30" style="fill:#f472b6"/>
    <text x="605.390" y="346.000" style="fill:#fb7185;font-size:14px">524k (+59%)</text>
   </g>
 </g>
</svg>
