<?xml version="1.0" encoding="utf-8" standalone="no"?>
<svg xmlns="http://www.w3.org/2000/svg" width="1040" height="900" viewBox="0 0 1040 900" version="1.1" role="img" aria-label="Common prompt median token use, Codex GPT-5.5">
 <defs>
  <style type="text/css">
   *{stroke-linejoin:round;stroke-linecap:butt}
   text{font-family:DejaVu Sans, Arial, sans-serif}
  </style>
 </defs>
 <g id="figure_1">
  <g id="patch_1">
   <path d="M 0 900 L 1040 900 L 1040 0 L 0 0 z" style="fill:#05070b"/>
  </g>
  <g id="axes_1">
   <path d="M 124 116 L 1016 116 L 1016 830 L 124 830 z" style="fill:#0b111a"/>
   <path d="M 124 830 L 1016 830" style="fill:none;stroke:#64748b;stroke-width:0.8"/>
   <path d="M 124 116 L 124 830" style="fill:none;stroke:#64748b;stroke-width:0.8"/>
   <g>
    <path d="M 124.000 116 L 124.000 830" style="fill:none;stroke:#1f2937;stroke-width:0.7"/>
    <text x="124.000" y="848" style="fill:#cbd5e1;font-size:11px;text-anchor:middle">0</text>
   </g>
   <g>
    <path d="M 347.000 116 L 347.000 830" style="fill:none;stroke:#1f2937;stroke-width:0.7"/>
    <text x="347.000" y="848" style="fill:#cbd5e1;font-size:11px;text-anchor:middle">500k</text>
   </g>
   <g>
    <path d="M 570.000 116 L 570.000 830" style="fill:none;stroke:#1f2937;stroke-width:0.7"/>
    <text x="570.000" y="848" style="fill:#cbd5e1;font-size:11px;text-anchor:middle">1M</text>
   </g>
   <g>
    <path d="M 793.000 116 L 793.000 830" style="fill:none;stroke:#1f2937;stroke-width:0.7"/>
    <text x="793.000" y="848" style="fill:#cbd5e1;font-size:11px;text-anchor:middle">1.5M</text>
   </g>
   <g>
    <path d="M 1016.000 116 L 1016.000 830" style="fill:none;stroke:#1f2937;stroke-width:0.7"/>
    <text x="1016.000" y="848" style="fill:#cbd5e1;font-size:11px;text-anchor:middle">2M</text>
   </g>
   <g>
    <path d="M 18 205.250 L 1016 205.250" style="fill:none;stroke:#1f2937;stroke-width:0.6"/>
    <text x="108" y="163.625" style="fill:#f8fafc;font-size:13px;font-weight:600;text-anchor:end">excalidraw</text>
    <rect x="124" y="133.625" width="409.963" height="9" style="fill:#94a3b8"/>
    <text x="538.963" y="141.925" style="fill:#cbd5e1;font-size:11px">919k</text>
    <rect x="124" y="147.125" width="20.211" height="9" style="fill:#22d3ee"/>
    <text x="149.211" y="155.425" style="fill:#22d3ee;font-size:11px;font-weight:700">45k (-95%)</text>
    <rect x="124" y="160.625" width="371.177" height="9" style="fill:#f59e0b"/>
    <text x="500.177" y="168.925" style="fill:#f59e0b;font-size:11px">832k (-9%)</text>
    <rect x="124" y="174.125" width="679.379" height="9" style="fill:#a3e635"/>
    <text x="808.379" y="182.425" style="fill:#fb7185;font-size:11px">1.5M (+66%)</text>
    <rect x="124" y="187.625" width="536.446" height="9" style="fill:#f472b6"/>
    <text x="665.446" y="195.925" style="fill:#fb7185;font-size:11px">1.2M (+31%)</text>
   </g>
   <g>
    <path d="M 18 294.500 L 1016 294.500" style="fill:none;stroke:#1f2937;stroke-width:0.6"/>
    <text x="108" y="252.875" style="fill:#f8fafc;font-size:13px;font-weight:600;text-anchor:end">nestjs</text>
    <rect x="124" y="222.875" width="274.708" height="9" style="fill:#94a3b8"/>
    <text x="403.708" y="231.175" style="fill:#cbd5e1;font-size:11px">616k</text>
    <rect x="124" y="236.375" width="18.825" height="9" style="fill:#22d3ee"/>
    <text x="147.825" y="244.675" style="fill:#22d3ee;font-size:11px;font-weight:700">42k (-93%)</text>
    <rect x="124" y="249.875" width="217.702" height="9" style="fill:#f59e0b"/>
    <text x="346.702" y="258.175" style="fill:#f59e0b;font-size:11px">488k (-21%)</text>
    <rect x="124" y="263.375" width="347.507" height="9" style="fill:#a3e635"/>
    <text x="476.507" y="271.675" style="fill:#fb7185;font-size:11px">779k (+27%)</text>
    <rect x="124" y="276.875" width="297.156" height="9" style="fill:#f472b6"/>
    <text x="426.156" y="285.175" style="fill:#fb7185;font-size:11px">666k (+8%)</text>
   </g>
   <g>
    <path d="M 18 383.750 L 1016 383.750" style="fill:none;stroke:#1f2937;stroke-width:0.6"/>
    <text x="108" y="342.125" style="fill:#f8fafc;font-size:13px;font-weight:600;text-anchor:end">rxjs</text>
    <rect x="124" y="312.125" width="233.804" height="9" style="fill:#94a3b8"/>
    <text x="362.804" y="320.425" style="fill:#cbd5e1;font-size:11px">524k</text>
    <rect x="124" y="325.625" width="18.308" height="9" style="fill:#22d3ee"/>
    <text x="147.308" y="333.925" style="fill:#22d3ee;font-size:11px;font-weight:700">41k (-92%)</text>
    <rect x="124" y="339.125" width="167.062" height="9" style="fill:#f59e0b"/>
    <text x="296.062" y="347.425" style="fill:#f59e0b;font-size:11px">375k (-29%)</text>
    <rect x="124" y="352.625" width="243.106" height="9" style="fill:#a3e635"/>
    <text x="372.106" y="360.925" style="fill:#fb7185;font-size:11px">545k (+4%)</text>
    <rect x="124" y="366.125" width="356.555" height="9" style="fill:#f472b6"/>
    <text x="485.555" y="374.425" style="fill:#fb7185;font-size:11px">799k (+53%)</text>
   </g>
   <g>
    <path d="M 18 473.000 L 1016 473.000" style="fill:none;stroke:#1f2937;stroke-width:0.6"/>
    <text x="108" y="431.375" style="fill:#f8fafc;font-size:13px;font-weight:600;text-anchor:end">shopping</text>
    <rect x="124" y="401.375" width="277.172" height="9" style="fill:#94a3b8"/>
    <text x="406.172" y="409.675" style="fill:#cbd5e1;font-size:11px">621k</text>
    <rect x="124" y="414.875" width="18.976" height="9" style="fill:#22d3ee"/>
    <text x="147.976" y="423.175" style="fill:#22d3ee;font-size:11px;font-weight:700">43k (-93%)</text>
    <rect x="124" y="428.375" width="193.987" height="9" style="fill:#f59e0b"/>
    <text x="322.987" y="436.675" style="fill:#f59e0b;font-size:11px">435k (-30%)</text>
    <rect x="124" y="441.875" width="314.736" height="9" style="fill:#a3e635"/>
    <text x="443.736" y="450.175" style="fill:#fb7185;font-size:11px">706k (+14%)</text>
    <rect x="124" y="455.375" width="223.132" height="9" style="fill:#f472b6"/>
    <text x="352.132" y="463.675" style="fill:#f472b6;font-size:11px">500k (-19%)</text>
   </g>
   <g>
    <path d="M 18 562.250 L 1016 562.250" style="fill:none;stroke:#1f2937;stroke-width:0.6"/>
    <text x="108" y="520.625" style="fill:#f8fafc;font-size:13px;font-weight:600;text-anchor:end">typeorm</text>
    <rect x="124" y="490.625" width="436.832" height="9" style="fill:#94a3b8"/>
    <text x="565.832" y="498.925" style="fill:#cbd5e1;font-size:11px">979k</text>
    <rect x="124" y="504.125" width="20.309" height="9" style="fill:#22d3ee"/>
    <text x="149.309" y="512.425" style="fill:#22d3ee;font-size:11px;font-weight:700">46k (-95%)</text>
    <rect x="124" y="517.625" width="640.743" height="9" style="fill:#f59e0b"/>
    <text x="769.743" y="525.925" style="fill:#fb7185;font-size:11px">1.4M (+47%)</text>
    <rect x="124" y="531.125" width="405.014" height="9" style="fill:#a3e635"/>
    <text x="534.014" y="539.425" style="fill:#a3e635;font-size:11px">908k (-7%)</text>
    <rect x="124" y="544.625" width="420.741" height="9" style="fill:#f472b6"/>
    <text x="549.741" y="552.925" style="fill:#f472b6;font-size:11px">943k (-4%)</text>
   </g>
   <g>
    <path d="M 18 651.500 L 1016 651.500" style="fill:none;stroke:#1f2937;stroke-width:0.6"/>
    <text x="108" y="609.875" style="fill:#f8fafc;font-size:13px;font-weight:600;text-anchor:end">vscode</text>
    <rect x="124" y="579.875" width="490.559" height="9" style="fill:#94a3b8"/>
    <text x="619.559" y="588.175" style="fill:#cbd5e1;font-size:11px">1.1M</text>
    <rect x="124" y="593.375" width="20.859" height="9" style="fill:#22d3ee"/>
    <text x="149.859" y="601.675" style="fill:#22d3ee;font-size:11px;font-weight:700">47k (-96%)</text>
    <rect x="124" y="606.875" width="599.298" height="9" style="fill:#f59e0b"/>
    <text x="728.298" y="615.175" style="fill:#fb7185;font-size:11px">1.3M (+22%)</text>
    <rect x="124" y="620.375" width="352.406" height="9" style="fill:#a3e635"/>
    <text x="481.406" y="628.675" style="fill:#a3e635;font-size:11px">790k (-28%)</text>
    <rect x="124" y="633.875" width="356.023" height="9" style="fill:#f472b6"/>
    <text x="485.023" y="642.175" style="fill:#f472b6;font-size:11px">798k (-27%)</text>
   </g>
   <g>
    <path d="M 18 740.750 L 1016 740.750" style="fill:none;stroke:#1f2937;stroke-width:0.6"/>
    <text x="108" y="699.125" style="fill:#f8fafc;font-size:13px;font-weight:600;text-anchor:end">vue</text>
    <rect x="124" y="669.125" width="241.550" height="9" style="fill:#94a3b8"/>
    <text x="370.550" y="677.425" style="fill:#cbd5e1;font-size:11px">542k</text>
    <rect x="124" y="682.625" width="19.421" height="9" style="fill:#22d3ee"/>
    <text x="148.421" y="690.925" style="fill:#22d3ee;font-size:11px;font-weight:700">44k (-92%)</text>
    <rect x="124" y="696.125" width="314.104" height="9" style="fill:#f59e0b"/>
    <text x="443.104" y="704.425" style="fill:#fb7185;font-size:11px">704k (+30%)</text>
    <rect x="124" y="709.625" width="232.888" height="9" style="fill:#a3e635"/>
    <text x="361.888" y="717.925" style="fill:#a3e635;font-size:11px">522k (-4%)</text>
    <rect x="124" y="723.125" width="348.739" height="9" style="fill:#f472b6"/>
    <text x="477.739" y="731.425" style="fill:#fb7185;font-size:11px">782k (+44%)</text>
   </g>
   <g>
    <path d="M 18 830.000 L 1016 830.000" style="fill:none;stroke:#1f2937;stroke-width:0.6"/>
    <text x="108" y="788.375" style="fill:#f8fafc;font-size:13px;font-weight:600;text-anchor:end">zod</text>
    <rect x="124" y="758.375" width="312.240" height="9" style="fill:#94a3b8"/>
    <text x="441.240" y="766.675" style="fill:#cbd5e1;font-size:11px">700k</text>
    <rect x="124" y="771.875" width="20.091" height="9" style="fill:#22d3ee"/>
    <text x="149.091" y="780.175" style="fill:#22d3ee;font-size:11px;font-weight:700">45k (-94%)</text>
    <rect x="124" y="785.375" width="393.373" height="9" style="fill:#f59e0b"/>
    <text x="522.373" y="793.675" style="fill:#fb7185;font-size:11px">882k (+26%)</text>
    <rect x="124" y="798.875" width="380.731" height="9" style="fill:#a3e635"/>
    <text x="509.731" y="807.175" style="fill:#fb7185;font-size:11px">854k (+22%)</text>
    <rect x="124" y="812.375" width="395.967" height="9" style="fill:#f472b6"/>
    <text x="524.967" y="820.675" style="fill:#fb7185;font-size:11px">888k (+27%)</text>
   </g>
   <text x="570.000" y="28" style="fill:#f8fafc;font-size:20px;font-weight:600;text-anchor:middle">Common prompt median token use, Codex GPT-5.5</text>
   <text x="570.000" y="874" style="fill:#cbd5e1;font-size:13px;text-anchor:middle">Tokens</text>
   <g id="legend_1">
   <g>
    <rect x="124" y="49" width="14" height="9" style="fill:#94a3b8"/>
    <text x="144" y="58" style="fill:#cbd5e1;font-size:12px">baseline</text>
   </g>
   <g>
    <rect x="219.76" y="49" width="14" height="9" style="fill:#22d3ee"/>
    <text x="239.76" y="58" style="fill:#cbd5e1;font-size:12px">@ttsc/graph</text>
   </g>
   <g>
    <rect x="335.68" y="49" width="14" height="9" style="fill:#f59e0b"/>
    <text x="355.68" y="58" style="fill:#cbd5e1;font-size:12px">codegraph</text>
   </g>
   <g>
    <rect x="438.16" y="49" width="14" height="9" style="fill:#a3e635"/>
    <text x="458.16" y="58" style="fill:#cbd5e1;font-size:12px">codebase-memory</text>
   </g>
   <g>
    <rect x="580.96" y="49" width="14" height="9" style="fill:#f472b6"/>
    <text x="600.96" y="58" style="fill:#cbd5e1;font-size:12px">serena</text>
   </g>
  </g>
   <text x="124" y="80" style="fill:#94a3b8;font-size:12px">Lower is better. Percentage is versus the no-MCP baseline.</text>
  </g>
 </g>
</svg>
