<?xml version="1.0" encoding="utf-8" standalone="no"?>
<svg xmlns="http://www.w3.org/2000/svg" width="1040" height="920" viewBox="0 0 1040 920" version="1.1" role="img" aria-label="Cold time to a first answer (lower is better)">
 <rect width="1040" height="920" fill="#0b0f14"/>
 <text x="40" y="46" fill="#f8fafc" font-size="20" font-weight="bold" font-family="DejaVu Sans, Arial, sans-serif">Cold time to a first answer (lower is better)</text>
 <text x="40" y="68" fill="#64748b" font-size="12" font-family="DejaVu Sans, Arial, sans-serif">AMD Ryzen 9 7940HS w/ Radeon 780M Graphics, 16 cores, 31 GB — Windows_NT 10.0.26200</text>
 <text x="40" y="898" fill="#64748b" font-size="11" font-family="DejaVu Sans, Arial, sans-serif">Cold checkout: build the tool's index once, then ask. The answer is the median wall clock over four models and both prompt families; the baseline has no index to build.</text>
  <rect x="100" y="80" width="12" height="12" fill="#94a3b8" rx="2"/>
  <text x="118" y="90" fill="#cbd5f5" font-size="12">baseline</text>
  <rect x="275" y="80" width="12" height="12" fill="#22d3ee" rx="2"/>
  <text x="293" y="90" fill="#cbd5f5" font-size="12">@ttsc/graph</text>
  <rect x="450" y="80" width="12" height="12" fill="#f59e0b" rx="2"/>
  <text x="468" y="90" fill="#cbd5f5" font-size="12">codegraph</text>
  <rect x="625" y="80" width="12" height="12" fill="#a3e635" rx="2"/>
  <text x="643" y="90" fill="#cbd5f5" font-size="12">codebase-memory</text>
  <rect x="800" y="80" width="12" height="12" fill="#f472b6" rx="2"/>
  <text x="818" y="90" fill="#cbd5f5" font-size="12">serena</text>
  <rect x="100" y="100" width="12" height="12" fill="#94a3b8" fill-opacity="0.35" rx="2"/>
  <text x="118" y="110" fill="#94a3b8" font-size="11">index build</text>
  <rect x="215" y="100" width="12" height="12" fill="#94a3b8" rx="2"/>
  <text x="233" y="110" fill="#94a3b8" font-size="11">answer</text>
  <text x="300" y="110" fill="#64748b" font-size="11">— each bar is labelled index / answer, in the order you wait for them</text>
  <rect x="160" y="137.0" width="780" height="76.0" fill="#111a24" fill-opacity="0.6" rx="3"/>
  <rect x="160" y="227.0" width="780" height="76.0" fill="#111a24" fill-opacity="0.25" rx="3"/>
  <rect x="160" y="317.0" width="780" height="76.0" fill="#111a24" fill-opacity="0.6" rx="3"/>
  <rect x="160" y="407.0" width="780" height="76.0" fill="#111a24" fill-opacity="0.25" rx="3"/>
  <rect x="160" y="497.0" width="780" height="76.0" fill="#111a24" fill-opacity="0.6" rx="3"/>
  <rect x="160" y="587.0" width="780" height="76.0" fill="#111a24" fill-opacity="0.25" rx="3"/>
  <rect x="160" y="677.0" width="780" height="76.0" fill="#111a24" fill-opacity="0.6" rx="3"/>
  <rect x="160" y="767.0" width="780" height="76.0" fill="#111a24" fill-opacity="0.25" rx="3"/>
  <line x1="160.0" y1="130" x2="160.0" y2="850" stroke="#1f2937" stroke-width="1"/>
  <text x="160.0" y="872" fill="#94a3b8" font-size="12" text-anchor="middle">0 s</text>
  <line x1="355.0" y1="130" x2="355.0" y2="850" stroke="#1f2937" stroke-width="1"/>
  <text x="355.0" y="872" fill="#94a3b8" font-size="12" text-anchor="middle">250 s</text>
  <line x1="550.0" y1="130" x2="550.0" y2="850" stroke="#1f2937" stroke-width="1"/>
  <text x="550.0" y="872" fill="#94a3b8" font-size="12" text-anchor="middle">500 s</text>
  <line x1="745.0" y1="130" x2="745.0" y2="850" stroke="#1f2937" stroke-width="1"/>
  <text x="745.0" y="872" fill="#94a3b8" font-size="12" text-anchor="middle">750 s</text>
  <line x1="940.0" y1="130" x2="940.0" y2="850" stroke="#1f2937" stroke-width="1"/>
  <text x="940.0" y="872" fill="#94a3b8" font-size="12" text-anchor="middle">1,000 s</text>
  <text x="148" y="171.0" fill="#e2e8f0" font-size="13" text-anchor="end">shopping</text>
  <text x="148" y="187.0" fill="#64748b" font-size="10" text-anchor="end">51,478 lines</text>
  <rect x="160.0" y="145.0" width="101.0" height="11" fill="#94a3b8" rx="2"/>
  <text x="269.0" y="155.0" fill="#94a3b8" font-size="11">0 s / 129 s</text>
  <rect x="160" y="160.0" width="0.8" height="11" fill="#22d3ee" fill-opacity="0.35" rx="2"/>
  <rect x="160.8" y="160.0" width="38.9" height="11" fill="#22d3ee" rx="2"/>
  <text x="207.7" y="170.0" fill="#22d3ee" font-size="11">1.0 s / 50 s</text>
  <rect x="160" y="175.0" width="7.3" height="11" fill="#f59e0b" fill-opacity="0.35" rx="2"/>
  <rect x="167.3" y="175.0" width="53.1" height="11" fill="#f59e0b" rx="2"/>
  <text x="228.4" y="185.0" fill="#f59e0b" font-size="11">9.4 s / 68 s</text>
  <rect x="160" y="190.0" width="9.9" height="11" fill="#f472b6" fill-opacity="0.35" rx="2"/>
  <rect x="169.9" y="190.0" width="130.1" height="11" fill="#f472b6" rx="2"/>
  <text x="308.1" y="200.0" fill="#f472b6" font-size="11">13 s / 167 s</text>
  <text x="148" y="261.0" fill="#e2e8f0" font-size="13" text-anchor="end">zod</text>
  <text x="148" y="277.0" fill="#64748b" font-size="10" text-anchor="end">79,306 lines</text>
  <rect x="160.0" y="227.5" width="136.1" height="11" fill="#94a3b8" rx="2"/>
  <text x="304.1" y="237.5" fill="#94a3b8" font-size="11">0 s / 174 s</text>
  <rect x="160" y="242.5" width="1.2" height="11" fill="#22d3ee" fill-opacity="0.35" rx="2"/>
  <rect x="161.2" y="242.5" width="36.1" height="11" fill="#22d3ee" rx="2"/>
  <text x="205.3" y="252.5" fill="#22d3ee" font-size="11">1.5 s / 46 s</text>
  <rect x="160" y="257.5" width="8.0" height="11" fill="#f59e0b" fill-opacity="0.35" rx="2"/>
  <rect x="168.0" y="257.5" width="52.9" height="11" fill="#f59e0b" rx="2"/>
  <text x="228.9" y="267.5" fill="#f59e0b" font-size="11">10 s / 68 s</text>
  <rect x="160" y="272.5" width="0.7" height="11" fill="#a3e635" fill-opacity="0.35" rx="2"/>
  <rect x="160.7" y="272.5" width="93.9" height="11" fill="#a3e635" rx="2"/>
  <text x="262.6" y="282.5" fill="#a3e635" font-size="11">0.8 s / 120 s</text>
  <rect x="160" y="287.5" width="7.5" height="11" fill="#f472b6" fill-opacity="0.35" rx="2"/>
  <rect x="167.5" y="287.5" width="91.9" height="11" fill="#f472b6" rx="2"/>
  <text x="267.4" y="297.5" fill="#f472b6" font-size="11">9.6 s / 118 s</text>
  <text x="148" y="351.0" fill="#e2e8f0" font-size="13" text-anchor="end">nestjs</text>
  <text x="148" y="367.0" fill="#64748b" font-size="10" text-anchor="end">88,775 lines</text>
  <rect x="160.0" y="317.5" width="123.2" height="11" fill="#94a3b8" rx="2"/>
  <text x="291.2" y="327.5" fill="#94a3b8" font-size="11">0 s / 158 s</text>
  <rect x="160" y="332.5" width="0.9" height="11" fill="#22d3ee" fill-opacity="0.35" rx="2"/>
  <rect x="160.9" y="332.5" width="58.5" height="11" fill="#22d3ee" rx="2"/>
  <text x="227.4" y="342.5" fill="#22d3ee" font-size="11">1.1 s / 75 s</text>
  <rect x="160" y="347.5" width="16.1" height="11" fill="#f59e0b" fill-opacity="0.35" rx="2"/>
  <rect x="176.1" y="347.5" width="45.0" height="11" fill="#f59e0b" rx="2"/>
  <text x="229.0" y="357.5" fill="#f59e0b" font-size="11">21 s / 58 s</text>
  <rect x="160" y="362.5" width="1.1" height="11" fill="#a3e635" fill-opacity="0.35" rx="2"/>
  <rect x="161.1" y="362.5" width="106.9" height="11" fill="#a3e635" rx="2"/>
  <text x="276.0" y="372.5" fill="#a3e635" font-size="11">1.4 s / 137 s</text>
  <rect x="160" y="377.5" width="13.9" height="11" fill="#f472b6" fill-opacity="0.35" rx="2"/>
  <rect x="173.9" y="377.5" width="98.5" height="11" fill="#f472b6" rx="2"/>
  <text x="280.4" y="387.5" fill="#f472b6" font-size="11">18 s / 126 s</text>
  <text x="148" y="441.0" fill="#e2e8f0" font-size="13" text-anchor="end">rxjs</text>
  <text x="148" y="457.0" fill="#64748b" font-size="10" text-anchor="end">91,238 lines</text>
  <rect x="160.0" y="407.5" width="91.1" height="11" fill="#94a3b8" rx="2"/>
  <text x="259.1" y="417.5" fill="#94a3b8" font-size="11">0 s / 117 s</text>
  <rect x="160" y="422.5" width="0.6" height="11" fill="#22d3ee" fill-opacity="0.35" rx="2"/>
  <rect x="160.6" y="422.5" width="38.7" height="11" fill="#22d3ee" rx="2"/>
  <text x="207.4" y="432.5" fill="#22d3ee" font-size="11">0.8 s / 50 s</text>
  <rect x="160" y="437.5" width="12.6" height="11" fill="#f59e0b" fill-opacity="0.35" rx="2"/>
  <rect x="172.6" y="437.5" width="50.8" height="11" fill="#f59e0b" rx="2"/>
  <text x="231.4" y="447.5" fill="#f59e0b" font-size="11">16 s / 65 s</text>
  <rect x="160" y="452.5" width="1.0" height="11" fill="#a3e635" fill-opacity="0.35" rx="2"/>
  <rect x="161.0" y="452.5" width="93.4" height="11" fill="#a3e635" rx="2"/>
  <text x="262.4" y="462.5" fill="#a3e635" font-size="11">1.3 s / 120 s</text>
  <rect x="160" y="467.5" width="11.6" height="11" fill="#f472b6" fill-opacity="0.35" rx="2"/>
  <rect x="171.6" y="467.5" width="84.9" height="11" fill="#f472b6" rx="2"/>
  <text x="264.5" y="477.5" fill="#f472b6" font-size="11">15 s / 109 s</text>
  <text x="148" y="531.0" fill="#e2e8f0" font-size="13" text-anchor="end">vue</text>
  <text x="148" y="547.0" fill="#64748b" font-size="10" text-anchor="end">151,184 lines</text>
  <rect x="160.0" y="497.5" width="116.9" height="11" fill="#94a3b8" rx="2"/>
  <text x="284.9" y="507.5" fill="#94a3b8" font-size="11">0 s / 150 s</text>
  <rect x="160" y="512.5" width="1.6" height="11" fill="#22d3ee" fill-opacity="0.35" rx="2"/>
  <rect x="161.6" y="512.5" width="38.2" height="11" fill="#22d3ee" rx="2"/>
  <text x="207.8" y="522.5" fill="#22d3ee" font-size="11">2.0 s / 49 s</text>
  <rect x="160" y="527.5" width="9.7" height="11" fill="#f59e0b" fill-opacity="0.35" rx="2"/>
  <rect x="169.7" y="527.5" width="55.2" height="11" fill="#f59e0b" rx="2"/>
  <text x="232.9" y="537.5" fill="#f59e0b" font-size="11">12 s / 71 s</text>
  <rect x="160" y="542.5" width="0.8" height="11" fill="#a3e635" fill-opacity="0.35" rx="2"/>
  <rect x="160.8" y="542.5" width="91.2" height="11" fill="#a3e635" rx="2"/>
  <text x="260.0" y="552.5" fill="#a3e635" font-size="11">1.1 s / 117 s</text>
  <rect x="160" y="557.5" width="9.8" height="11" fill="#f472b6" fill-opacity="0.35" rx="2"/>
  <rect x="169.8" y="557.5" width="106.5" height="11" fill="#f472b6" rx="2"/>
  <text x="284.3" y="567.5" fill="#f472b6" font-size="11">13 s / 137 s</text>
  <text x="148" y="621.0" fill="#e2e8f0" font-size="13" text-anchor="end">excalidraw</text>
  <text x="148" y="637.0" fill="#64748b" font-size="10" text-anchor="end">172,012 lines</text>
  <rect x="160.0" y="587.5" width="164.6" height="11" fill="#94a3b8" rx="2"/>
  <text x="332.6" y="597.5" fill="#94a3b8" font-size="11">0 s / 211 s</text>
  <rect x="160" y="602.5" width="1.5" height="11" fill="#22d3ee" fill-opacity="0.35" rx="2"/>
  <rect x="161.5" y="602.5" width="49.0" height="11" fill="#22d3ee" rx="2"/>
  <text x="218.4" y="612.5" fill="#22d3ee" font-size="11">1.9 s / 63 s</text>
  <rect x="160" y="617.5" width="13.9" height="11" fill="#f59e0b" fill-opacity="0.35" rx="2"/>
  <rect x="173.9" y="617.5" width="58.0" height="11" fill="#f59e0b" rx="2"/>
  <text x="239.8" y="627.5" fill="#f59e0b" font-size="11">18 s / 74 s</text>
  <rect x="160" y="632.5" width="1.5" height="11" fill="#a3e635" fill-opacity="0.35" rx="2"/>
  <rect x="161.5" y="632.5" width="134.8" height="11" fill="#a3e635" rx="2"/>
  <text x="304.3" y="642.5" fill="#a3e635" font-size="11">1.9 s / 173 s</text>
  <rect x="160" y="647.5" width="11.4" height="11" fill="#f472b6" fill-opacity="0.35" rx="2"/>
  <rect x="171.4" y="647.5" width="160.5" height="11" fill="#f472b6" rx="2"/>
  <text x="340.0" y="657.5" fill="#f472b6" font-size="11">15 s / 206 s</text>
  <text x="148" y="711.0" fill="#e2e8f0" font-size="13" text-anchor="end">typeorm</text>
  <text x="148" y="727.0" fill="#64748b" font-size="10" text-anchor="end">299,837 lines</text>
  <rect x="160.0" y="677.5" width="132.0" height="11" fill="#94a3b8" rx="2"/>
  <text x="300.0" y="687.5" fill="#94a3b8" font-size="11">0 s / 169 s</text>
  <rect x="160" y="692.5" width="1.9" height="11" fill="#22d3ee" fill-opacity="0.35" rx="2"/>
  <rect x="161.9" y="692.5" width="55.0" height="11" fill="#22d3ee" rx="2"/>
  <text x="224.8" y="702.5" fill="#22d3ee" font-size="11">2.4 s / 70 s</text>
  <rect x="160" y="707.5" width="43.1" height="11" fill="#f59e0b" fill-opacity="0.35" rx="2"/>
  <rect x="203.1" y="707.5" width="50.2" height="11" fill="#f59e0b" rx="2"/>
  <text x="261.3" y="717.5" fill="#f59e0b" font-size="11">55 s / 64 s</text>
  <rect x="160" y="722.5" width="2.3" height="11" fill="#a3e635" fill-opacity="0.35" rx="2"/>
  <rect x="162.3" y="722.5" width="79.1" height="11" fill="#a3e635" rx="2"/>
  <text x="249.4" y="732.5" fill="#a3e635" font-size="11">3.0 s / 101 s</text>
  <rect x="160" y="737.5" width="22.5" height="11" fill="#f472b6" fill-opacity="0.35" rx="2"/>
  <rect x="182.5" y="737.5" width="92.3" height="11" fill="#f472b6" rx="2"/>
  <text x="282.8" y="747.5" fill="#f472b6" font-size="11">29 s / 118 s</text>
  <text x="148" y="801.0" fill="#e2e8f0" font-size="13" text-anchor="end">vscode</text>
  <text x="148" y="817.0" fill="#64748b" font-size="10" text-anchor="end">3,094,212 lines</text>
  <rect x="160.0" y="767.5" width="133.0" height="11" fill="#94a3b8" rx="2"/>
  <text x="301.0" y="777.5" fill="#94a3b8" font-size="11">0 s / 171 s</text>
  <rect x="160" y="782.5" width="22.4" height="11" fill="#22d3ee" fill-opacity="0.35" rx="2"/>
  <rect x="182.4" y="782.5" width="92.0" height="11" fill="#22d3ee" rx="2"/>
  <text x="282.3" y="792.5" fill="#22d3ee" font-size="11">29 s / 118 s</text>
  <rect x="160" y="797.5" width="570.5" height="11" fill="#f59e0b" fill-opacity="0.35" rx="2"/>
  <rect x="730.5" y="797.5" width="84.8" height="11" fill="#f59e0b" rx="2"/>
  <text x="823.4" y="807.5" fill="#f59e0b" font-size="11">731 s / 109 s</text>
  <rect x="160" y="812.5" width="92.7" height="11" fill="#a3e635" fill-opacity="0.35" rx="2"/>
  <rect x="252.7" y="812.5" width="92.0" height="11" fill="#a3e635" rx="2"/>
  <text x="352.7" y="822.5" fill="#a3e635" font-size="11">119 s / 118 s</text>
  <rect x="160" y="827.5" width="213.7" height="11" fill="#f472b6" fill-opacity="0.35" rx="2"/>
  <rect x="373.7" y="827.5" width="134.6" height="11" fill="#f472b6" rx="2"/>
  <text x="516.3" y="837.5" fill="#f472b6" font-size="11">274 s / 173 s</text>
</svg>
