<svg xmlns="http://www.w3.org/2000/svg" viewBox="0 0 900 380" width="900" height="380" role="img" aria-label="Requirements and Specifications grounding DB schema, API operation, API schema and Test."><title>Requirements and Specifications grounding DB schema, API operation, API schema and Test.</title><rect x="0" y="0" width="900" height="380" fill="#0d1117"/><rect x="0" y="55" width="279" height="264" rx="14" fill="none" stroke="#e0913a" stroke-width="3"/><line x1="139" y1="235" x2="139" y2="139" stroke="#e0913a" stroke-width="3" stroke-linecap="square"/><polygon points="139,139 132,151 146,151" fill="#e0913a"/><line x1="360" y1="106" x2="279" y2="106" stroke="#7ba3e3" stroke-width="3" stroke-linecap="square"/><polygon points="279,106 291,99 291,113" fill="#7ba3e3"/><line x1="360" y1="268" x2="279" y2="268" stroke="#7ba3e3" stroke-width="3" stroke-linecap="square"/><polygon points="279,268 291,261 291,275" fill="#7ba3e3"/><line x1="459" y1="232" x2="459" y2="142" stroke="#7ba3e3" stroke-width="3" stroke-linecap="square"/><polygon points="459,142 452,154 466,154" fill="#7ba3e3"/><line x1="630" y1="106" x2="558" y2="106" stroke="#7ba3e3" stroke-width="3" stroke-linecap="square"/><polygon points="558,106 570,99 570,113" fill="#7ba3e3"/><line x1="630" y1="268" x2="558" y2="268" stroke="#7ba3e3" stroke-width="3" stroke-linecap="square"/><polygon points="558,268 570,261 570,275" fill="#7ba3e3"/><line x1="729" y1="70" x2="729" y2="15" stroke="#7ba3e3" stroke-width="3" stroke-linecap="square"/><line x1="729" y1="15" x2="139" y2="15" stroke="#7ba3e3" stroke-width="3" stroke-linecap="square"/><line x1="139" y1="15" x2="139" y2="55" stroke="#7ba3e3" stroke-width="3" stroke-linecap="square"/><polygon points="139,55 132,43 146,43" fill="#7ba3e3"/><line x1="729" y1="304" x2="729" y2="359" stroke="#7ba3e3" stroke-width="3" stroke-linecap="square"/><line x1="729" y1="359" x2="139" y2="359" stroke="#7ba3e3" stroke-width="3" stroke-linecap="square"/><line x1="139" y1="359" x2="139" y2="319" stroke="#7ba3e3" stroke-width="3" stroke-linecap="square"/><polygon points="139,319 132,331 146,331" fill="#7ba3e3"/><rect x="12" y="67" width="255" height="72" rx="10" fill="#2b2114" stroke="#e0913a" stroke-width="3"/><text x="139.5" y="103" fill="#f2c98a" font-family="Pretendard, -apple-system, 'Segoe UI', 'Malgun Gothic', system-ui, sans-serif" font-size="27" font-weight="700" text-anchor="middle" dominant-baseline="central">Requirements</text><rect x="12" y="235" width="255" height="72" rx="10" fill="#2b2114" stroke="#e0913a" stroke-width="3"/><text x="139.5" y="271" fill="#f2c98a" font-family="Pretendard, -apple-system, 'Segoe UI', 'Malgun Gothic', system-ui, sans-serif" font-size="27" font-weight="700" text-anchor="middle" dominant-baseline="central">Specifications</text><rect x="360" y="70" width="198" height="72" rx="10" fill="#19212e" stroke="#7ba3e3" stroke-width="3"/><text x="459" y="106" fill="#dfe8f6" font-family="Pretendard, -apple-system, 'Segoe UI', 'Malgun Gothic', system-ui, sans-serif" font-size="27" font-weight="700" text-anchor="middle" dominant-baseline="central">DB schema</text><rect x="360" y="232" width="198" height="72" rx="10" fill="#19212e" stroke="#7ba3e3" stroke-width="3"/><text x="459" y="268" fill="#dfe8f6" font-family="Pretendard, -apple-system, 'Segoe UI', 'Malgun Gothic', system-ui, sans-serif" font-size="27" font-weight="700" text-anchor="middle" dominant-baseline="central">API operation</text><rect x="630" y="70" width="198" height="72" rx="10" fill="#19212e" stroke="#7ba3e3" stroke-width="3"/><text x="729" y="106" fill="#dfe8f6" font-family="Pretendard, -apple-system, 'Segoe UI', 'Malgun Gothic', system-ui, sans-serif" font-size="27" font-weight="700" text-anchor="middle" dominant-baseline="central">API schema</text><rect x="630" y="232" width="198" height="72" rx="10" fill="#19212e" stroke="#7ba3e3" stroke-width="3"/><text x="729" y="268" fill="#dfe8f6" font-family="Pretendard, -apple-system, 'Segoe UI', 'Malgun Gothic', system-ui, sans-serif" font-size="27" font-weight="700" text-anchor="middle" dominant-baseline="central">Test</text></svg>
