<?xml version="1.0" encoding="utf-8" standalone="no"?>
<svg xmlns="http://www.w3.org/2000/svg" width="1040" height="940" viewBox="0 0 1040 940" version="1.1" role="img" aria-label="Common prompt median token use, Codex GPT-5.6 sol">
 <defs>
  <style type="text/css">
   *{stroke-linejoin:round;stroke-linecap:butt}
   text{font-family:DejaVu Sans, Arial, sans-serif}
  </style>
 </defs>
 <g id="figure_1">
  <g id="patch_1">
   <path d="M 0 940 L 1040 940 L 1040 0 L 0 0 z" style="fill:#05070b"/>
  </g>
  <g id="axes_1">
   <path d="M 136 128 L 1016 128 L 1016 866 L 136 866 z" style="fill:#0b111a"/>
   <path d="M 136 866 L 1016 866" style="fill:none;stroke:#64748b;stroke-width:0.8"/>
   <path d="M 136 128 L 136 866" style="fill:none;stroke:#64748b;stroke-width:0.8"/>
   <g>
    <path d="M 136.000 128 L 136.000 866" style="fill:none;stroke:#1f2937;stroke-width:0.7"/>
    <text x="136.000" y="884" style="fill:#cbd5e1;font-size:13px;text-anchor:middle">0</text>
   </g>
   <g>
    <path d="M 356.000 128 L 356.000 866" style="fill:none;stroke:#1f2937;stroke-width:0.7"/>
    <text x="356.000" y="884" style="fill:#cbd5e1;font-size:13px;text-anchor:middle">2.5M</text>
   </g>
   <g>
    <path d="M 576.000 128 L 576.000 866" style="fill:none;stroke:#1f2937;stroke-width:0.7"/>
    <text x="576.000" y="884" style="fill:#cbd5e1;font-size:13px;text-anchor:middle">5M</text>
   </g>
   <g>
    <path d="M 796.000 128 L 796.000 866" style="fill:none;stroke:#1f2937;stroke-width:0.7"/>
    <text x="796.000" y="884" style="fill:#cbd5e1;font-size:13px;text-anchor:middle">7.5M</text>
   </g>
   <g>
    <path d="M 1016.000 128 L 1016.000 866" style="fill:none;stroke:#1f2937;stroke-width:0.7"/>
    <text x="1016.000" y="884" style="fill:#cbd5e1;font-size:13px;text-anchor:middle">10M</text>
   </g>
   <g>
    <path d="M 18 220.250 L 1016 220.250" style="fill:none;stroke:#1f2937;stroke-width:0.6"/>
    <text x="120" y="177.125" style="fill:#f8fafc;font-size:15px;font-weight:600;text-anchor:end">excalidraw</text>
    <rect x="136" y="143.125" width="451.207" height="10.5" style="fill:#94a3b8"/>
    <text x="592.207" y="152.925" style="fill:#cbd5e1;font-size:13px">5.1M</text>
    <rect x="136" y="158.625" width="6.514" height="10.5" style="fill:#22d3ee"/>
    <text x="147.514" y="168.425" style="fill:#22d3ee;font-size:13px;font-weight:700">74k (-99%)</text>
    <rect x="136" y="174.125" width="61.552" height="10.5" style="fill:#f59e0b"/>
    <text x="202.552" y="183.925" style="fill:#f59e0b;font-size:13px">699k (-86%)</text>
    <rect x="136" y="189.625" width="341.333" height="10.5" style="fill:#a3e635"/>
    <text x="482.333" y="199.425" style="fill:#a3e635;font-size:13px">3.9M (-24%)</text>
    <rect x="136" y="205.125" width="210.784" height="10.5" style="fill:#f472b6"/>
    <text x="351.784" y="214.925" style="fill:#f472b6;font-size:13px">2.4M (-53%)</text>
   </g>
   <g>
    <path d="M 18 312.500 L 1016 312.500" style="fill:none;stroke:#1f2937;stroke-width:0.6"/>
    <text x="120" y="269.375" style="fill:#f8fafc;font-size:15px;font-weight:600;text-anchor:end">nestjs</text>
    <rect x="136" y="235.375" width="63.630" height="10.5" style="fill:#94a3b8"/>
    <text x="204.630" y="245.175" style="fill:#cbd5e1;font-size:13px">723k</text>
    <rect x="136" y="250.875" width="6.614" height="10.5" style="fill:#22d3ee"/>
    <text x="147.614" y="260.675" style="fill:#22d3ee;font-size:13px;font-weight:700">75k (-90%)</text>
    <rect x="136" y="266.375" width="53.220" height="10.5" style="fill:#f59e0b"/>
    <text x="194.220" y="276.175" style="fill:#f59e0b;font-size:13px">605k (-16%)</text>
    <rect x="136" y="281.875" width="135.652" height="10.5" style="fill:#a3e635"/>
    <text x="276.652" y="291.675" style="fill:#fb7185;font-size:13px">1.5M (+113%)</text>
    <rect x="136" y="297.375" width="151.575" height="10.5" style="fill:#f472b6"/>
    <text x="292.575" y="307.175" style="fill:#fb7185;font-size:13px">1.7M (+138%)</text>
   </g>
   <g>
    <path d="M 18 404.750 L 1016 404.750" style="fill:none;stroke:#1f2937;stroke-width:0.6"/>
    <text x="120" y="361.625" style="fill:#f8fafc;font-size:15px;font-weight:600;text-anchor:end">rxjs</text>
    <rect x="136" y="327.625" width="75.585" height="10.5" style="fill:#94a3b8"/>
    <text x="216.585" y="337.425" style="fill:#cbd5e1;font-size:13px">859k</text>
    <rect x="136" y="343.125" width="4.718" height="10.5" style="fill:#22d3ee"/>
    <text x="145.718" y="352.925" style="fill:#22d3ee;font-size:13px;font-weight:700">54k (-94%)</text>
    <rect x="136" y="358.625" width="85.039" height="10.5" style="fill:#f59e0b"/>
    <text x="226.039" y="368.425" style="fill:#fb7185;font-size:13px">966k (+13%)</text>
    <rect x="136" y="374.125" width="68.864" height="10.5" style="fill:#a3e635"/>
    <text x="209.864" y="383.925" style="fill:#a3e635;font-size:13px">783k (-9%)</text>
    <rect x="136" y="389.625" width="77.877" height="10.5" style="fill:#f472b6"/>
    <text x="218.877" y="399.425" style="fill:#fb7185;font-size:13px">885k (+3%)</text>
   </g>
   <g>
    <path d="M 18 497.000 L 1016 497.000" style="fill:none;stroke:#1f2937;stroke-width:0.6"/>
    <text x="120" y="453.875" style="fill:#f8fafc;font-size:15px;font-weight:600;text-anchor:end">shopping</text>
    <rect x="136" y="419.875" width="101.453" height="10.5" style="fill:#94a3b8"/>
    <text x="242.453" y="429.675" style="fill:#cbd5e1;font-size:13px">1.2M</text>
    <rect x="136" y="435.375" width="4.918" height="10.5" style="fill:#22d3ee"/>
    <text x="145.918" y="445.175" style="fill:#22d3ee;font-size:13px;font-weight:700">56k (-95%)</text>
    <rect x="136" y="450.875" width="38.366" height="10.5" style="fill:#f59e0b"/>
    <text x="179.366" y="460.675" style="fill:#f59e0b;font-size:13px">436k (-62%)</text>
    <rect x="136" y="481.875" width="141.437" height="10.5" style="fill:#f472b6"/>
    <text x="282.437" y="491.675" style="fill:#fb7185;font-size:13px">1.6M (+39%)</text>
   </g>
   <g>
    <path d="M 18 589.250 L 1016 589.250" style="fill:none;stroke:#1f2937;stroke-width:0.6"/>
    <text x="120" y="546.125" style="fill:#f8fafc;font-size:15px;font-weight:600;text-anchor:end">typeorm</text>
    <rect x="136" y="512.125" width="134.688" height="10.5" style="fill:#94a3b8"/>
    <text x="275.688" y="521.925" style="fill:#cbd5e1;font-size:13px">1.5M</text>
    <rect x="136" y="527.625" width="6.598" height="10.5" style="fill:#22d3ee"/>
    <text x="147.598" y="537.425" style="fill:#22d3ee;font-size:13px;font-weight:700">75k (-95%)</text>
    <rect x="136" y="543.125" width="63.428" height="10.5" style="fill:#f59e0b"/>
    <text x="204.428" y="552.925" style="fill:#f59e0b;font-size:13px">721k (-53%)</text>
    <rect x="136" y="558.625" width="162.349" height="10.5" style="fill:#a3e635"/>
    <text x="303.349" y="568.425" style="fill:#fb7185;font-size:13px">1.8M (+21%)</text>
    <rect x="136" y="574.125" width="144.505" height="10.5" style="fill:#f472b6"/>
    <text x="285.505" y="583.925" style="fill:#fb7185;font-size:13px">1.6M (+7%)</text>
   </g>
   <g>
    <path d="M 18 681.500 L 1016 681.500" style="fill:none;stroke:#1f2937;stroke-width:0.6"/>
    <text x="120" y="638.375" style="fill:#f8fafc;font-size:15px;font-weight:600;text-anchor:end">vscode</text>
    <rect x="136" y="604.375" width="173.845" height="10.5" style="fill:#94a3b8"/>
    <text x="314.845" y="614.175" style="fill:#cbd5e1;font-size:13px">2.0M</text>
    <rect x="136" y="619.875" width="10.105" height="10.5" style="fill:#22d3ee"/>
    <text x="151.105" y="629.675" style="fill:#22d3ee;font-size:13px;font-weight:700">115k (-94%)</text>
    <rect x="136" y="635.375" width="69.401" height="10.5" style="fill:#f59e0b"/>
    <text x="210.401" y="645.175" style="fill:#f59e0b;font-size:13px">789k (-60%)</text>
    <rect x="136" y="650.875" width="311.969" height="10.5" style="fill:#a3e635"/>
    <text x="452.969" y="660.675" style="fill:#fb7185;font-size:13px">3.5M (+79%)</text>
    <rect x="136" y="666.375" width="361.709" height="10.5" style="fill:#f472b6"/>
    <text x="502.709" y="676.175" style="fill:#fb7185;font-size:13px">4.1M (+108%)</text>
   </g>
   <g>
    <path d="M 18 773.750 L 1016 773.750" style="fill:none;stroke:#1f2937;stroke-width:0.6"/>
    <text x="120" y="730.625" style="fill:#f8fafc;font-size:15px;font-weight:600;text-anchor:end">vue</text>
    <rect x="136" y="696.625" width="82.378" height="10.5" style="fill:#94a3b8"/>
    <text x="223.378" y="706.425" style="fill:#cbd5e1;font-size:13px">936k</text>
    <rect x="136" y="712.125" width="6.482" height="10.5" style="fill:#22d3ee"/>
    <text x="147.482" y="721.925" style="fill:#22d3ee;font-size:13px;font-weight:700">74k (-92%)</text>
    <rect x="136" y="727.625" width="99.575" height="10.5" style="fill:#f59e0b"/>
    <text x="240.575" y="737.425" style="fill:#fb7185;font-size:13px">1.1M (+21%)</text>
    <rect x="136" y="743.125" width="123.593" height="10.5" style="fill:#a3e635"/>
    <text x="264.593" y="752.925" style="fill:#fb7185;font-size:13px">1.4M (+50%)</text>
    <rect x="136" y="758.625" width="213.835" height="10.5" style="fill:#f472b6"/>
    <text x="354.835" y="768.425" style="fill:#fb7185;font-size:13px">2.4M (+160%)</text>
   </g>
   <g>
    <path d="M 18 866.000 L 1016 866.000" style="fill:none;stroke:#1f2937;stroke-width:0.6"/>
    <text x="120" y="822.875" style="fill:#f8fafc;font-size:15px;font-weight:600;text-anchor:end">zod</text>
    <rect x="136" y="788.875" width="99.741" height="10.5" style="fill:#94a3b8"/>
    <text x="240.741" y="798.675" style="fill:#cbd5e1;font-size:13px">1.1M</text>
    <rect x="136" y="804.375" width="4.745" height="10.5" style="fill:#22d3ee"/>
    <text x="145.745" y="814.175" style="fill:#22d3ee;font-size:13px;font-weight:700">54k (-95%)</text>
    <rect x="136" y="819.875" width="65.383" height="10.5" style="fill:#f59e0b"/>
    <text x="206.383" y="829.675" style="fill:#f59e0b;font-size:13px">743k (-34%)</text>
    <rect x="136" y="835.375" width="171.962" height="10.5" style="fill:#a3e635"/>
    <text x="312.962" y="845.175" style="fill:#fb7185;font-size:13px">2.0M (+72%)</text>
    <rect x="136" y="850.875" width="90.527" height="10.5" style="fill:#f472b6"/>
    <text x="231.527" y="860.675" style="fill:#f472b6;font-size:13px">1.0M (-9%)</text>
   </g>
   <text x="576.000" y="30" style="fill:#f8fafc;font-size:22px;font-weight:600;text-anchor:middle">Common prompt median token use, Codex GPT-5.6 sol</text>
   <text x="576.000" y="912" style="fill:#cbd5e1;font-size:14px;text-anchor:middle">Tokens</text>
   <g id="legend_1">
   <g>
    <rect x="136" y="51" width="14" height="9" style="fill:#94a3b8"/>
    <text x="156" y="60" style="fill:#cbd5e1;font-size:12px">baseline</text>
   </g>
   <g>
    <rect x="231.76" y="51" width="14" height="9" style="fill:#22d3ee"/>
    <text x="251.76" y="60" style="fill:#cbd5e1;font-size:12px">@ttsc/graph</text>
   </g>
   <g>
    <rect x="347.68" y="51" width="14" height="9" style="fill:#f59e0b"/>
    <text x="367.68" y="60" style="fill:#cbd5e1;font-size:12px">codegraph</text>
   </g>
   <g>
    <rect x="450.16" y="51" width="14" height="9" style="fill:#a3e635"/>
    <text x="470.16" y="60" style="fill:#cbd5e1;font-size:12px">codebase-memory</text>
   </g>
   <g>
    <rect x="592.96" y="51" width="14" height="9" style="fill:#f472b6"/>
    <text x="612.96" y="60" style="fill:#cbd5e1;font-size:12px">serena</text>
   </g>
  </g>
   <text x="136" y="86" style="fill:#94a3b8;font-size:13px">Lower is better. Percentage is versus the no-MCP baseline.</text>
  </g>
 </g>
</svg>
