<?xml version="1.0" encoding="utf-8" standalone="no"?>
<svg xmlns="http://www.w3.org/2000/svg" width="1240" height="1918" viewBox="0 0 1240 1918" version="1.1" role="img" aria-label="Cold time to a first answer (lower is better)">
 <defs><style type="text/css">text{font-family:DejaVu Sans, Arial, sans-serif}</style></defs>
 <rect width="1240" height="1918" style="fill:#ffffff"/>
 <text x="36" y="48" style="fill:#102a43;font-size:27px;font-weight:700">Cold time to a first answer (lower is better)</text>
 <rect x="36" y="70" width="62" height="24" rx="4" style="fill:#3178c6;fill-opacity:0.35"/>
 <text x="67" y="87" style="fill:#102a43;font-size:13px;font-weight:700;text-anchor:middle">index</text>
 <rect x="98" y="70" width="52" height="24" rx="4" style="fill:#3178c6"/>
 <text x="124" y="87" style="fill:#ffffff;font-size:13px;font-weight:700;text-anchor:middle">LLM</text>
 <text x="164" y="88" style="fill:#64748b;font-size:15px">faded = index build, solid = LLM answering — each bar is labelled index / LLM</text>
 <rect x="28" y="132.0" width="1184.0" height="212.0" rx="10" style="fill:#e8f2fb;fill-opacity:0.8"/>
   <text x="60" y="162.0" style="fill:#102a43;font-size:22px;font-weight:700">Excalidraw</text>
   <text x="1204" y="161.0" style="fill:#94a3b8;font-size:15px;text-anchor:end">172,012 lines</text>
   <rect x="270" y="178.0" width="758.0" height="20" rx="2" style="fill:#e7f0f8;stroke:#c7dff4;stroke-width:1"/><rect x="270.0" y="178.0" width="160.0" height="20" style="fill:#94a3b8"/>
    <text x="60" y="194.0" style="fill:#64748b;font-size:17px">baseline</text>
    <text x="1204" y="194.0" style="fill:#526b82;font-size:17px;font-weight:500;text-anchor:end">0s / 211s</text>
    <rect x="268.0" y="206.0" width="762.0" height="24.0" rx="4" style="fill:none;stroke:#72afe6;stroke-opacity:0.18;stroke-width:3.5"/>
    <rect x="270" y="208.0" width="758.0" height="20" rx="2" style="fill:#e7f0f8;stroke:#72afe6;stroke-width:1.6"/><rect x="270" y="208.0" width="1.4" height="20" style="fill:#3178c6;fill-opacity:0.5"/><rect x="271.4" y="208.0" width="43.2" height="20" style="fill:#3178c6"/><g transform="translate(38.00 210.00) scale(1.000)" style="fill:none;stroke:#3178c6;stroke-width:1.5">
    <path d="M2.5 5.5 5.4 8l2.6-4 2.6 4 2.9-2.5-.8 6H3.3l-.8-6Z" style="stroke-linejoin:round"/>
    <path d="M3.5 12.5 h9" style="stroke-linecap:round"/>
   </g>
    <text x="60" y="224.0" style="fill:#3178c6;font-size:17px;font-weight:700">@ttsc/graph</text>
    <text x="1204" y="224.0" style="fill:#526b82;font-size:17px;font-weight:700;text-anchor:end">1.9s / 57s</text>
    <rect x="270" y="238.0" width="758.0" height="20" rx="2" style="fill:#e7f0f8;stroke:#c7dff4;stroke-width:1"/><rect x="270" y="238.0" width="13.5" height="20" style="fill:#d97706;fill-opacity:0.5"/><rect x="283.5" y="238.0" width="56.3" height="20" style="fill:#d97706"/>
    <text x="60" y="254.0" style="fill:#d97706;font-size:17px">codegraph</text>
    <text x="1204" y="254.0" style="fill:#526b82;font-size:17px;font-weight:500;text-anchor:end">18s / 74s</text>
    <rect x="270" y="268.0" width="758.0" height="20" rx="2" style="fill:#e7f0f8;stroke:#c7dff4;stroke-width:1"/><rect x="270" y="268.0" width="1.5" height="20" style="fill:#15803d;fill-opacity:0.5"/><rect x="271.5" y="268.0" width="131.0" height="20" style="fill:#15803d"/>
    <text x="60" y="284.0" style="fill:#15803d;font-size:17px">codebase-memory</text>
    <text x="1204" y="284.0" style="fill:#526b82;font-size:17px;font-weight:500;text-anchor:end">1.9s / 173s</text>
    <rect x="270" y="298.0" width="758.0" height="20" rx="2" style="fill:#e7f0f8;stroke:#c7dff4;stroke-width:1"/><rect x="270" y="298.0" width="11.1" height="20" style="fill:#7e22ce;fill-opacity:0.5"/><rect x="281.1" y="298.0" width="156.0" height="20" style="fill:#7e22ce"/>
    <text x="60" y="314.0" style="fill:#7e22ce;font-size:17px">serena</text>
    <text x="1204" y="314.0" style="fill:#526b82;font-size:17px;font-weight:500;text-anchor:end">15s / 206s</text>
  <rect x="28" y="356.0" width="1184.0" height="212.0" rx="10" style="fill:#e8f2fb;fill-opacity:0.4"/>
   <text x="60" y="386.0" style="fill:#102a43;font-size:22px;font-weight:700">NestJS</text>
   <text x="1204" y="385.0" style="fill:#94a3b8;font-size:15px;text-anchor:end">88,775 lines</text>
   <rect x="270" y="402.0" width="758.0" height="20" rx="2" style="fill:#e7f0f8;stroke:#c7dff4;stroke-width:1"/><rect x="270.0" y="402.0" width="119.7" height="20" style="fill:#94a3b8"/>
    <text x="60" y="418.0" style="fill:#64748b;font-size:17px">baseline</text>
    <text x="1204" y="418.0" style="fill:#526b82;font-size:17px;font-weight:500;text-anchor:end">0s / 158s</text>
    <rect x="268.0" y="430.0" width="762.0" height="24.0" rx="4" style="fill:none;stroke:#72afe6;stroke-opacity:0.18;stroke-width:3.5"/>
    <rect x="270" y="432.0" width="758.0" height="20" rx="2" style="fill:#e7f0f8;stroke:#72afe6;stroke-width:1.6"/><rect x="270" y="432.0" width="0.8" height="20" style="fill:#3178c6;fill-opacity:0.5"/><rect x="270.8" y="432.0" width="50.3" height="20" style="fill:#3178c6"/><g transform="translate(38.00 434.00) scale(1.000)" style="fill:none;stroke:#3178c6;stroke-width:1.5">
    <path d="M2.5 5.5 5.4 8l2.6-4 2.6 4 2.9-2.5-.8 6H3.3l-.8-6Z" style="stroke-linejoin:round"/>
    <path d="M3.5 12.5 h9" style="stroke-linecap:round"/>
   </g>
    <text x="60" y="448.0" style="fill:#3178c6;font-size:17px;font-weight:700">@ttsc/graph</text>
    <text x="1204" y="448.0" style="fill:#526b82;font-size:17px;font-weight:700;text-anchor:end">1.1s / 66s</text>
    <rect x="270" y="462.0" width="758.0" height="20" rx="2" style="fill:#e7f0f8;stroke:#c7dff4;stroke-width:1"/><rect x="270" y="462.0" width="15.6" height="20" style="fill:#d97706;fill-opacity:0.5"/><rect x="285.6" y="462.0" width="43.7" height="20" style="fill:#d97706"/>
    <text x="60" y="478.0" style="fill:#d97706;font-size:17px">codegraph</text>
    <text x="1204" y="478.0" style="fill:#526b82;font-size:17px;font-weight:500;text-anchor:end">21s / 58s</text>
    <rect x="270" y="492.0" width="758.0" height="20" rx="2" style="fill:#e7f0f8;stroke:#c7dff4;stroke-width:1"/><rect x="270" y="492.0" width="1.1" height="20" style="fill:#15803d;fill-opacity:0.5"/><rect x="271.1" y="492.0" width="103.9" height="20" style="fill:#15803d"/>
    <text x="60" y="508.0" style="fill:#15803d;font-size:17px">codebase-memory</text>
    <text x="1204" y="508.0" style="fill:#526b82;font-size:17px;font-weight:500;text-anchor:end">1.4s / 137s</text>
    <rect x="270" y="522.0" width="758.0" height="20" rx="2" style="fill:#e7f0f8;stroke:#c7dff4;stroke-width:1"/><rect x="270" y="522.0" width="13.5" height="20" style="fill:#7e22ce;fill-opacity:0.5"/><rect x="283.5" y="522.0" width="95.7" height="20" style="fill:#7e22ce"/>
    <text x="60" y="538.0" style="fill:#7e22ce;font-size:17px">serena</text>
    <text x="1204" y="538.0" style="fill:#526b82;font-size:17px;font-weight:500;text-anchor:end">18s / 126s</text>
  <rect x="28" y="580.0" width="1184.0" height="212.0" rx="10" style="fill:#e8f2fb;fill-opacity:0.8"/>
   <text x="60" y="610.0" style="fill:#102a43;font-size:22px;font-weight:700">RxJS</text>
   <text x="1204" y="609.0" style="fill:#94a3b8;font-size:15px;text-anchor:end">91,238 lines</text>
   <rect x="270" y="626.0" width="758.0" height="20" rx="2" style="fill:#e7f0f8;stroke:#c7dff4;stroke-width:1"/><rect x="270.0" y="626.0" width="88.5" height="20" style="fill:#94a3b8"/>
    <text x="60" y="642.0" style="fill:#64748b;font-size:17px">baseline</text>
    <text x="1204" y="642.0" style="fill:#526b82;font-size:17px;font-weight:500;text-anchor:end">0s / 117s</text>
    <rect x="268.0" y="654.0" width="762.0" height="24.0" rx="4" style="fill:none;stroke:#72afe6;stroke-opacity:0.18;stroke-width:3.5"/>
    <rect x="270" y="656.0" width="758.0" height="20" rx="2" style="fill:#e7f0f8;stroke:#72afe6;stroke-width:1.6"/><rect x="270" y="656.0" width="0.6" height="20" style="fill:#3178c6;fill-opacity:0.5"/><rect x="270.6" y="656.0" width="33.1" height="20" style="fill:#3178c6"/><g transform="translate(38.00 658.00) scale(1.000)" style="fill:none;stroke:#3178c6;stroke-width:1.5">
    <path d="M2.5 5.5 5.4 8l2.6-4 2.6 4 2.9-2.5-.8 6H3.3l-.8-6Z" style="stroke-linejoin:round"/>
    <path d="M3.5 12.5 h9" style="stroke-linecap:round"/>
   </g>
    <text x="60" y="672.0" style="fill:#3178c6;font-size:17px;font-weight:700">@ttsc/graph</text>
    <text x="1204" y="672.0" style="fill:#526b82;font-size:17px;font-weight:700;text-anchor:end">0.8s / 44s</text>
    <rect x="270" y="686.0" width="758.0" height="20" rx="2" style="fill:#e7f0f8;stroke:#c7dff4;stroke-width:1"/><rect x="270" y="686.0" width="12.2" height="20" style="fill:#d97706;fill-opacity:0.5"/><rect x="282.2" y="686.0" width="49.3" height="20" style="fill:#d97706"/>
    <text x="60" y="702.0" style="fill:#d97706;font-size:17px">codegraph</text>
    <text x="1204" y="702.0" style="fill:#526b82;font-size:17px;font-weight:500;text-anchor:end">16s / 65s</text>
    <rect x="270" y="716.0" width="758.0" height="20" rx="2" style="fill:#e7f0f8;stroke:#c7dff4;stroke-width:1"/><rect x="270" y="716.0" width="1.0" height="20" style="fill:#15803d;fill-opacity:0.5"/><rect x="271.0" y="716.0" width="90.7" height="20" style="fill:#15803d"/>
    <text x="60" y="732.0" style="fill:#15803d;font-size:17px">codebase-memory</text>
    <text x="1204" y="732.0" style="fill:#526b82;font-size:17px;font-weight:500;text-anchor:end">1.3s / 120s</text>
    <rect x="270" y="746.0" width="758.0" height="20" rx="2" style="fill:#e7f0f8;stroke:#c7dff4;stroke-width:1"/><rect x="270" y="746.0" width="11.3" height="20" style="fill:#7e22ce;fill-opacity:0.5"/><rect x="281.3" y="746.0" width="82.5" height="20" style="fill:#7e22ce"/>
    <text x="60" y="762.0" style="fill:#7e22ce;font-size:17px">serena</text>
    <text x="1204" y="762.0" style="fill:#526b82;font-size:17px;font-weight:500;text-anchor:end">15s / 109s</text>
  <rect x="28" y="804.0" width="1184.0" height="182.0" rx="10" style="fill:#e8f2fb;fill-opacity:0.4"/>
   <text x="60" y="834.0" style="fill:#102a43;font-size:22px;font-weight:700">Shopping</text>
   <text x="1204" y="833.0" style="fill:#94a3b8;font-size:15px;text-anchor:end">51,478 lines</text>
   <rect x="270" y="850.0" width="758.0" height="20" rx="2" style="fill:#e7f0f8;stroke:#c7dff4;stroke-width:1"/><rect x="270.0" y="850.0" width="98.1" height="20" style="fill:#94a3b8"/>
    <text x="60" y="866.0" style="fill:#64748b;font-size:17px">baseline</text>
    <text x="1204" y="866.0" style="fill:#526b82;font-size:17px;font-weight:500;text-anchor:end">0s / 129s</text>
    <rect x="268.0" y="878.0" width="762.0" height="24.0" rx="4" style="fill:none;stroke:#72afe6;stroke-opacity:0.18;stroke-width:3.5"/>
    <rect x="270" y="880.0" width="758.0" height="20" rx="2" style="fill:#e7f0f8;stroke:#72afe6;stroke-width:1.6"/><rect x="270" y="880.0" width="0.8" height="20" style="fill:#3178c6;fill-opacity:0.5"/><rect x="270.8" y="880.0" width="29.4" height="20" style="fill:#3178c6"/><g transform="translate(38.00 882.00) scale(1.000)" style="fill:none;stroke:#3178c6;stroke-width:1.5">
    <path d="M2.5 5.5 5.4 8l2.6-4 2.6 4 2.9-2.5-.8 6H3.3l-.8-6Z" style="stroke-linejoin:round"/>
    <path d="M3.5 12.5 h9" style="stroke-linecap:round"/>
   </g>
    <text x="60" y="896.0" style="fill:#3178c6;font-size:17px;font-weight:700">@ttsc/graph</text>
    <text x="1204" y="896.0" style="fill:#526b82;font-size:17px;font-weight:700;text-anchor:end">1.0s / 39s</text>
    <rect x="270" y="910.0" width="758.0" height="20" rx="2" style="fill:#e7f0f8;stroke:#c7dff4;stroke-width:1"/><rect x="270" y="910.0" width="7.1" height="20" style="fill:#d97706;fill-opacity:0.5"/><rect x="277.1" y="910.0" width="51.6" height="20" style="fill:#d97706"/>
    <text x="60" y="926.0" style="fill:#d97706;font-size:17px">codegraph</text>
    <text x="1204" y="926.0" style="fill:#526b82;font-size:17px;font-weight:500;text-anchor:end">9.4s / 68s</text>
    <rect x="270" y="940.0" width="758.0" height="20" rx="2" style="fill:#e7f0f8;stroke:#c7dff4;stroke-width:1"/><rect x="270" y="940.0" width="9.7" height="20" style="fill:#7e22ce;fill-opacity:0.5"/><rect x="279.7" y="940.0" width="126.5" height="20" style="fill:#7e22ce"/>
    <text x="60" y="956.0" style="fill:#7e22ce;font-size:17px">serena</text>
    <text x="1204" y="956.0" style="fill:#526b82;font-size:17px;font-weight:500;text-anchor:end">13s / 167s</text>
  <rect x="28" y="998.0" width="1184.0" height="212.0" rx="10" style="fill:#e8f2fb;fill-opacity:0.8"/>
   <text x="60" y="1028.0" style="fill:#102a43;font-size:22px;font-weight:700">TypeORM</text>
   <text x="1204" y="1027.0" style="fill:#94a3b8;font-size:15px;text-anchor:end">299,837 lines</text>
   <rect x="270" y="1044.0" width="758.0" height="20" rx="2" style="fill:#e7f0f8;stroke:#c7dff4;stroke-width:1"/><rect x="270.0" y="1044.0" width="128.3" height="20" style="fill:#94a3b8"/>
    <text x="60" y="1060.0" style="fill:#64748b;font-size:17px">baseline</text>
    <text x="1204" y="1060.0" style="fill:#526b82;font-size:17px;font-weight:500;text-anchor:end">0s / 169s</text>
    <rect x="268.0" y="1072.0" width="762.0" height="24.0" rx="4" style="fill:none;stroke:#72afe6;stroke-opacity:0.18;stroke-width:3.5"/>
    <rect x="270" y="1074.0" width="758.0" height="20" rx="2" style="fill:#e7f0f8;stroke:#72afe6;stroke-width:1.6"/><rect x="270" y="1074.0" width="1.8" height="20" style="fill:#3178c6;fill-opacity:0.5"/><rect x="271.8" y="1074.0" width="37.8" height="20" style="fill:#3178c6"/><g transform="translate(38.00 1076.00) scale(1.000)" style="fill:none;stroke:#3178c6;stroke-width:1.5">
    <path d="M2.5 5.5 5.4 8l2.6-4 2.6 4 2.9-2.5-.8 6H3.3l-.8-6Z" style="stroke-linejoin:round"/>
    <path d="M3.5 12.5 h9" style="stroke-linecap:round"/>
   </g>
    <text x="60" y="1090.0" style="fill:#3178c6;font-size:17px;font-weight:700">@ttsc/graph</text>
    <text x="1204" y="1090.0" style="fill:#526b82;font-size:17px;font-weight:700;text-anchor:end">2.4s / 50s</text>
    <rect x="270" y="1104.0" width="758.0" height="20" rx="2" style="fill:#e7f0f8;stroke:#c7dff4;stroke-width:1"/><rect x="270" y="1104.0" width="41.9" height="20" style="fill:#d97706;fill-opacity:0.5"/><rect x="311.9" y="1104.0" width="48.7" height="20" style="fill:#d97706"/>
    <text x="60" y="1120.0" style="fill:#d97706;font-size:17px">codegraph</text>
    <text x="1204" y="1120.0" style="fill:#526b82;font-size:17px;font-weight:500;text-anchor:end">55s / 64s</text>
    <rect x="270" y="1134.0" width="758.0" height="20" rx="2" style="fill:#e7f0f8;stroke:#c7dff4;stroke-width:1"/><rect x="270" y="1134.0" width="2.3" height="20" style="fill:#15803d;fill-opacity:0.5"/><rect x="272.3" y="1134.0" width="76.9" height="20" style="fill:#15803d"/>
    <text x="60" y="1150.0" style="fill:#15803d;font-size:17px">codebase-memory</text>
    <text x="1204" y="1150.0" style="fill:#526b82;font-size:17px;font-weight:500;text-anchor:end">3.0s / 101s</text>
    <rect x="270" y="1164.0" width="758.0" height="20" rx="2" style="fill:#e7f0f8;stroke:#c7dff4;stroke-width:1"/><rect x="270" y="1164.0" width="21.9" height="20" style="fill:#7e22ce;fill-opacity:0.5"/><rect x="291.9" y="1164.0" width="89.7" height="20" style="fill:#7e22ce"/>
    <text x="60" y="1180.0" style="fill:#7e22ce;font-size:17px">serena</text>
    <text x="1204" y="1180.0" style="fill:#526b82;font-size:17px;font-weight:500;text-anchor:end">29s / 118s</text>
  <rect x="28" y="1222.0" width="1184.0" height="212.0" rx="10" style="fill:#e8f2fb;fill-opacity:0.4"/>
   <text x="60" y="1252.0" style="fill:#102a43;font-size:22px;font-weight:700">VS Code</text>
   <text x="1204" y="1251.0" style="fill:#94a3b8;font-size:15px;text-anchor:end">3,094,212 lines</text>
   <rect x="270" y="1268.0" width="758.0" height="20" rx="2" style="fill:#e7f0f8;stroke:#c7dff4;stroke-width:1"/><rect x="270.0" y="1268.0" width="129.3" height="20" style="fill:#94a3b8"/>
    <text x="60" y="1284.0" style="fill:#64748b;font-size:17px">baseline</text>
    <text x="1204" y="1284.0" style="fill:#526b82;font-size:17px;font-weight:500;text-anchor:end">0s / 171s</text>
    <rect x="268.0" y="1296.0" width="762.0" height="24.0" rx="4" style="fill:none;stroke:#72afe6;stroke-opacity:0.18;stroke-width:3.5"/>
    <rect x="270" y="1298.0" width="758.0" height="20" rx="2" style="fill:#e7f0f8;stroke:#72afe6;stroke-width:1.6"/><rect x="270" y="1298.0" width="21.7" height="20" style="fill:#3178c6;fill-opacity:0.5"/><rect x="291.7" y="1298.0" width="77.0" height="20" style="fill:#3178c6"/><g transform="translate(38.00 1300.00) scale(1.000)" style="fill:none;stroke:#3178c6;stroke-width:1.5">
    <path d="M2.5 5.5 5.4 8l2.6-4 2.6 4 2.9-2.5-.8 6H3.3l-.8-6Z" style="stroke-linejoin:round"/>
    <path d="M3.5 12.5 h9" style="stroke-linecap:round"/>
   </g>
    <text x="60" y="1314.0" style="fill:#3178c6;font-size:17px;font-weight:700">@ttsc/graph</text>
    <text x="1204" y="1314.0" style="fill:#526b82;font-size:17px;font-weight:700;text-anchor:end">29s / 102s</text>
    <rect x="270" y="1328.0" width="758.0" height="20" rx="2" style="fill:#e7f0f8;stroke:#c7dff4;stroke-width:1"/><rect x="270" y="1328.0" width="554.5" height="20" style="fill:#d97706;fill-opacity:0.5"/><rect x="824.5" y="1328.0" width="82.4" height="20" style="fill:#d97706"/>
    <text x="60" y="1344.0" style="fill:#d97706;font-size:17px">codegraph</text>
    <text x="1204" y="1344.0" style="fill:#526b82;font-size:17px;font-weight:500;text-anchor:end">731s / 109s</text>
    <rect x="270" y="1358.0" width="758.0" height="20" rx="2" style="fill:#e7f0f8;stroke:#c7dff4;stroke-width:1"/><rect x="270" y="1358.0" width="90.0" height="20" style="fill:#15803d;fill-opacity:0.5"/><rect x="360.0" y="1358.0" width="89.4" height="20" style="fill:#15803d"/>
    <text x="60" y="1374.0" style="fill:#15803d;font-size:17px">codebase-memory</text>
    <text x="1204" y="1374.0" style="fill:#526b82;font-size:17px;font-weight:500;text-anchor:end">119s / 118s</text>
    <rect x="270" y="1388.0" width="758.0" height="20" rx="2" style="fill:#e7f0f8;stroke:#c7dff4;stroke-width:1"/><rect x="270" y="1388.0" width="207.6" height="20" style="fill:#7e22ce;fill-opacity:0.5"/><rect x="477.6" y="1388.0" width="130.8" height="20" style="fill:#7e22ce"/>
    <text x="60" y="1404.0" style="fill:#7e22ce;font-size:17px">serena</text>
    <text x="1204" y="1404.0" style="fill:#526b82;font-size:17px;font-weight:500;text-anchor:end">274s / 173s</text>
  <rect x="28" y="1446.0" width="1184.0" height="212.0" rx="10" style="fill:#e8f2fb;fill-opacity:0.8"/>
   <text x="60" y="1476.0" style="fill:#102a43;font-size:22px;font-weight:700">Vue</text>
   <text x="1204" y="1475.0" style="fill:#94a3b8;font-size:15px;text-anchor:end">151,184 lines</text>
   <rect x="270" y="1492.0" width="758.0" height="20" rx="2" style="fill:#e7f0f8;stroke:#c7dff4;stroke-width:1"/><rect x="270.0" y="1492.0" width="113.6" height="20" style="fill:#94a3b8"/>
    <text x="60" y="1508.0" style="fill:#64748b;font-size:17px">baseline</text>
    <text x="1204" y="1508.0" style="fill:#526b82;font-size:17px;font-weight:500;text-anchor:end">0s / 150s</text>
    <rect x="268.0" y="1520.0" width="762.0" height="24.0" rx="4" style="fill:none;stroke:#72afe6;stroke-opacity:0.18;stroke-width:3.5"/>
    <rect x="270" y="1522.0" width="758.0" height="20" rx="2" style="fill:#e7f0f8;stroke:#72afe6;stroke-width:1.6"/><rect x="270" y="1522.0" width="1.5" height="20" style="fill:#3178c6;fill-opacity:0.5"/><rect x="271.5" y="1522.0" width="37.8" height="20" style="fill:#3178c6"/><g transform="translate(38.00 1524.00) scale(1.000)" style="fill:none;stroke:#3178c6;stroke-width:1.5">
    <path d="M2.5 5.5 5.4 8l2.6-4 2.6 4 2.9-2.5-.8 6H3.3l-.8-6Z" style="stroke-linejoin:round"/>
    <path d="M3.5 12.5 h9" style="stroke-linecap:round"/>
   </g>
    <text x="60" y="1538.0" style="fill:#3178c6;font-size:17px;font-weight:700">@ttsc/graph</text>
    <text x="1204" y="1538.0" style="fill:#526b82;font-size:17px;font-weight:700;text-anchor:end">2.0s / 50s</text>
    <rect x="270" y="1552.0" width="758.0" height="20" rx="2" style="fill:#e7f0f8;stroke:#c7dff4;stroke-width:1"/><rect x="270" y="1552.0" width="9.4" height="20" style="fill:#d97706;fill-opacity:0.5"/><rect x="279.4" y="1552.0" width="53.7" height="20" style="fill:#d97706"/>
    <text x="60" y="1568.0" style="fill:#d97706;font-size:17px">codegraph</text>
    <text x="1204" y="1568.0" style="fill:#526b82;font-size:17px;font-weight:500;text-anchor:end">12s / 71s</text>
    <rect x="270" y="1582.0" width="758.0" height="20" rx="2" style="fill:#e7f0f8;stroke:#c7dff4;stroke-width:1"/><rect x="270" y="1582.0" width="0.8" height="20" style="fill:#15803d;fill-opacity:0.5"/><rect x="270.8" y="1582.0" width="88.6" height="20" style="fill:#15803d"/>
    <text x="60" y="1598.0" style="fill:#15803d;font-size:17px">codebase-memory</text>
    <text x="1204" y="1598.0" style="fill:#526b82;font-size:17px;font-weight:500;text-anchor:end">1.1s / 117s</text>
    <rect x="270" y="1612.0" width="758.0" height="20" rx="2" style="fill:#e7f0f8;stroke:#c7dff4;stroke-width:1"/><rect x="270" y="1612.0" width="9.5" height="20" style="fill:#7e22ce;fill-opacity:0.5"/><rect x="279.5" y="1612.0" width="103.5" height="20" style="fill:#7e22ce"/>
    <text x="60" y="1628.0" style="fill:#7e22ce;font-size:17px">serena</text>
    <text x="1204" y="1628.0" style="fill:#526b82;font-size:17px;font-weight:500;text-anchor:end">13s / 137s</text>
  <rect x="28" y="1670.0" width="1184.0" height="212.0" rx="10" style="fill:#e8f2fb;fill-opacity:0.4"/>
   <text x="60" y="1700.0" style="fill:#102a43;font-size:22px;font-weight:700">Zod</text>
   <text x="1204" y="1699.0" style="fill:#94a3b8;font-size:15px;text-anchor:end">79,306 lines</text>
   <rect x="270" y="1716.0" width="758.0" height="20" rx="2" style="fill:#e7f0f8;stroke:#c7dff4;stroke-width:1"/><rect x="270.0" y="1716.0" width="132.2" height="20" style="fill:#94a3b8"/>
    <text x="60" y="1732.0" style="fill:#64748b;font-size:17px">baseline</text>
    <text x="1204" y="1732.0" style="fill:#526b82;font-size:17px;font-weight:500;text-anchor:end">0s / 174s</text>
    <rect x="268.0" y="1744.0" width="762.0" height="24.0" rx="4" style="fill:none;stroke:#72afe6;stroke-opacity:0.18;stroke-width:3.5"/>
    <rect x="270" y="1746.0" width="758.0" height="20" rx="2" style="fill:#e7f0f8;stroke:#72afe6;stroke-width:1.6"/><rect x="270" y="1746.0" width="1.2" height="20" style="fill:#3178c6;fill-opacity:0.5"/><rect x="271.2" y="1746.0" width="34.3" height="20" style="fill:#3178c6"/><g transform="translate(38.00 1748.00) scale(1.000)" style="fill:none;stroke:#3178c6;stroke-width:1.5">
    <path d="M2.5 5.5 5.4 8l2.6-4 2.6 4 2.9-2.5-.8 6H3.3l-.8-6Z" style="stroke-linejoin:round"/>
    <path d="M3.5 12.5 h9" style="stroke-linecap:round"/>
   </g>
    <text x="60" y="1762.0" style="fill:#3178c6;font-size:17px;font-weight:700">@ttsc/graph</text>
    <text x="1204" y="1762.0" style="fill:#526b82;font-size:17px;font-weight:700;text-anchor:end">1.5s / 45s</text>
    <rect x="270" y="1776.0" width="758.0" height="20" rx="2" style="fill:#e7f0f8;stroke:#c7dff4;stroke-width:1"/><rect x="270" y="1776.0" width="7.8" height="20" style="fill:#d97706;fill-opacity:0.5"/><rect x="277.8" y="1776.0" width="51.4" height="20" style="fill:#d97706"/>
    <text x="60" y="1792.0" style="fill:#d97706;font-size:17px">codegraph</text>
    <text x="1204" y="1792.0" style="fill:#526b82;font-size:17px;font-weight:500;text-anchor:end">10s / 68s</text>
    <rect x="270" y="1806.0" width="758.0" height="20" rx="2" style="fill:#e7f0f8;stroke:#c7dff4;stroke-width:1"/><rect x="270" y="1806.0" width="0.6" height="20" style="fill:#15803d;fill-opacity:0.5"/><rect x="270.6" y="1806.0" width="91.3" height="20" style="fill:#15803d"/>
    <text x="60" y="1822.0" style="fill:#15803d;font-size:17px">codebase-memory</text>
    <text x="1204" y="1822.0" style="fill:#526b82;font-size:17px;font-weight:500;text-anchor:end">0.8s / 120s</text>
    <rect x="270" y="1836.0" width="758.0" height="20" rx="2" style="fill:#e7f0f8;stroke:#c7dff4;stroke-width:1"/><rect x="270" y="1836.0" width="7.3" height="20" style="fill:#7e22ce;fill-opacity:0.5"/><rect x="277.3" y="1836.0" width="89.3" height="20" style="fill:#7e22ce"/>
    <text x="60" y="1852.0" style="fill:#7e22ce;font-size:17px">serena</text>
    <text x="1204" y="1852.0" style="fill:#526b82;font-size:17px;font-weight:500;text-anchor:end">9.6s / 118s</text>
</svg>
