<?xml version="1.0" encoding="utf-8" standalone="no"?>
<svg xmlns="http://www.w3.org/2000/svg" width="1040" height="474" viewBox="0 0 1040 474" version="1.1" role="img" aria-label="Cold time to a first answer — VS Code, 3.4M lines (lower is better)">
 <rect width="1040" height="474" fill="#0b0f14"/>
 <text x="40" y="42" fill="#f8fafc" font-size="20" font-weight="bold" font-family="DejaVu Sans, Arial, sans-serif">Cold time to a first answer — VS Code, 3.4M lines (lower is better)</text>
 <text x="40" y="62" fill="#64748b" font-size="12" font-family="DejaVu Sans, Arial, sans-serif">AMD Ryzen 9 7940HS w/ Radeon 780M Graphics, 16 cores, 31 GB — Windows_NT 10.0.26200</text>
 <text x="40" y="454" fill="#64748b" font-size="12.5" font-family="DejaVu Sans, Arial, sans-serif">Cold checkout: build the tool's index once, then ask. LLM time is the median wall clock over four models and both prompt families; the baseline has no index to build.</text>
  <rect x="40" y="76" width="13" height="13" fill="#94a3b8" rx="2"/>
  <text x="59" y="87" fill="#cbd5f5" font-size="13.5">baseline</text>
  <rect x="220" y="76" width="13" height="13" fill="#22d3ee" rx="2"/>
  <text x="239" y="87" fill="#cbd5f5" font-size="13.5">@ttsc/graph</text>
  <rect x="400" y="76" width="13" height="13" fill="#f59e0b" rx="2"/>
  <text x="419" y="87" fill="#cbd5f5" font-size="13.5">codegraph</text>
  <rect x="580" y="76" width="13" height="13" fill="#a3e635" rx="2"/>
  <text x="599" y="87" fill="#cbd5f5" font-size="13.5">codebase-memory</text>
  <rect x="760" y="76" width="13" height="13" fill="#f472b6" rx="2"/>
  <text x="779" y="87" fill="#cbd5f5" font-size="13.5">serena</text>
  <rect x="40" y="102" width="60" height="17" fill="#22d3ee" fill-opacity="0.35" rx="2"/>
  <rect x="100" y="102" width="40" height="17" fill="#22d3ee" rx="2"/>
  <text x="70" y="115" fill="#e2e8f0" font-size="11" font-weight="bold" text-anchor="middle">index</text>
  <text x="120" y="115" fill="#0b0f14" font-size="11" font-weight="bold" text-anchor="middle">LLM</text>
  <text x="150" y="115" fill="#cbd5f5" font-size="13">faded = index build, solid = LLM answering — each bar is labelled index / LLM</text>
  <rect x="160" y="157.0" width="740" height="230.0" fill="#111a24" fill-opacity="0.6" rx="3"/>
  <line x1="160.0" y1="150" x2="160.0" y2="394" stroke="#1f2937" stroke-width="1"/>
  <text x="160.0" y="416" fill="#94a3b8" font-size="12" text-anchor="middle">0 s</text>
  <line x1="345.0" y1="150" x2="345.0" y2="394" stroke="#1f2937" stroke-width="1"/>
  <text x="345.0" y="416" fill="#94a3b8" font-size="12" text-anchor="middle">250 s</text>
  <line x1="530.0" y1="150" x2="530.0" y2="394" stroke="#1f2937" stroke-width="1"/>
  <text x="530.0" y="416" fill="#94a3b8" font-size="12" text-anchor="middle">500 s</text>
  <line x1="715.0" y1="150" x2="715.0" y2="394" stroke="#1f2937" stroke-width="1"/>
  <text x="715.0" y="416" fill="#94a3b8" font-size="12" text-anchor="middle">750 s</text>
  <line x1="900.0" y1="150" x2="900.0" y2="394" stroke="#1f2937" stroke-width="1"/>
  <text x="900.0" y="416" fill="#94a3b8" font-size="12" text-anchor="middle">1,000 s</text>
  <text x="148" y="268.0" fill="#e2e8f0" font-size="13" text-anchor="end">vscode</text>
  <text x="148" y="284.0" fill="#64748b" font-size="10" text-anchor="end">3,094,212 lines</text>
  <rect x="160.0" y="172.0" width="126.2" height="28" fill="#94a3b8" rx="2"/>
  <text x="294.2" y="190.0" fill="#cbd5f5" font-size="13">0s / 171s</text>
  <rect x="160" y="212.0" width="21.2" height="28" fill="#22d3ee" fill-opacity="0.35" rx="2"/>
  <rect x="181.2" y="212.0" width="75.2" height="28" fill="#22d3ee" rx="2"/>
  <text x="264.4" y="230.0" fill="#cbd5f5" font-size="13">29s / 102s</text>
  <rect x="160" y="252.0" width="541.3" height="28" fill="#f59e0b" fill-opacity="0.35" rx="2"/>
  <rect x="701.3" y="252.0" width="80.5" height="28" fill="#f59e0b" rx="2"/>
  <text x="789.7" y="270.0" fill="#cbd5f5" font-size="13">731s / 109s</text>
  <rect x="160" y="292.0" width="87.9" height="28" fill="#a3e635" fill-opacity="0.35" rx="2"/>
  <rect x="247.9" y="292.0" width="87.3" height="28" fill="#a3e635" rx="2"/>
  <text x="343.2" y="310.0" fill="#cbd5f5" font-size="13">119s / 118s</text>
  <rect x="160" y="332.0" width="202.7" height="28" fill="#f472b6" fill-opacity="0.35" rx="2"/>
  <rect x="362.7" y="332.0" width="127.7" height="28" fill="#f472b6" rx="2"/>
  <text x="498.4" y="350.0" fill="#cbd5f5" font-size="13">274s / 173s</text>
</svg>
