<?xml version="1.0" encoding="utf-8" standalone="no"?>
<svg xmlns="http://www.w3.org/2000/svg" width="1240" height="430" viewBox="0 0 1240 430" version="1.1" role="img" aria-label="Cold time to a first answer — VS Code, 3.4M lines (lower is better)">
 <defs><style type="text/css">text{font-family:DejaVu Sans, Arial, sans-serif}</style></defs>
 <rect width="1240" height="430" style="fill:#05070b"/>
 <text x="36" y="48" style="fill:#f8fafc;font-size:27px;font-weight:700">Cold time to a first answer — VS Code, 3.4M lines (lower is better)</text>
 <rect x="36" y="70" width="62" height="24" rx="4" style="fill:#22d3ee;fill-opacity:0.35"/>
 <text x="67" y="87" style="fill:#e2e8f0;font-size:13px;font-weight:700;text-anchor:middle">index</text>
 <rect x="98" y="70" width="52" height="24" rx="4" style="fill:#22d3ee"/>
 <text x="124" y="87" style="fill:#0b0f14;font-size:13px;font-weight:700;text-anchor:middle">LLM</text>
 <text x="164" y="88" style="fill:#94a3b8;font-size:15px">faded = index build, solid = LLM answering — each bar is labelled index / LLM</text>
 <rect x="28" y="132.0" width="1184.0" height="262.0" rx="10" style="fill:#111a24;fill-opacity:0.55"/>
   <text x="60" y="162.0" style="fill:#f8fafc;font-size:22px;font-weight:700">VS Code</text>
   <text x="1204" y="161.0" style="fill:#94a3b8;font-size:15px;text-anchor:end">3,094,212 lines</text>
   <rect x="270" y="178.0" width="758.0" height="28" rx="2" style="fill:undefined;stroke:#ffffff;stroke-opacity:0.05;stroke-width:1"/><rect x="270.0" y="178.0" width="129.3" height="28" style="fill:#94a3b8"/>
    <text x="60" y="198.0" style="fill:#9aa3b2;font-size:18px">baseline</text>
    <text x="1204" y="198.0" style="fill:#e2e8f0;font-size:18px;font-weight:500;text-anchor:end">0s / 171s</text>
    <rect x="268.0" y="216.0" width="762.0" height="32.0" rx="4" style="fill:none;stroke:#d7f9ff;stroke-opacity:0.18;stroke-width:3.5"/>
    <rect x="270" y="218.0" width="758.0" height="28" rx="2" style="fill:undefined;stroke:#d7f9ff;stroke-width:1.6"/><rect x="270" y="218.0" width="21.7" height="28" style="fill:#22d3ee;fill-opacity:0.5"/><rect x="291.7" y="218.0" width="77.0" height="28" style="fill:#22d3ee"/><g transform="translate(38.00 223.00) scale(1.125)" style="fill:none;stroke:#36e2ee;stroke-width:1.5">
    <path d="M2.5 5.5 5.4 8l2.6-4 2.6 4 2.9-2.5-.8 6H3.3l-.8-6Z" style="stroke-linejoin:round"/>
    <path d="M3.5 12.5 h9" style="stroke-linecap:round"/>
   </g>
    <text x="60" y="238.0" style="fill:#22d3ee;font-size:18px;font-weight:700">@ttsc/graph</text>
    <text x="1204" y="238.0" style="fill:#e2e8f0;font-size:18px;font-weight:700;text-anchor:end">29s / 102s</text>
    <rect x="270" y="258.0" width="758.0" height="28" rx="2" style="fill:undefined;stroke:#ffffff;stroke-opacity:0.05;stroke-width:1"/><rect x="270" y="258.0" width="554.5" height="28" style="fill:#f59e0b;fill-opacity:0.5"/><rect x="824.5" y="258.0" width="82.4" height="28" style="fill:#f59e0b"/>
    <text x="60" y="278.0" style="fill:#f59e0b;font-size:18px">codegraph</text>
    <text x="1204" y="278.0" style="fill:#e2e8f0;font-size:18px;font-weight:500;text-anchor:end">731s / 109s</text>
    <rect x="270" y="298.0" width="758.0" height="28" rx="2" style="fill:undefined;stroke:#ffffff;stroke-opacity:0.05;stroke-width:1"/><rect x="270" y="298.0" width="90.0" height="28" style="fill:#a3e635;fill-opacity:0.5"/><rect x="360.0" y="298.0" width="89.4" height="28" style="fill:#a3e635"/>
    <text x="60" y="318.0" style="fill:#a3e635;font-size:18px">codebase-memory</text>
    <text x="1204" y="318.0" style="fill:#e2e8f0;font-size:18px;font-weight:500;text-anchor:end">119s / 118s</text>
    <rect x="270" y="338.0" width="758.0" height="28" rx="2" style="fill:undefined;stroke:#ffffff;stroke-opacity:0.05;stroke-width:1"/><rect x="270" y="338.0" width="207.6" height="28" style="fill:#f472b6;fill-opacity:0.5"/><rect x="477.6" y="338.0" width="130.8" height="28" style="fill:#f472b6"/>
    <text x="60" y="358.0" style="fill:#f472b6;font-size:18px">serena</text>
    <text x="1204" y="358.0" style="fill:#e2e8f0;font-size:18px;font-weight:500;text-anchor:end">274s / 173s</text>
</svg>
