<?xml version="1.0" encoding="utf-8" standalone="no"?>
<svg xmlns="http://www.w3.org/2000/svg" width="1240" height="1884" viewBox="0 0 1240 1884" version="1.1" role="img" aria-label="Common prompt median token use, Codex GPT-5.6 sol">
 <defs><style type="text/css">text{font-family:DejaVu Sans, Arial, sans-serif}</style></defs>
 <rect width="1240" height="1884" style="fill:#05070b"/>
 <text x="36" y="48" style="fill:#f8fafc;font-size:27px;font-weight:700">Common prompt median token use, Codex GPT-5.6 sol</text>
 <text x="36" y="78" style="fill:#94a3b8;font-size:15px">Lower is better</text>
 <rect x="28" y="100.0" width="1184.0" height="208.0" rx="10" style="fill:#111a24;fill-opacity:0.55"/>
   <text x="60" y="130.0" style="fill:#f8fafc;font-size:22px;font-weight:700">Excalidraw</text>
   <rect x="270" y="144.0" width="758.0" height="20" rx="10.0" style="fill:undefined;stroke:#ffffff;stroke-opacity:0.05;stroke-width:1"/><rect x="270" y="144.0" width="388.7" height="20" rx="10.0" style="fill:#94a3b8"/>
    <text x="60" y="160.0" style="fill:#9aa3b2;font-size:17px">baseline</text>
    <text x="1204" y="160.0" style="fill:#cbd5e1;font-size:17px;font-weight:500;text-anchor:end">5.1M tokens</text>
    <rect x="268.0" y="172.0" width="762.0" height="24.0" rx="12.0" style="fill:none;stroke:#d7f9ff;stroke-opacity:0.18;stroke-width:3.5"/>
    <rect x="270" y="174.0" width="758.0" height="20" rx="10.0" style="fill:undefined;stroke:#d7f9ff;stroke-width:1.6"/><rect x="270" y="174.0" width="5.6" height="20" rx="10.0" style="fill:#22d3ee"/><g transform="translate(38.00 176.00) scale(1.000)" style="fill:none;stroke:#36e2ee;stroke-width:1.5">
    <path d="M2.5 5.5 5.4 8l2.6-4 2.6 4 2.9-2.5-.8 6H3.3l-.8-6Z" style="stroke-linejoin:round"/>
    <path d="M3.5 12.5 h9" style="stroke-linecap:round"/>
   </g>
    <text x="60" y="190.0" style="fill:#22d3ee;font-size:17px;font-weight:700">@ttsc/graph</text>
    <text x="1204" y="190.0" style="fill:#36e2ee;font-size:17px;font-weight:700;text-anchor:end">99% saved</text>
    <rect x="270" y="204.0" width="758.0" height="20" rx="10.0" style="fill:undefined;stroke:#ffffff;stroke-opacity:0.05;stroke-width:1"/><rect x="270" y="204.0" width="53.0" height="20" rx="10.0" style="fill:#f59e0b"/>
    <text x="60" y="220.0" style="fill:#f59e0b;font-size:17px">codegraph</text>
    <text x="1204" y="220.0" style="fill:#cbd5e1;font-size:17px;font-weight:500;text-anchor:end">86% saved</text>
    <rect x="270" y="234.0" width="758.0" height="20" rx="10.0" style="fill:undefined;stroke:#ffffff;stroke-opacity:0.05;stroke-width:1"/><rect x="270" y="234.0" width="294.0" height="20" rx="10.0" style="fill:#a3e635"/>
    <text x="60" y="250.0" style="fill:#a3e635;font-size:17px">codebase-memory</text>
    <text x="1204" y="250.0" style="fill:#cbd5e1;font-size:17px;font-weight:500;text-anchor:end">24% saved</text>
    <rect x="270" y="264.0" width="758.0" height="20" rx="10.0" style="fill:undefined;stroke:#ffffff;stroke-opacity:0.05;stroke-width:1"/><rect x="270" y="264.0" width="181.6" height="20" rx="10.0" style="fill:#f472b6"/>
    <text x="60" y="280.0" style="fill:#f472b6;font-size:17px">serena</text>
    <text x="1204" y="280.0" style="fill:#cbd5e1;font-size:17px;font-weight:500;text-anchor:end">53% saved</text>
  <rect x="28" y="320.0" width="1184.0" height="208.0" rx="10" style="fill:#111a24;fill-opacity:0.25"/>
   <text x="60" y="350.0" style="fill:#f8fafc;font-size:22px;font-weight:700">NestJS</text>
   <rect x="270" y="364.0" width="758.0" height="20" rx="10.0" style="fill:undefined;stroke:#ffffff;stroke-opacity:0.05;stroke-width:1"/><rect x="270" y="364.0" width="54.8" height="20" rx="10.0" style="fill:#94a3b8"/>
    <text x="60" y="380.0" style="fill:#9aa3b2;font-size:17px">baseline</text>
    <text x="1204" y="380.0" style="fill:#cbd5e1;font-size:17px;font-weight:500;text-anchor:end">723k tokens</text>
    <rect x="268.0" y="392.0" width="762.0" height="24.0" rx="12.0" style="fill:none;stroke:#d7f9ff;stroke-opacity:0.18;stroke-width:3.5"/>
    <rect x="270" y="394.0" width="758.0" height="20" rx="10.0" style="fill:undefined;stroke:#d7f9ff;stroke-width:1.6"/><rect x="270" y="394.0" width="5.7" height="20" rx="10.0" style="fill:#22d3ee"/><g transform="translate(38.00 396.00) scale(1.000)" style="fill:none;stroke:#36e2ee;stroke-width:1.5">
    <path d="M2.5 5.5 5.4 8l2.6-4 2.6 4 2.9-2.5-.8 6H3.3l-.8-6Z" style="stroke-linejoin:round"/>
    <path d="M3.5 12.5 h9" style="stroke-linecap:round"/>
   </g>
    <text x="60" y="410.0" style="fill:#22d3ee;font-size:17px;font-weight:700">@ttsc/graph</text>
    <text x="1204" y="410.0" style="fill:#36e2ee;font-size:17px;font-weight:700;text-anchor:end">90% saved</text>
    <rect x="270" y="424.0" width="758.0" height="20" rx="10.0" style="fill:undefined;stroke:#ffffff;stroke-opacity:0.05;stroke-width:1"/><rect x="270" y="424.0" width="45.8" height="20" rx="10.0" style="fill:#f59e0b"/>
    <text x="60" y="440.0" style="fill:#f59e0b;font-size:17px">codegraph</text>
    <text x="1204" y="440.0" style="fill:#cbd5e1;font-size:17px;font-weight:500;text-anchor:end">16% saved</text>
    <rect x="270" y="454.0" width="758.0" height="20" rx="10.0" style="fill:undefined;stroke:#ffffff;stroke-opacity:0.05;stroke-width:1"/><rect x="270" y="454.0" width="116.8" height="20" rx="10.0" style="fill:#a3e635"/>
    <text x="60" y="470.0" style="fill:#a3e635;font-size:17px">codebase-memory</text>
    <text x="1204" y="470.0" style="fill:#fb7185;font-size:17px;font-weight:500;text-anchor:end">113% over</text>
    <rect x="270" y="484.0" width="758.0" height="20" rx="10.0" style="fill:undefined;stroke:#ffffff;stroke-opacity:0.05;stroke-width:1"/><rect x="270" y="484.0" width="130.6" height="20" rx="10.0" style="fill:#f472b6"/>
    <text x="60" y="500.0" style="fill:#f472b6;font-size:17px">serena</text>
    <text x="1204" y="500.0" style="fill:#fb7185;font-size:17px;font-weight:500;text-anchor:end">138% over</text>
  <rect x="28" y="540.0" width="1184.0" height="208.0" rx="10" style="fill:#111a24;fill-opacity:0.55"/>
   <text x="60" y="570.0" style="fill:#f8fafc;font-size:22px;font-weight:700">RxJS</text>
   <rect x="270" y="584.0" width="758.0" height="20" rx="10.0" style="fill:undefined;stroke:#ffffff;stroke-opacity:0.05;stroke-width:1"/><rect x="270" y="584.0" width="65.1" height="20" rx="10.0" style="fill:#94a3b8"/>
    <text x="60" y="600.0" style="fill:#9aa3b2;font-size:17px">baseline</text>
    <text x="1204" y="600.0" style="fill:#cbd5e1;font-size:17px;font-weight:500;text-anchor:end">859k tokens</text>
    <rect x="268.0" y="612.0" width="762.0" height="24.0" rx="12.0" style="fill:none;stroke:#d7f9ff;stroke-opacity:0.18;stroke-width:3.5"/>
    <rect x="270" y="614.0" width="758.0" height="20" rx="10.0" style="fill:undefined;stroke:#d7f9ff;stroke-width:1.6"/><rect x="270" y="614.0" width="4.1" height="20" rx="10.0" style="fill:#22d3ee"/><g transform="translate(38.00 616.00) scale(1.000)" style="fill:none;stroke:#36e2ee;stroke-width:1.5">
    <path d="M2.5 5.5 5.4 8l2.6-4 2.6 4 2.9-2.5-.8 6H3.3l-.8-6Z" style="stroke-linejoin:round"/>
    <path d="M3.5 12.5 h9" style="stroke-linecap:round"/>
   </g>
    <text x="60" y="630.0" style="fill:#22d3ee;font-size:17px;font-weight:700">@ttsc/graph</text>
    <text x="1204" y="630.0" style="fill:#36e2ee;font-size:17px;font-weight:700;text-anchor:end">94% saved</text>
    <rect x="270" y="644.0" width="758.0" height="20" rx="10.0" style="fill:undefined;stroke:#ffffff;stroke-opacity:0.05;stroke-width:1"/><rect x="270" y="644.0" width="73.2" height="20" rx="10.0" style="fill:#f59e0b"/>
    <text x="60" y="660.0" style="fill:#f59e0b;font-size:17px">codegraph</text>
    <text x="1204" y="660.0" style="fill:#fb7185;font-size:17px;font-weight:500;text-anchor:end">13% over</text>
    <rect x="270" y="674.0" width="758.0" height="20" rx="10.0" style="fill:undefined;stroke:#ffffff;stroke-opacity:0.05;stroke-width:1"/><rect x="270" y="674.0" width="59.3" height="20" rx="10.0" style="fill:#a3e635"/>
    <text x="60" y="690.0" style="fill:#a3e635;font-size:17px">codebase-memory</text>
    <text x="1204" y="690.0" style="fill:#cbd5e1;font-size:17px;font-weight:500;text-anchor:end">9% saved</text>
    <rect x="270" y="704.0" width="758.0" height="20" rx="10.0" style="fill:undefined;stroke:#ffffff;stroke-opacity:0.05;stroke-width:1"/><rect x="270" y="704.0" width="67.1" height="20" rx="10.0" style="fill:#f472b6"/>
    <text x="60" y="720.0" style="fill:#f472b6;font-size:17px">serena</text>
    <text x="1204" y="720.0" style="fill:#fb7185;font-size:17px;font-weight:500;text-anchor:end">3% over</text>
  <rect x="28" y="760.0" width="1184.0" height="208.0" rx="10" style="fill:#111a24;fill-opacity:0.25"/>
   <text x="60" y="790.0" style="fill:#f8fafc;font-size:22px;font-weight:700">Shopping</text>
   <rect x="270" y="804.0" width="758.0" height="20" rx="10.0" style="fill:undefined;stroke:#ffffff;stroke-opacity:0.05;stroke-width:1"/><rect x="270" y="804.0" width="87.4" height="20" rx="10.0" style="fill:#94a3b8"/>
    <text x="60" y="820.0" style="fill:#9aa3b2;font-size:17px">baseline</text>
    <text x="1204" y="820.0" style="fill:#cbd5e1;font-size:17px;font-weight:500;text-anchor:end">1.2M tokens</text>
    <rect x="268.0" y="832.0" width="762.0" height="24.0" rx="12.0" style="fill:none;stroke:#d7f9ff;stroke-opacity:0.18;stroke-width:3.5"/>
    <rect x="270" y="834.0" width="758.0" height="20" rx="10.0" style="fill:undefined;stroke:#d7f9ff;stroke-width:1.6"/><rect x="270" y="834.0" width="4.2" height="20" rx="10.0" style="fill:#22d3ee"/><g transform="translate(38.00 836.00) scale(1.000)" style="fill:none;stroke:#36e2ee;stroke-width:1.5">
    <path d="M2.5 5.5 5.4 8l2.6-4 2.6 4 2.9-2.5-.8 6H3.3l-.8-6Z" style="stroke-linejoin:round"/>
    <path d="M3.5 12.5 h9" style="stroke-linecap:round"/>
   </g>
    <text x="60" y="850.0" style="fill:#22d3ee;font-size:17px;font-weight:700">@ttsc/graph</text>
    <text x="1204" y="850.0" style="fill:#36e2ee;font-size:17px;font-weight:700;text-anchor:end">95% saved</text>
    <rect x="270" y="864.0" width="758.0" height="20" rx="10.0" style="fill:undefined;stroke:#ffffff;stroke-opacity:0.05;stroke-width:1"/><rect x="270" y="864.0" width="33.0" height="20" rx="10.0" style="fill:#f59e0b"/>
    <text x="60" y="880.0" style="fill:#f59e0b;font-size:17px">codegraph</text>
    <text x="1204" y="880.0" style="fill:#cbd5e1;font-size:17px;font-weight:500;text-anchor:end">62% saved</text>
    <rect x="270" y="894.0" width="758.0" height="20" rx="10.0" style="fill:undefined;stroke:#ffffff;stroke-opacity:0.05;stroke-width:1"/>
    <text x="60" y="910.0" style="fill:#a3e635;font-size:17px">codebase-memory</text>
    <text x="1204" y="910.0" style="fill:#94a3b8;font-size:17px;font-weight:500;text-anchor:end">no data</text>
    <rect x="270" y="924.0" width="758.0" height="20" rx="10.0" style="fill:undefined;stroke:#ffffff;stroke-opacity:0.05;stroke-width:1"/><rect x="270" y="924.0" width="121.8" height="20" rx="10.0" style="fill:#f472b6"/>
    <text x="60" y="940.0" style="fill:#f472b6;font-size:17px">serena</text>
    <text x="1204" y="940.0" style="fill:#fb7185;font-size:17px;font-weight:500;text-anchor:end">39% over</text>
  <rect x="28" y="980.0" width="1184.0" height="208.0" rx="10" style="fill:#111a24;fill-opacity:0.55"/>
   <text x="60" y="1010.0" style="fill:#f8fafc;font-size:22px;font-weight:700">TypeORM</text>
   <rect x="270" y="1024.0" width="758.0" height="20" rx="10.0" style="fill:undefined;stroke:#ffffff;stroke-opacity:0.05;stroke-width:1"/><rect x="270" y="1024.0" width="116.0" height="20" rx="10.0" style="fill:#94a3b8"/>
    <text x="60" y="1040.0" style="fill:#9aa3b2;font-size:17px">baseline</text>
    <text x="1204" y="1040.0" style="fill:#cbd5e1;font-size:17px;font-weight:500;text-anchor:end">1.5M tokens</text>
    <rect x="268.0" y="1052.0" width="762.0" height="24.0" rx="12.0" style="fill:none;stroke:#d7f9ff;stroke-opacity:0.18;stroke-width:3.5"/>
    <rect x="270" y="1054.0" width="758.0" height="20" rx="10.0" style="fill:undefined;stroke:#d7f9ff;stroke-width:1.6"/><rect x="270" y="1054.0" width="5.7" height="20" rx="10.0" style="fill:#22d3ee"/><g transform="translate(38.00 1056.00) scale(1.000)" style="fill:none;stroke:#36e2ee;stroke-width:1.5">
    <path d="M2.5 5.5 5.4 8l2.6-4 2.6 4 2.9-2.5-.8 6H3.3l-.8-6Z" style="stroke-linejoin:round"/>
    <path d="M3.5 12.5 h9" style="stroke-linecap:round"/>
   </g>
    <text x="60" y="1070.0" style="fill:#22d3ee;font-size:17px;font-weight:700">@ttsc/graph</text>
    <text x="1204" y="1070.0" style="fill:#36e2ee;font-size:17px;font-weight:700;text-anchor:end">95% saved</text>
    <rect x="270" y="1084.0" width="758.0" height="20" rx="10.0" style="fill:undefined;stroke:#ffffff;stroke-opacity:0.05;stroke-width:1"/><rect x="270" y="1084.0" width="54.6" height="20" rx="10.0" style="fill:#f59e0b"/>
    <text x="60" y="1100.0" style="fill:#f59e0b;font-size:17px">codegraph</text>
    <text x="1204" y="1100.0" style="fill:#cbd5e1;font-size:17px;font-weight:500;text-anchor:end">53% saved</text>
    <rect x="270" y="1114.0" width="758.0" height="20" rx="10.0" style="fill:undefined;stroke:#ffffff;stroke-opacity:0.05;stroke-width:1"/><rect x="270" y="1114.0" width="139.8" height="20" rx="10.0" style="fill:#a3e635"/>
    <text x="60" y="1130.0" style="fill:#a3e635;font-size:17px">codebase-memory</text>
    <text x="1204" y="1130.0" style="fill:#fb7185;font-size:17px;font-weight:500;text-anchor:end">21% over</text>
    <rect x="270" y="1144.0" width="758.0" height="20" rx="10.0" style="fill:undefined;stroke:#ffffff;stroke-opacity:0.05;stroke-width:1"/><rect x="270" y="1144.0" width="124.5" height="20" rx="10.0" style="fill:#f472b6"/>
    <text x="60" y="1160.0" style="fill:#f472b6;font-size:17px">serena</text>
    <text x="1204" y="1160.0" style="fill:#fb7185;font-size:17px;font-weight:500;text-anchor:end">7% over</text>
  <rect x="28" y="1200.0" width="1184.0" height="208.0" rx="10" style="fill:#111a24;fill-opacity:0.25"/>
   <text x="60" y="1230.0" style="fill:#f8fafc;font-size:22px;font-weight:700">VS Code</text>
   <rect x="270" y="1244.0" width="758.0" height="20" rx="10.0" style="fill:undefined;stroke:#ffffff;stroke-opacity:0.05;stroke-width:1"/><rect x="270" y="1244.0" width="149.7" height="20" rx="10.0" style="fill:#94a3b8"/>
    <text x="60" y="1260.0" style="fill:#9aa3b2;font-size:17px">baseline</text>
    <text x="1204" y="1260.0" style="fill:#cbd5e1;font-size:17px;font-weight:500;text-anchor:end">2.0M tokens</text>
    <rect x="268.0" y="1272.0" width="762.0" height="24.0" rx="12.0" style="fill:none;stroke:#d7f9ff;stroke-opacity:0.18;stroke-width:3.5"/>
    <rect x="270" y="1274.0" width="758.0" height="20" rx="10.0" style="fill:undefined;stroke:#d7f9ff;stroke-width:1.6"/><rect x="270" y="1274.0" width="8.7" height="20" rx="10.0" style="fill:#22d3ee"/><g transform="translate(38.00 1276.00) scale(1.000)" style="fill:none;stroke:#36e2ee;stroke-width:1.5">
    <path d="M2.5 5.5 5.4 8l2.6-4 2.6 4 2.9-2.5-.8 6H3.3l-.8-6Z" style="stroke-linejoin:round"/>
    <path d="M3.5 12.5 h9" style="stroke-linecap:round"/>
   </g>
    <text x="60" y="1290.0" style="fill:#22d3ee;font-size:17px;font-weight:700">@ttsc/graph</text>
    <text x="1204" y="1290.0" style="fill:#36e2ee;font-size:17px;font-weight:700;text-anchor:end">94% saved</text>
    <rect x="270" y="1304.0" width="758.0" height="20" rx="10.0" style="fill:undefined;stroke:#ffffff;stroke-opacity:0.05;stroke-width:1"/><rect x="270" y="1304.0" width="59.8" height="20" rx="10.0" style="fill:#f59e0b"/>
    <text x="60" y="1320.0" style="fill:#f59e0b;font-size:17px">codegraph</text>
    <text x="1204" y="1320.0" style="fill:#cbd5e1;font-size:17px;font-weight:500;text-anchor:end">60% saved</text>
    <rect x="270" y="1334.0" width="758.0" height="20" rx="10.0" style="fill:undefined;stroke:#ffffff;stroke-opacity:0.05;stroke-width:1"/><rect x="270" y="1334.0" width="268.7" height="20" rx="10.0" style="fill:#a3e635"/>
    <text x="60" y="1350.0" style="fill:#a3e635;font-size:17px">codebase-memory</text>
    <text x="1204" y="1350.0" style="fill:#fb7185;font-size:17px;font-weight:500;text-anchor:end">79% over</text>
    <rect x="270" y="1364.0" width="758.0" height="20" rx="10.0" style="fill:undefined;stroke:#ffffff;stroke-opacity:0.05;stroke-width:1"/><rect x="270" y="1364.0" width="311.6" height="20" rx="10.0" style="fill:#f472b6"/>
    <text x="60" y="1380.0" style="fill:#f472b6;font-size:17px">serena</text>
    <text x="1204" y="1380.0" style="fill:#fb7185;font-size:17px;font-weight:500;text-anchor:end">108% over</text>
  <rect x="28" y="1420.0" width="1184.0" height="208.0" rx="10" style="fill:#111a24;fill-opacity:0.55"/>
   <text x="60" y="1450.0" style="fill:#f8fafc;font-size:22px;font-weight:700">Vue</text>
   <rect x="270" y="1464.0" width="758.0" height="20" rx="10.0" style="fill:undefined;stroke:#ffffff;stroke-opacity:0.05;stroke-width:1"/><rect x="270" y="1464.0" width="71.0" height="20" rx="10.0" style="fill:#94a3b8"/>
    <text x="60" y="1480.0" style="fill:#9aa3b2;font-size:17px">baseline</text>
    <text x="1204" y="1480.0" style="fill:#cbd5e1;font-size:17px;font-weight:500;text-anchor:end">936k tokens</text>
    <rect x="268.0" y="1492.0" width="762.0" height="24.0" rx="12.0" style="fill:none;stroke:#d7f9ff;stroke-opacity:0.18;stroke-width:3.5"/>
    <rect x="270" y="1494.0" width="758.0" height="20" rx="10.0" style="fill:undefined;stroke:#d7f9ff;stroke-width:1.6"/><rect x="270" y="1494.0" width="5.6" height="20" rx="10.0" style="fill:#22d3ee"/><g transform="translate(38.00 1496.00) scale(1.000)" style="fill:none;stroke:#36e2ee;stroke-width:1.5">
    <path d="M2.5 5.5 5.4 8l2.6-4 2.6 4 2.9-2.5-.8 6H3.3l-.8-6Z" style="stroke-linejoin:round"/>
    <path d="M3.5 12.5 h9" style="stroke-linecap:round"/>
   </g>
    <text x="60" y="1510.0" style="fill:#22d3ee;font-size:17px;font-weight:700">@ttsc/graph</text>
    <text x="1204" y="1510.0" style="fill:#36e2ee;font-size:17px;font-weight:700;text-anchor:end">92% saved</text>
    <rect x="270" y="1524.0" width="758.0" height="20" rx="10.0" style="fill:undefined;stroke:#ffffff;stroke-opacity:0.05;stroke-width:1"/><rect x="270" y="1524.0" width="85.8" height="20" rx="10.0" style="fill:#f59e0b"/>
    <text x="60" y="1540.0" style="fill:#f59e0b;font-size:17px">codegraph</text>
    <text x="1204" y="1540.0" style="fill:#fb7185;font-size:17px;font-weight:500;text-anchor:end">21% over</text>
    <rect x="270" y="1554.0" width="758.0" height="20" rx="10.0" style="fill:undefined;stroke:#ffffff;stroke-opacity:0.05;stroke-width:1"/><rect x="270" y="1554.0" width="106.5" height="20" rx="10.0" style="fill:#a3e635"/>
    <text x="60" y="1570.0" style="fill:#a3e635;font-size:17px">codebase-memory</text>
    <text x="1204" y="1570.0" style="fill:#fb7185;font-size:17px;font-weight:500;text-anchor:end">50% over</text>
    <rect x="270" y="1584.0" width="758.0" height="20" rx="10.0" style="fill:undefined;stroke:#ffffff;stroke-opacity:0.05;stroke-width:1"/><rect x="270" y="1584.0" width="184.2" height="20" rx="10.0" style="fill:#f472b6"/>
    <text x="60" y="1600.0" style="fill:#f472b6;font-size:17px">serena</text>
    <text x="1204" y="1600.0" style="fill:#fb7185;font-size:17px;font-weight:500;text-anchor:end">160% over</text>
  <rect x="28" y="1640.0" width="1184.0" height="208.0" rx="10" style="fill:#111a24;fill-opacity:0.25"/>
   <text x="60" y="1670.0" style="fill:#f8fafc;font-size:22px;font-weight:700">Zod</text>
   <rect x="270" y="1684.0" width="758.0" height="20" rx="10.0" style="fill:undefined;stroke:#ffffff;stroke-opacity:0.05;stroke-width:1"/><rect x="270" y="1684.0" width="85.9" height="20" rx="10.0" style="fill:#94a3b8"/>
    <text x="60" y="1700.0" style="fill:#9aa3b2;font-size:17px">baseline</text>
    <text x="1204" y="1700.0" style="fill:#cbd5e1;font-size:17px;font-weight:500;text-anchor:end">1.1M tokens</text>
    <rect x="268.0" y="1712.0" width="762.0" height="24.0" rx="12.0" style="fill:none;stroke:#d7f9ff;stroke-opacity:0.18;stroke-width:3.5"/>
    <rect x="270" y="1714.0" width="758.0" height="20" rx="10.0" style="fill:undefined;stroke:#d7f9ff;stroke-width:1.6"/><rect x="270" y="1714.0" width="4.1" height="20" rx="10.0" style="fill:#22d3ee"/><g transform="translate(38.00 1716.00) scale(1.000)" style="fill:none;stroke:#36e2ee;stroke-width:1.5">
    <path d="M2.5 5.5 5.4 8l2.6-4 2.6 4 2.9-2.5-.8 6H3.3l-.8-6Z" style="stroke-linejoin:round"/>
    <path d="M3.5 12.5 h9" style="stroke-linecap:round"/>
   </g>
    <text x="60" y="1730.0" style="fill:#22d3ee;font-size:17px;font-weight:700">@ttsc/graph</text>
    <text x="1204" y="1730.0" style="fill:#36e2ee;font-size:17px;font-weight:700;text-anchor:end">95% saved</text>
    <rect x="270" y="1744.0" width="758.0" height="20" rx="10.0" style="fill:undefined;stroke:#ffffff;stroke-opacity:0.05;stroke-width:1"/><rect x="270" y="1744.0" width="56.3" height="20" rx="10.0" style="fill:#f59e0b"/>
    <text x="60" y="1760.0" style="fill:#f59e0b;font-size:17px">codegraph</text>
    <text x="1204" y="1760.0" style="fill:#cbd5e1;font-size:17px;font-weight:500;text-anchor:end">34% saved</text>
    <rect x="270" y="1774.0" width="758.0" height="20" rx="10.0" style="fill:undefined;stroke:#ffffff;stroke-opacity:0.05;stroke-width:1"/><rect x="270" y="1774.0" width="148.1" height="20" rx="10.0" style="fill:#a3e635"/>
    <text x="60" y="1790.0" style="fill:#a3e635;font-size:17px">codebase-memory</text>
    <text x="1204" y="1790.0" style="fill:#fb7185;font-size:17px;font-weight:500;text-anchor:end">72% over</text>
    <rect x="270" y="1804.0" width="758.0" height="20" rx="10.0" style="fill:undefined;stroke:#ffffff;stroke-opacity:0.05;stroke-width:1"/><rect x="270" y="1804.0" width="78.0" height="20" rx="10.0" style="fill:#f472b6"/>
    <text x="60" y="1820.0" style="fill:#f472b6;font-size:17px">serena</text>
    <text x="1204" y="1820.0" style="fill:#cbd5e1;font-size:17px;font-weight:500;text-anchor:end">9% saved</text>
</svg>
