<?xml version="1.0" encoding="utf-8" standalone="no"?>
<svg xmlns="http://www.w3.org/2000/svg" width="1040" height="1030" viewBox="0 0 1040 1030" version="1.1" role="img" aria-label="Cold time to a first answer (lower is better)">
 <rect width="1040" height="1030" fill="#0b0f14"/>
 <text x="40" y="42" fill="#f8fafc" font-size="20" font-weight="bold" font-family="DejaVu Sans, Arial, sans-serif">Cold time to a first answer (lower is better)</text>
 <text x="40" y="62" fill="#64748b" font-size="12" font-family="DejaVu Sans, Arial, sans-serif">AMD Ryzen 9 7940HS w/ Radeon 780M Graphics, 16 cores, 31 GB — Windows_NT 10.0.26200</text>
 <text x="40" y="1010" fill="#64748b" font-size="12.5" font-family="DejaVu Sans, Arial, sans-serif">Cold checkout: build the tool's index once, then ask. LLM time is the median wall clock over four models and both prompt families; the baseline has no index to build.</text>
  <rect x="40" y="76" width="13" height="13" fill="#94a3b8" rx="2"/>
  <text x="59" y="87" fill="#cbd5f5" font-size="13.5">baseline</text>
  <rect x="220" y="76" width="13" height="13" fill="#22d3ee" rx="2"/>
  <text x="239" y="87" fill="#cbd5f5" font-size="13.5">@ttsc/graph</text>
  <rect x="400" y="76" width="13" height="13" fill="#f59e0b" rx="2"/>
  <text x="419" y="87" fill="#cbd5f5" font-size="13.5">codegraph</text>
  <rect x="580" y="76" width="13" height="13" fill="#a3e635" rx="2"/>
  <text x="599" y="87" fill="#cbd5f5" font-size="13.5">codebase-memory</text>
  <rect x="760" y="76" width="13" height="13" fill="#f472b6" rx="2"/>
  <text x="779" y="87" fill="#cbd5f5" font-size="13.5">serena</text>
  <rect x="40" y="102" width="60" height="17" fill="#22d3ee" fill-opacity="0.35" rx="2"/>
  <rect x="100" y="102" width="40" height="17" fill="#22d3ee" rx="2"/>
  <text x="70" y="115" fill="#e2e8f0" font-size="11" font-weight="bold" text-anchor="middle">index</text>
  <text x="120" y="115" fill="#0b0f14" font-size="11" font-weight="bold" text-anchor="middle">LLM</text>
  <text x="150" y="115" fill="#cbd5f5" font-size="13">faded = index build, solid = LLM answering — each bar is labelled index / LLM</text>
  <rect x="160" y="157.0" width="740" height="86.0" fill="#111a24" fill-opacity="0.6" rx="3"/>
  <rect x="160" y="257.0" width="740" height="86.0" fill="#111a24" fill-opacity="0.25" rx="3"/>
  <rect x="160" y="357.0" width="740" height="86.0" fill="#111a24" fill-opacity="0.6" rx="3"/>
  <rect x="160" y="457.0" width="740" height="86.0" fill="#111a24" fill-opacity="0.25" rx="3"/>
  <rect x="160" y="557.0" width="740" height="86.0" fill="#111a24" fill-opacity="0.6" rx="3"/>
  <rect x="160" y="657.0" width="740" height="86.0" fill="#111a24" fill-opacity="0.25" rx="3"/>
  <rect x="160" y="757.0" width="740" height="86.0" fill="#111a24" fill-opacity="0.6" rx="3"/>
  <rect x="160" y="857.0" width="740" height="86.0" fill="#111a24" fill-opacity="0.25" rx="3"/>
  <line x1="160.0" y1="150" x2="160.0" y2="950" stroke="#1f2937" stroke-width="1"/>
  <text x="160.0" y="972" fill="#94a3b8" font-size="12" text-anchor="middle">0 s</text>
  <line x1="345.0" y1="150" x2="345.0" y2="950" stroke="#1f2937" stroke-width="1"/>
  <text x="345.0" y="972" fill="#94a3b8" font-size="12" text-anchor="middle">250 s</text>
  <line x1="530.0" y1="150" x2="530.0" y2="950" stroke="#1f2937" stroke-width="1"/>
  <text x="530.0" y="972" fill="#94a3b8" font-size="12" text-anchor="middle">500 s</text>
  <line x1="715.0" y1="150" x2="715.0" y2="950" stroke="#1f2937" stroke-width="1"/>
  <text x="715.0" y="972" fill="#94a3b8" font-size="12" text-anchor="middle">750 s</text>
  <line x1="900.0" y1="150" x2="900.0" y2="950" stroke="#1f2937" stroke-width="1"/>
  <text x="900.0" y="972" fill="#94a3b8" font-size="12" text-anchor="middle">1,000 s</text>
  <text x="148" y="196.0" fill="#e2e8f0" font-size="13" text-anchor="end">shopping</text>
  <text x="148" y="212.0" fill="#64748b" font-size="10" text-anchor="end">51,478 lines</text>
  <rect x="160.0" y="166.0" width="95.8" height="12.5" fill="#94a3b8" rx="2"/>
  <text x="263.8" y="176.3" fill="#cbd5f5" font-size="11">0s / 129s</text>
  <rect x="160" y="183.0" width="0.8" height="12.5" fill="#22d3ee" fill-opacity="0.35" rx="2"/>
  <rect x="160.8" y="183.0" width="28.7" height="12.5" fill="#22d3ee" rx="2"/>
  <text x="197.4" y="193.3" fill="#cbd5f5" font-size="11">1.0s / 39s</text>
  <rect x="160" y="200.0" width="7.0" height="12.5" fill="#f59e0b" fill-opacity="0.35" rx="2"/>
  <rect x="167.0" y="200.0" width="50.3" height="12.5" fill="#f59e0b" rx="2"/>
  <text x="225.3" y="210.3" fill="#cbd5f5" font-size="11">9.4s / 68s</text>
  <rect x="160" y="217.0" width="9.4" height="12.5" fill="#f472b6" fill-opacity="0.35" rx="2"/>
  <rect x="169.4" y="217.0" width="123.5" height="12.5" fill="#f472b6" rx="2"/>
  <text x="300.9" y="227.3" fill="#cbd5f5" font-size="11">13s / 167s</text>
  <text x="148" y="296.0" fill="#e2e8f0" font-size="13" text-anchor="end">zod</text>
  <text x="148" y="312.0" fill="#64748b" font-size="10" text-anchor="end">79,306 lines</text>
  <rect x="160.0" y="257.5" width="129.1" height="12.5" fill="#94a3b8" rx="2"/>
  <text x="297.1" y="267.8" fill="#cbd5f5" font-size="11">0s / 174s</text>
  <rect x="160" y="274.5" width="1.1" height="12.5" fill="#22d3ee" fill-opacity="0.35" rx="2"/>
  <rect x="161.1" y="274.5" width="33.5" height="12.5" fill="#22d3ee" rx="2"/>
  <text x="202.6" y="284.8" fill="#cbd5f5" font-size="11">1.5s / 45s</text>
  <rect x="160" y="291.5" width="7.6" height="12.5" fill="#f59e0b" fill-opacity="0.35" rx="2"/>
  <rect x="167.6" y="291.5" width="50.2" height="12.5" fill="#f59e0b" rx="2"/>
  <text x="225.8" y="301.8" fill="#cbd5f5" font-size="11">10s / 68s</text>
  <rect x="160" y="308.5" width="0.6" height="12.5" fill="#a3e635" fill-opacity="0.35" rx="2"/>
  <rect x="160.6" y="308.5" width="89.1" height="12.5" fill="#a3e635" rx="2"/>
  <text x="257.7" y="318.8" fill="#cbd5f5" font-size="11">0.8s / 120s</text>
  <rect x="160" y="325.5" width="7.1" height="12.5" fill="#f472b6" fill-opacity="0.35" rx="2"/>
  <rect x="167.1" y="325.5" width="87.2" height="12.5" fill="#f472b6" rx="2"/>
  <text x="262.3" y="335.8" fill="#cbd5f5" font-size="11">9.6s / 118s</text>
  <text x="148" y="396.0" fill="#e2e8f0" font-size="13" text-anchor="end">nestjs</text>
  <text x="148" y="412.0" fill="#64748b" font-size="10" text-anchor="end">88,775 lines</text>
  <rect x="160.0" y="357.5" width="116.9" height="12.5" fill="#94a3b8" rx="2"/>
  <text x="284.9" y="367.8" fill="#cbd5f5" font-size="11">0s / 158s</text>
  <rect x="160" y="374.5" width="0.8" height="12.5" fill="#22d3ee" fill-opacity="0.35" rx="2"/>
  <rect x="160.8" y="374.5" width="49.1" height="12.5" fill="#22d3ee" rx="2"/>
  <text x="217.9" y="384.8" fill="#cbd5f5" font-size="11">1.1s / 66s</text>
  <rect x="160" y="391.5" width="15.2" height="12.5" fill="#f59e0b" fill-opacity="0.35" rx="2"/>
  <rect x="175.2" y="391.5" width="42.7" height="12.5" fill="#f59e0b" rx="2"/>
  <text x="225.9" y="401.8" fill="#cbd5f5" font-size="11">21s / 58s</text>
  <rect x="160" y="408.5" width="1.0" height="12.5" fill="#a3e635" fill-opacity="0.35" rx="2"/>
  <rect x="161.0" y="408.5" width="101.4" height="12.5" fill="#a3e635" rx="2"/>
  <text x="270.5" y="418.8" fill="#cbd5f5" font-size="11">1.4s / 137s</text>
  <rect x="160" y="425.5" width="13.2" height="12.5" fill="#f472b6" fill-opacity="0.35" rx="2"/>
  <rect x="173.2" y="425.5" width="93.5" height="12.5" fill="#f472b6" rx="2"/>
  <text x="274.6" y="435.8" fill="#cbd5f5" font-size="11">18s / 126s</text>
  <text x="148" y="496.0" fill="#e2e8f0" font-size="13" text-anchor="end">rxjs</text>
  <text x="148" y="512.0" fill="#64748b" font-size="10" text-anchor="end">91,238 lines</text>
  <rect x="160.0" y="457.5" width="86.4" height="12.5" fill="#94a3b8" rx="2"/>
  <text x="254.4" y="467.8" fill="#cbd5f5" font-size="11">0s / 117s</text>
  <rect x="160" y="474.5" width="0.6" height="12.5" fill="#22d3ee" fill-opacity="0.35" rx="2"/>
  <rect x="160.6" y="474.5" width="32.3" height="12.5" fill="#22d3ee" rx="2"/>
  <text x="200.9" y="484.8" fill="#cbd5f5" font-size="11">0.8s / 44s</text>
  <rect x="160" y="491.5" width="11.9" height="12.5" fill="#f59e0b" fill-opacity="0.35" rx="2"/>
  <rect x="171.9" y="491.5" width="48.2" height="12.5" fill="#f59e0b" rx="2"/>
  <text x="228.1" y="501.8" fill="#cbd5f5" font-size="11">16s / 65s</text>
  <rect x="160" y="508.5" width="1.0" height="12.5" fill="#a3e635" fill-opacity="0.35" rx="2"/>
  <rect x="161.0" y="508.5" width="88.6" height="12.5" fill="#a3e635" rx="2"/>
  <text x="257.6" y="518.8" fill="#cbd5f5" font-size="11">1.3s / 120s</text>
  <rect x="160" y="525.5" width="11.0" height="12.5" fill="#f472b6" fill-opacity="0.35" rx="2"/>
  <rect x="171.0" y="525.5" width="80.5" height="12.5" fill="#f472b6" rx="2"/>
  <text x="259.5" y="535.8" fill="#cbd5f5" font-size="11">15s / 109s</text>
  <text x="148" y="596.0" fill="#e2e8f0" font-size="13" text-anchor="end">vue</text>
  <text x="148" y="612.0" fill="#64748b" font-size="10" text-anchor="end">151,184 lines</text>
  <rect x="160.0" y="557.5" width="110.9" height="12.5" fill="#94a3b8" rx="2"/>
  <text x="278.9" y="567.8" fill="#cbd5f5" font-size="11">0s / 150s</text>
  <rect x="160" y="574.5" width="1.5" height="12.5" fill="#22d3ee" fill-opacity="0.35" rx="2"/>
  <rect x="161.5" y="574.5" width="36.9" height="12.5" fill="#22d3ee" rx="2"/>
  <text x="206.3" y="584.8" fill="#cbd5f5" font-size="11">2.0s / 50s</text>
  <rect x="160" y="591.5" width="9.2" height="12.5" fill="#f59e0b" fill-opacity="0.35" rx="2"/>
  <rect x="169.2" y="591.5" width="52.4" height="12.5" fill="#f59e0b" rx="2"/>
  <text x="229.6" y="601.8" fill="#cbd5f5" font-size="11">12s / 71s</text>
  <rect x="160" y="608.5" width="0.8" height="12.5" fill="#a3e635" fill-opacity="0.35" rx="2"/>
  <rect x="160.8" y="608.5" width="86.5" height="12.5" fill="#a3e635" rx="2"/>
  <text x="255.3" y="618.8" fill="#cbd5f5" font-size="11">1.1s / 117s</text>
  <rect x="160" y="625.5" width="9.3" height="12.5" fill="#f472b6" fill-opacity="0.35" rx="2"/>
  <rect x="169.3" y="625.5" width="101.0" height="12.5" fill="#f472b6" rx="2"/>
  <text x="278.3" y="635.8" fill="#cbd5f5" font-size="11">13s / 137s</text>
  <text x="148" y="696.0" fill="#e2e8f0" font-size="13" text-anchor="end">excalidraw</text>
  <text x="148" y="712.0" fill="#64748b" font-size="10" text-anchor="end">172,012 lines</text>
  <rect x="160.0" y="657.5" width="156.2" height="12.5" fill="#94a3b8" rx="2"/>
  <text x="324.2" y="667.8" fill="#cbd5f5" font-size="11">0s / 211s</text>
  <rect x="160" y="674.5" width="1.4" height="12.5" fill="#22d3ee" fill-opacity="0.35" rx="2"/>
  <rect x="161.4" y="674.5" width="42.1" height="12.5" fill="#22d3ee" rx="2"/>
  <text x="211.5" y="684.8" fill="#cbd5f5" font-size="11">1.9s / 57s</text>
  <rect x="160" y="691.5" width="13.2" height="12.5" fill="#f59e0b" fill-opacity="0.35" rx="2"/>
  <rect x="173.2" y="691.5" width="55.0" height="12.5" fill="#f59e0b" rx="2"/>
  <text x="236.1" y="701.8" fill="#cbd5f5" font-size="11">18s / 74s</text>
  <rect x="160" y="708.5" width="1.4" height="12.5" fill="#a3e635" fill-opacity="0.35" rx="2"/>
  <rect x="161.4" y="708.5" width="127.8" height="12.5" fill="#a3e635" rx="2"/>
  <text x="297.3" y="718.8" fill="#cbd5f5" font-size="11">1.9s / 173s</text>
  <rect x="160" y="725.5" width="10.9" height="12.5" fill="#f472b6" fill-opacity="0.35" rx="2"/>
  <rect x="170.9" y="725.5" width="152.3" height="12.5" fill="#f472b6" rx="2"/>
  <text x="331.2" y="735.8" fill="#cbd5f5" font-size="11">15s / 206s</text>
  <text x="148" y="796.0" fill="#e2e8f0" font-size="13" text-anchor="end">typeorm</text>
  <text x="148" y="812.0" fill="#64748b" font-size="10" text-anchor="end">299,837 lines</text>
  <rect x="160.0" y="757.5" width="125.3" height="12.5" fill="#94a3b8" rx="2"/>
  <text x="293.3" y="767.8" fill="#cbd5f5" font-size="11">0s / 169s</text>
  <rect x="160" y="774.5" width="1.8" height="12.5" fill="#22d3ee" fill-opacity="0.35" rx="2"/>
  <rect x="161.8" y="774.5" width="36.9" height="12.5" fill="#22d3ee" rx="2"/>
  <text x="206.7" y="784.8" fill="#cbd5f5" font-size="11">2.4s / 50s</text>
  <rect x="160" y="791.5" width="40.9" height="12.5" fill="#f59e0b" fill-opacity="0.35" rx="2"/>
  <rect x="200.9" y="791.5" width="47.6" height="12.5" fill="#f59e0b" rx="2"/>
  <text x="256.5" y="801.8" fill="#cbd5f5" font-size="11">55s / 64s</text>
  <rect x="160" y="808.5" width="2.2" height="12.5" fill="#a3e635" fill-opacity="0.35" rx="2"/>
  <rect x="162.2" y="808.5" width="75.0" height="12.5" fill="#a3e635" rx="2"/>
  <text x="245.2" y="818.8" fill="#cbd5f5" font-size="11">3.0s / 101s</text>
  <rect x="160" y="825.5" width="21.4" height="12.5" fill="#f472b6" fill-opacity="0.35" rx="2"/>
  <rect x="181.4" y="825.5" width="87.5" height="12.5" fill="#f472b6" rx="2"/>
  <text x="276.9" y="835.8" fill="#cbd5f5" font-size="11">29s / 118s</text>
  <text x="148" y="896.0" fill="#e2e8f0" font-size="13" text-anchor="end">vscode</text>
  <text x="148" y="912.0" fill="#64748b" font-size="10" text-anchor="end">3,094,212 lines</text>
  <rect x="160.0" y="857.5" width="126.2" height="12.5" fill="#94a3b8" rx="2"/>
  <text x="294.2" y="867.8" fill="#cbd5f5" font-size="11">0s / 171s</text>
  <rect x="160" y="874.5" width="21.2" height="12.5" fill="#22d3ee" fill-opacity="0.35" rx="2"/>
  <rect x="181.2" y="874.5" width="75.2" height="12.5" fill="#22d3ee" rx="2"/>
  <text x="264.4" y="884.8" fill="#cbd5f5" font-size="11">29s / 102s</text>
  <rect x="160" y="891.5" width="541.3" height="12.5" fill="#f59e0b" fill-opacity="0.35" rx="2"/>
  <rect x="701.3" y="891.5" width="80.5" height="12.5" fill="#f59e0b" rx="2"/>
  <text x="789.7" y="901.8" fill="#cbd5f5" font-size="11">731s / 109s</text>
  <rect x="160" y="908.5" width="87.9" height="12.5" fill="#a3e635" fill-opacity="0.35" rx="2"/>
  <rect x="247.9" y="908.5" width="87.3" height="12.5" fill="#a3e635" rx="2"/>
  <text x="343.2" y="918.8" fill="#cbd5f5" font-size="11">119s / 118s</text>
  <rect x="160" y="925.5" width="202.7" height="12.5" fill="#f472b6" fill-opacity="0.35" rx="2"/>
  <rect x="362.7" y="925.5" width="127.7" height="12.5" fill="#f472b6" rx="2"/>
  <text x="498.4" y="935.8" fill="#cbd5f5" font-size="11">274s / 173s</text>
</svg>
