<svg xmlns="http://www.w3.org/2000/svg" width="1200" height="512" viewBox="0 0 1200 512" font-family="'Segoe UI', system-ui, -apple-system, Helvetica, Arial, sans-serif">
  <defs>
    <linearGradient id="bg" x1="0" y1="0" x2="1" y2="1">
      <stop offset="0" stop-color="#0d1117"/>
      <stop offset="1" stop-color="#1b2330"/>
    </linearGradient>
    <marker id="arrow" markerWidth="9" markerHeight="9" refX="6" refY="3" orient="auto">
      <path d="M0 0 L6 3 L0 6 z" fill="#7d93b0"/>
    </marker>
    <marker id="arrowG" markerWidth="9" markerHeight="9" refX="6" refY="3" orient="auto">
      <path d="M0 0 L6 3 L0 6 z" fill="#3fb950"/>
    </marker>
  </defs>
  <rect width="1200" height="512" fill="url(#bg)"/>

  <!-- title -->
  <text x="60" y="56" font-size="30" font-weight="700" fill="#e6edf3">One tool, a forced checklist</text>
  <text x="60" y="86" font-size="17" font-weight="500" fill="#8b949e">Every call walks the same chain of thought before it can act</text>

  <!-- ===================== chain of 4 boxes ===================== -->
  <!-- arrows between boxes -->
  <g stroke="#3a4656" stroke-width="2.5" fill="none">
    <line x1="312" y1="154" x2="366" y2="154" marker-end="url(#arrow)"/>
    <line x1="572" y1="154" x2="626" y2="154" marker-end="url(#arrow)"/>
    <line x1="832" y1="154" x2="886" y2="154" marker-end="url(#arrow)"/>
  </g>

  <!-- box 1: question -->
  <rect x="115" y="120" width="190" height="68" rx="12" fill="#161d28" stroke="#3178c6" stroke-width="1.8"/>
  <text x="210" y="151" font-size="20" font-weight="700" fill="#e6edf3" text-anchor="middle">question</text>
  <text x="210" y="172" font-size="12.5" font-weight="500" fill="#8b949e" text-anchor="middle">the broad ask</text>

  <!-- box 2: draft -->
  <rect x="375" y="120" width="190" height="68" rx="12" fill="#161d28" stroke="#3178c6" stroke-width="1.8"/>
  <text x="470" y="151" font-size="20" font-weight="700" fill="#e6edf3" text-anchor="middle">draft</text>
  <text x="470" y="172" font-size="12.5" font-weight="500" fill="#8b949e" text-anchor="middle">first attempt</text>

  <!-- box 3: review -->
  <rect x="635" y="120" width="190" height="68" rx="12" fill="#161d28" stroke="#3178c6" stroke-width="1.8"/>
  <text x="730" y="151" font-size="20" font-weight="700" fill="#e6edf3" text-anchor="middle">review</text>
  <text x="730" y="172" font-size="12.5" font-weight="500" fill="#8b949e" text-anchor="middle">does it fit?</text>

  <!-- box 4: request -->
  <rect x="895" y="120" width="190" height="68" rx="12" fill="#161d28" stroke="#3178c6" stroke-width="1.8"/>
  <text x="990" y="151" font-size="20" font-weight="700" fill="#e6edf3" text-anchor="middle">request</text>
  <text x="990" y="172" font-size="12.5" font-weight="500" fill="#8b949e" text-anchor="middle">pick an operation</text>

  <!-- note under chain -->
  <text x="115" y="222" font-size="15.5" font-weight="500" fill="#9fb4cc"><tspan fill="#cfe0f5" font-weight="700">typia</tspan> validates the arguments &#8212; the model can&#8217;t skip a step</text>

  <!-- ===================== escape branch from review ===================== -->
  <g stroke="#3a4656" stroke-width="2.5" fill="none">
    <path d="M730 188 L730 248 Q730 256 722 256 L513 256 Q505 256 505 264 L505 296" marker-end="url(#arrow)"/>
  </g>
  <text x="612" y="248" font-size="12.5" font-weight="600" fill="#8b949e" text-anchor="middle">if off-topic</text>
  <rect x="380" y="302" width="250" height="74" rx="12" fill="#1e1518" stroke="#a85544" stroke-width="1.6"/>
  <text x="505" y="332" font-size="18" font-weight="700" fill="#e6a08f" text-anchor="middle">escape</text>
  <text x="505" y="356" font-size="13" font-weight="500" fill="#b08379" text-anchor="middle">not a graph question &#183; bail out</text>

  <!-- ===================== fan-out from request to 7 ops ===================== -->
  <!-- fan lines into panel top -->
  <g stroke="#2f5d3a" stroke-width="1.6" fill="none" opacity="0.85">
    <line x1="990" y1="190" x2="720" y2="300"/>
    <line x1="990" y1="190" x2="800" y2="300"/>
    <line x1="990" y1="190" x2="880" y2="300"/>
    <line x1="990" y1="190" x2="960" y2="300"/>
    <line x1="990" y1="190" x2="1010" y2="300"/>
    <line x1="990" y1="190" x2="1060" y2="300"/>
    <line x1="990" y1="190" x2="1110" y2="300"/>
  </g>

  <!-- operations panel -->
  <rect x="660" y="300" width="470" height="180" rx="14" fill="#0f1620" stroke="#2a3340" stroke-width="1.5"/>
  <text x="684" y="328" font-size="14" font-weight="700" fill="#8b949e">7 operations</text>
  <text x="1106" y="328" font-size="12.5" font-weight="600" fill="#3fb950" text-anchor="end">tour = the usual pick</text>

  <!-- row 1 -->
  <g font-size="14" font-weight="600">
    <!-- tour (highlighted) -->
    <rect x="698" y="346" width="70" height="32" rx="16" fill="#3fb950" opacity="0.16"/>
    <rect x="698" y="346" width="70" height="32" rx="16" fill="none" stroke="#3fb950" stroke-width="1.6"/>
    <text x="733" y="367" fill="#7ee08c" text-anchor="middle">tour</text>

    <rect x="784" y="346" width="118" height="32" rx="16" fill="#1a222e" stroke="#39455a" stroke-width="1.3"/>
    <text x="843" y="367" fill="#cfe0f5" text-anchor="middle">entrypoints</text>

    <rect x="918" y="346" width="86" height="32" rx="16" fill="#1a222e" stroke="#39455a" stroke-width="1.3"/>
    <text x="961" y="367" fill="#cfe0f5" text-anchor="middle">lookup</text>

    <rect x="1020" y="346" width="76" height="32" rx="16" fill="#1a222e" stroke="#39455a" stroke-width="1.3"/>
    <text x="1058" y="367" fill="#cfe0f5" text-anchor="middle">trace</text>
  </g>

  <!-- row 2 -->
  <g font-size="14" font-weight="600">
    <rect x="744" y="406" width="84" height="32" rx="16" fill="#1a222e" stroke="#39455a" stroke-width="1.3"/>
    <text x="786" y="427" fill="#cfe0f5" text-anchor="middle">details</text>

    <rect x="844" y="406" width="96" height="32" rx="16" fill="#1a222e" stroke="#39455a" stroke-width="1.3"/>
    <text x="892" y="427" fill="#cfe0f5" text-anchor="middle">overview</text>

    <rect x="956" y="406" width="84" height="32" rx="16" fill="#1a222e" stroke="#39455a" stroke-width="1.3"/>
    <text x="998" y="427" fill="#cfe0f5" text-anchor="middle">escape</text>
  </g>
</svg>
